<svg xmlns="http://www.w3.org/2000/svg" width="100" height="100" viewBox="0 0 100 100"><g id="Layer_1" data-name="Layer 1"><path d="M31.12,69.06c-2.35,2.47-5,3.2-8.09,4.14-1.68.51-4,1.82-2.88,4s5.11,1.42,7,1.22C30.26,78.12,33,76.16,36,75" fill="#92dbe0" stroke="#368c8e" stroke-linecap="round" stroke-linejoin="round"/><path d="M69.46,26.44c4-.4,4.56-2.94,6.8-5.83,1.15-1.47,3.57-2.79,4.68-.58,2,4.09-4.44,10-7.59,11.46" fill="#92dbe0" stroke="#368c8e" stroke-linecap="round" stroke-linejoin="round"/><path d="M50.17,21.08c3.27-.72,3.81-2.85,5.4-5.25.81-1.23,2.32-3.14,3.93-3.1,2.44.06,2,2.46,1.4,4.08-.89,2.66-2.56,3.71-4.32,5.83" fill="#92dbe0" stroke="#368c8e" stroke-linecap="round" stroke-linejoin="round"/><path d="M82.55,39.92c3.49-1.2,8.54-1.78,10.93,1.76.7,1,1.41,3.24.16,4.1s-2.8-.85-4-1.28A8.6,8.6,0,0,0,81.84,46" fill="#92dbe0" stroke="#368c8e" stroke-linecap="round" stroke-linejoin="round"/><path d="M66.06,74.8c2.25,2.92,1.53,6.53,2.15,9.89a2.54,2.54,0,0,0,.68,1.53A1.91,1.91,0,0,0,71.38,86,4.6,4.6,0,0,0,72.5,83.5c1-4.83-.11-9.07-2.44-13.31" fill="#92dbe0" stroke="#368c8e" stroke-linecap="round" stroke-linejoin="round"/><path d="M48.54,74.71c-.23,2.16-1.9,4.84-4.12,5.46-1.48.42-4.93,0-4.3,2.82.27,1.16,1.6,1.71,2.78,1.9a11.47,11.47,0,0,0,12.86-8.35" fill="#92dbe0" stroke="#368c8e" stroke-linecap="round" stroke-linejoin="round"/><path d="M28,32.25a4.19,4.19,0,0,1-3.61-1.32A19.29,19.29,0,0,1,22,27.72,7.18,7.18,0,0,0,19.09,25a2.62,2.62,0,0,0-2.45.05,2.71,2.71,0,0,0-1,1.5c-.67,2.16.25,4.52,1.6,6.34A14.54,14.54,0,0,0,25,38.24" fill="#92dbe0" stroke="#368c8e" stroke-linecap="round" stroke-linejoin="round"/><path d="M42.79,21.74c.3-4-4.07-7.62-7.83-7.84A2.63,2.63,0,0,0,32.36,15a2.21,2.21,0,0,0,.43,2.3c1,1.22,2.63,1.73,3.71,2.84s1,2.42,1,3.89" fill="#92dbe0" stroke="#368c8e" stroke-linecap="round" stroke-linejoin="round"/></g></svg>