<svg xmlns="http://www.w3.org/2000/svg" width="100" height="100" viewBox="0 0 100 100"><g id="toppings"><path d="M20.82,63.31A29.88,29.88,0,0,0,15,59.46a14.17,14.17,0,0,1-5.4-5,4.06,4.06,0,0,1-.68-2.35,1.83,1.83,0,0,1,1.34-1.68,3.77,3.77,0,0,1,2,.32l8.55,3" fill="#92dbe0" stroke="#368c8e" stroke-linecap="round" stroke-linejoin="round"/><path d="M22.06,50.77a2.91,2.91,0,0,1-.66,0l-2.38,0-3.51,0-4-.06-3.84-.05-3,0H3.81a1.3,1.3,0,0,1-.59-.05,1.64,1.64,0,0,1-.62-2,1,1,0,0,1,.58-.6,3.9,3.9,0,0,1,1,0l2.78,0L10.7,48l4,0,3.66.05,2.68,0,1,0c.79,0,.75,1.45.61,1.94a1.14,1.14,0,0,1-.3.55A.61.61,0,0,1,22.06,50.77Z" fill="#7a4130"/><path d="M22.1,48.11,4.2,47.87a3.9,3.9,0,0,0-1,0,1,1,0,0,0-.58.6,1.64,1.64,0,0,0,.62,2,1.3,1.3,0,0,0,.59.05h.84l16.75.22a2.91,2.91,0,0,0,.66,0,.61.61,0,0,0,.35-.17,1.14,1.14,0,0,0,.3-.55C22.85,49.56,22.89,48.12,22.1,48.11ZM18.36,50a2.51,2.51,0,0,1-.67,0l-1.44-.06c-2.61-.07-5.22,0-7.83-.11-.75,0-1.53-.12-2.28-.07s-1.46,0-2.18,0c-.32,0-.66.08-.91-.14A.54.54,0,0,1,2.87,49a.79.79,0,0,1,.57-.27c.27,0,.5.17.78.16a3.32,3.32,0,0,0,.61-.13c.36-.08.62.13,1,.15a4.21,4.21,0,0,0,.62,0c.31,0,.62,0,.93,0a4.69,4.69,0,0,1,.91-.06c.4.06.81.1,1.21.12.19,0,.35-.06.53,0s.42.1.63.13a2.49,2.49,0,0,0,1.15-.12,1.44,1.44,0,0,1,1,0c.42.15.87.06,1.31.17a2.72,2.72,0,0,0,1.33.08,1.87,1.87,0,0,1,.88,0,3.56,3.56,0,0,0,1-.07c.46-.06,1.07-.23,1.38.24a.49.49,0,0,1,0,.53A.57.57,0,0,1,18.36,50Z" fill="#633427"/><path d="M22.1,48.29a3.74,3.74,0,0,1-.67,0l-2.38,0-3.51,0-4-.06-3.83,0-3,0H3.84a1.31,1.31,0,0,1-.59,0,1.64,1.64,0,0,1-.62-2,1,1,0,0,1,.59-.6,3.43,3.43,0,0,1,1,0l2.78,0,3.73,0,4,.05,3.67,0,2.67,0,1,0c.8,0,.75,1.45.62,1.94a1.23,1.23,0,0,1-.3.55A.61.61,0,0,1,22.1,48.29Z" fill="#7a4130"/><path d="M22.13,45.63l-17.9-.24a3.43,3.43,0,0,0-1,0,1,1,0,0,0-.59.6,1.64,1.64,0,0,0,.62,2,1.31,1.31,0,0,0,.59,0h.84l16.75.22a3.74,3.74,0,0,0,.67,0,.61.61,0,0,0,.35-.17,1.23,1.23,0,0,0,.3-.55C22.88,47.08,22.93,45.64,22.13,45.63Zm-3.74,1.89a2.51,2.51,0,0,1-.67,0l-1.43-.06c-2.61-.07-5.23,0-7.84-.11-.75,0-1.53-.12-2.27-.07s-1.46,0-2.19,0c-.32,0-.65.08-.91-.14a.55.55,0,0,1-.18-.66.81.81,0,0,1,.57-.27c.28,0,.5.17.78.16a2.57,2.57,0,0,0,.61-.14c.36-.07.63.14,1,.16a4.17,4.17,0,0,0,.61,0c.32,0,.62,0,.93,0a4.74,4.74,0,0,1,.92-.06,12.09,12.09,0,0,0,1.21.12c.18,0,.34-.06.53,0s.41.1.62.13a2.48,2.48,0,0,0,1.15-.12,1.44,1.44,0,0,1,1,0c.43.15.87.06,1.31.17a2.73,2.73,0,0,0,1.33.08,1.87,1.87,0,0,1,.88,0,3.65,3.65,0,0,0,1-.07c.45-.06,1.07-.23,1.37.23a.5.5,0,0,1,0,.54A.57.57,0,0,1,18.39,47.52Z" fill="#633427"/><rect x="2.61" y="43.23" width="19.96" height="1.68" rx="0.33" transform="translate(0.59 -0.16) rotate(0.76)" fill="#b02727"/><path d="M22.22,44.8a.43.43,0,0,1-.48-.4,2.31,2.31,0,0,1,0-.46.45.45,0,0,1,.26-.41.44.44,0,0,1,.44,0,.4.4,0,0,1,.18.33v-.2a.35.35,0,0,0-.33-.34L3,43.1a.34.34,0,0,0-.34.33v1a.34.34,0,0,0,.33.34L22.23,45a.32.32,0,0,0,.33-.33v-.12A.48.48,0,0,1,22.22,44.8Zm-4.15-.43c-.2.25-.61.21-.89.2h-.64c-3.7,0-7.4,0-11.1,0-.79,0-1.58,0-2.37-.08-.42,0-.34-.69-.11-.89s1.1-.15,1.55-.14l1.84,0c3.71.07,7.42,0,11.14.21C17.86,43.67,18.46,43.9,18.07,44.37Z" fill="#922"/><path d="M2.16,50.44H22.94a.32.32,0,0,1,.32.32v1a1.82,1.82,0,0,1-1.82,1.82H3.66a1.82,1.82,0,0,1-1.82-1.82v-1a.32.32,0,0,1,.32-.32Z" transform="translate(0.69 -0.16) rotate(0.76)" fill="#db9951"/><path d="M22.89,50.58l-1.89,0,.14,0c.88.34.64,1.48-.06,1.84a2.77,2.77,0,0,1-1,.23c-1.07.08-2.16,0-3.23,0s-2.19,0-3.29,0l-8.86-.09c-.82,0-1.91,0-2.35-.6a1,1,0,0,1-.16-.45c0-.2-.12-.59.05-.76A1.5,1.5,0,0,1,3,50.53a46.41,46.41,0,0,1,4.72-.08c1.35,0,2.72,0,4.08,0h2.1L2.25,50.31c-.21,0-.39.11-.39.26l0,1.33c0,.82,1,1.51,2.18,1.53l17,.23c1.21,0,2.21-.65,2.22-1.48l0-1.32C23.28,50.71,23.1,50.58,22.89,50.58Z" fill="#d18847"/><path d="M2.16,50.44H22.94a.32.32,0,0,1,.32.32v1a1.82,1.82,0,0,1-1.82,1.82H3.66a1.82,1.82,0,0,1-1.82-1.82v-1a.32.32,0,0,1,.32-.32Z" transform="translate(0.69 -0.16) rotate(0.76)" fill="none" stroke="#ad6c36" stroke-miterlimit="10" stroke-width="0.1"/><path d="M23.24,45.91a.61.61,0,0,1-.44,0,.44.44,0,0,0-.15,0c-.13,0-.13.2-.22.26s-.3,0-.43,0-.5.14-.64.05a1.13,1.13,0,0,1-.22-.27.23.23,0,0,1-.23.15.77.77,0,0,1-.4-.06c-.11,0-.2-.14-.31-.16s-.2,0-.29,0-.21-.1-.32-.09-.17.11-.13.19,0,.05.05.08a.12.12,0,0,1-.07.14.29.29,0,0,1-.16,0l-.63,0a.18.18,0,0,1-.14,0c-.12-.08.06-.17.1-.24a.18.18,0,0,0-.12-.24.37.37,0,0,0-.29,0,.72.72,0,0,1-.36.13c-.12,0-.21-.11-.31-.16s-.4-.1-.43,0,.09.14.1.19a.22.22,0,0,1-.05.19.44.44,0,0,1-.39.11c-.32,0-.61.12-.94.13h-.09a.08.08,0,0,1-.05-.07s0-.06.06-.08c.22-.12-.07-.23-.19-.25s-.55,0-.44.12,0,0,.07,0a.14.14,0,0,1,0,.19.31.31,0,0,1-.18.11.9.9,0,0,1-.75-.22.5.5,0,0,0-.59-.08.76.76,0,0,1-.47.05l-.12-.06a.11.11,0,0,1,0-.12c0-.08.21-.06.21-.16s-.06-.08-.11-.09a1.92,1.92,0,0,0-1.44.24.76.76,0,0,1-.5.17c-.05,0-.11,0-.11-.08s0,0,0-.07-.05-.09-.1-.11-.61-.18-.61,0,.09.1.12.16a.14.14,0,0,1-.07.17.23.23,0,0,1-.2,0c-.07,0-.13-.06-.19-.07s-.28,0-.42.07a1.6,1.6,0,0,1-.49,0,.15.15,0,0,1-.12,0c0-.05,0-.13,0-.2a.17.17,0,0,0-.12-.16.49.49,0,0,0-.24,0,.7.7,0,0,0-.25,0,1.7,1.7,0,0,1-.48.16.18.18,0,0,1-.13,0,.08.08,0,0,1,0-.12s.13,0,.13-.1,0-.06-.08-.07a1.1,1.1,0,0,0-.54-.08s-.32,0-.26.13.06,0,.08.06a.08.08,0,0,1,0,.12A.22.22,0,0,1,7,46c-.42,0-.84,0-1.26,0-.06,0-.13,0-.16,0a.37.37,0,0,1,0-.15.32.32,0,0,0-.36-.21,1,1,0,0,0-.41.22.9.9,0,0,1-.4.23.31.31,0,0,1-.23,0,.18.18,0,0,1-.06-.21.26.26,0,0,1,.12-.11c.37-.27-.42-.34-.56-.32a.35.35,0,0,0-.13.05.11.11,0,0,0,0,.12c0,.06.1.1.11.17S3,46,2.82,46a.2.2,0,0,1-.11,0,.1.1,0,0,1-.06-.08c0-.06.06-.09.11-.12s.09-.1.06-.14-.08,0-.13,0-.15,0-.23.06-.18.12-.27.08a.21.21,0,0,1-.1-.22.37.37,0,0,1,.16-.19c.06,0,.14-.08.17-.15S2.33,45,2.22,45,2,44.85,2,44.74s.12-.15.21-.15c.33,0,.64.18,1,.2.51,0,1.06-.06,1.57-.08s1.16,0,1.74,0c1.25,0,2.5.06,3.75.08l6.08.08,5,.06,1,0c.09,0,.2,0,.28,0s0-.22.1-.31.17,0,.25,0a.42.42,0,0,1,.13.07.12.12,0,0,1,0,.14l-.08,0a.08.08,0,0,0,0,.07c.22,0,.44-.11.66-.13s.53.08.36.34-.2.18-.27.31a1,1,0,0,1-.39.48Z" fill="#97ba49"/><path d="M2.22,45a1.06,1.06,0,0,0,.25.09.57.57,0,0,1,.26,0,.2.2,0,0,1,.12.24,1.25,1.25,0,0,1-.08.12c0,.05,0,.12,0,.14h.08a.67.67,0,0,0,.3-.25,1.59,1.59,0,0,1,.15-.21c.15-.14.48-.07.66-.07s.34,0,.4.1a.28.28,0,0,1,0,.22.59.59,0,0,1-.13.18.3.3,0,0,0,.31-.13,2,2,0,0,1,.23-.27.51.51,0,0,1,.32-.1l.25,0,.15,0a.71.71,0,0,1,.42.17.47.47,0,0,0,.2.1.36.36,0,0,0,.27-.11A.92.92,0,0,1,7,45.11c.1,0,.17-.07.25-.11a.86.86,0,0,1,.3-.09,2.91,2.91,0,0,1,.51.12,2.68,2.68,0,0,0,.8-.07,2.86,2.86,0,0,1,.88.08c.09,0,.33.05.39.13s0,.09,0,.14a.16.16,0,0,0,.12.08,1.16,1.16,0,0,0,.52-.06c.18,0,0-.14.06-.24A.16.16,0,0,1,11,45c.23,0,.42.15.63.22a.91.91,0,0,0,.49,0,1.69,1.69,0,0,1,.55-.05,2.2,2.2,0,0,0,.57.05s.12,0,.13-.07,0,0,0-.07a.08.08,0,0,1,.09,0,.84.84,0,0,1,.5.17,1,1,0,0,0,.52.15,1.2,1.2,0,0,0,.65-.08c.2-.08.37-.24.58-.24s.48.15.38.32l-.06.08a.14.14,0,0,0,0,.09s.09.06.15,0a.87.87,0,0,0,.44-.16.65.65,0,0,1,.62-.16c.11,0,.22.08.33.1a.25.25,0,0,0,.17,0c.07,0,.09-.06.15-.09a1.23,1.23,0,0,1,.43,0,.86.86,0,0,1,.72.17s.06,0,.09,0,0-.07.06-.1c.12-.21.6-.12.77-.06a1.37,1.37,0,0,0,.61.17.41.41,0,0,0,.23-.13c0-.09,0-.17.14-.22a.39.39,0,0,1,.28,0,1.67,1.67,0,0,1,.24.16.6.6,0,0,0,.26.11c.13,0,.19-.08.31-.09a2.78,2.78,0,0,0,.5,0,.24.24,0,0,1,0-.22.21.21,0,0,1,.2-.09.11.11,0,0,1,.11.08s0,.05,0,.08.07.07.13.07a.76.76,0,0,0,.29-.13.32.32,0,0,1,.31,0,.22.22,0,0,1,.1.18.3.3,0,0,1-.06.2s.11-.09.15-.13.13-.12.18-.2c.17-.26-.15-.37-.36-.34s-.44.16-.66.13a.08.08,0,0,1,0-.07l.08,0a.12.12,0,0,0,0-.14.42.42,0,0,0-.13-.07c-.08,0-.19-.06-.25,0s0,.23-.1.31-.19,0-.28,0l-1,0-11-.14c-1.25,0-2.5-.09-3.75-.08q-.87,0-1.74,0c-.51,0-1.06.11-1.57.08-.33,0-.64-.17-1-.2-.09,0-.2,0-.21.15S2.12,44.93,2.22,45Z" fill="#7fa32e"/><path d="M22.5,45.64s-.08,0-.09,0a0,0,0,0,0,0,.05l0,0a.32.32,0,0,1,.1.18c0-.08.17-.06.18-.12S22.55,45.66,22.5,45.64Z" fill="#7fa32e"/><path d="M19.52,45.4c0,.17.2.27.26.43a.23.23,0,0,0-.25,0,.21.21,0,0,0-.1.22V46C19.31,45.85,19.42,45.52,19.52,45.4Z" fill="#7fa32e"/><path d="M21,45.6a.54.54,0,0,1,.3.54,2,2,0,0,0-.21-.18h0A1.3,1.3,0,0,0,21,45.6Z" fill="#7fa32e"/><path d="M18.82,45.87V46a.12.12,0,0,0,.07.07S19,46,19,46a.16.16,0,0,0,0-.1.47.47,0,0,0-.22-.39c-.11,0-.06,0,0,.11A.5.5,0,0,1,18.82,45.87Z" fill="#7fa32e"/><path d="M13.23,45.62a.28.28,0,0,1,0,.23s0,0,0,.08a.07.07,0,0,0,0,.06.06.06,0,0,0,.08,0,.16.16,0,0,0,0-.07.36.36,0,0,0-.07-.3s-.16-.16-.22-.1S13.21,45.58,13.23,45.62Z" fill="#7fa32e"/><path d="M10.94,45.68a.22.22,0,0,1,.22,0,.21.21,0,0,1,.09.17.51.51,0,0,1-.08.29.43.43,0,0,0-.16-.29.4.4,0,0,0-.32,0C10.78,45.8,10.86,45.72,10.94,45.68Z" fill="#7fa32e"/><path d="M15.1,45.6a.61.61,0,0,0,.33.37.3.3,0,0,0-.21,0c-.06,0-.14.1-.18,0S15,45.68,15.1,45.6Z" fill="#7fa32e"/><path d="M15.84,45.75c0,.09-.1.15-.17.19.08,0,.13.16.2.09a.17.17,0,0,0,0-.14S15.84,45.77,15.84,45.75Z" fill="#7fa32e"/><path d="M16.55,45.85s0-.07,0-.08.07,0,.09,0,.09.26,0,.3S16.57,45.91,16.55,45.85Z" fill="#7fa32e"/><path d="M8.05,45.61A.28.28,0,0,0,8,45.36a.38.38,0,0,0-.24-.07.55.55,0,0,0-.4.08.29.29,0,0,1,.24.06.3.3,0,0,1,.1.23s.25.13.26.17h0A.84.84,0,0,0,8.05,45.61Z" fill="#7fa32e"/><path d="M7,45.77s0,0,0,0a.19.19,0,0,1,0-.08.3.3,0,0,0,0-.11c0-.09-.06-.07-.09,0S7,45.7,7,45.77Z" fill="#7fa32e"/><path d="M5.56,46s0,.06,0,.05a0,0,0,0,0,0,0,.21.21,0,0,0,0-.19.61.61,0,0,0-.12-.16s-.12-.13-.19-.11A.86.86,0,0,1,5.56,46Z" fill="#7fa32e"/><path d="M22.77,48.52a.19.19,0,0,1,0,.08.1.1,0,0,1-.07.11s-.26-.15-.31-.17a1.5,1.5,0,0,0-.45-.12q-.54,0-1.08,0a2.15,2.15,0,0,0-1.23.35,13.2,13.2,0,0,1-1.78,1,1.33,1.33,0,0,1-.58.19,1.26,1.26,0,0,1-.43-.08c-1-.33-2.08-.68-3.11-1.06a7.51,7.51,0,0,0-.75-.27c-.26-.06-.53-.09-.79-.14a14.89,14.89,0,0,0-1.62-.19c-.62,0-1.25,0-1.87,0q-1.62,0-3.24-.06l-1.66-.06c-.35,0-.87-.13-1.13.17-.07.07-.12.28-.25.23s-.07-.12,0-.19c.16-.56.79-.52,1.25-.53,1.19,0,2.38,0,3.56.06l2.68,0c.89,0,1.8,0,2.69.09s1.79.24,2.68.27a13.52,13.52,0,0,0,1.42,0c.75-.05,1.5-.18,2.26-.21s1.64,0,2.47,0c.45,0,1.07.06,1.34.48Z" fill="#f5b81b"/><path d="M17,48.38a12.32,12.32,0,0,1-1.61,0,10.64,10.64,0,0,0-1.49-.09c-.08,0-.19,0-.18.13s.09.09.15.11q.93.24,1.83.57c.3.11.59.22.89.35s.35.27.62.24a1.43,1.43,0,0,0,.52-.23l.6-.32a10,10,0,0,1,1.59-.75c.37-.12.76-.12,1.13-.22,0,0,.06,0,.07,0s-.07-.08-.12-.07c-.36,0-.72.06-1.07.07s-.71,0-1.07,0c-.58,0-1.16.09-1.74.17Z" fill="#ffd321"/><path d="M2.54,48.15s0,0,0,.05a.05.05,0,0,0,.07,0l.06,0A.64.64,0,0,1,3,48a1.45,1.45,0,0,0,.3-.06s0,0,0,0,0,0,0,0a1.24,1.24,0,0,0-.43.05A.37.37,0,0,0,2.54,48.15Z" fill="#ffd321"/><path d="M5.37,48s0,0,0-.06a.56.56,0,0,0-.13,0c-.5,0-1,0-1.48,0,0,0-.08,0-.09,0s0,0,0,0a13.79,13.79,0,0,0,1.7,0Z" fill="#ffd321"/><path d="M11.51,48.09s0,0,0,0,0,0,0,0l1.16.25.36.07c.05,0,.11,0,.12,0s0-.07-.07-.09a4.78,4.78,0,0,0-.62-.26,1.84,1.84,0,0,0-.25-.05l-.33,0A2.32,2.32,0,0,0,11.51,48.09Z" fill="#ffd321"/><path d="M23.57,42.22A4.29,4.29,0,0,0,23.35,41c-.8-2.69-3.58-4.63-6.12-5.55a14.79,14.79,0,0,0-8.83-.33L8,35.24a10.2,10.2,0,0,0-4,2.39,8.3,8.3,0,0,0-1.41,1.82,6.58,6.58,0,0,0-.49,1,2.24,2.24,0,0,0-.24,1.43,4.35,4.35,0,0,0,.41,1c.07.12.17.31.31.36a3.21,3.21,0,0,0,.62,0l1.67,0,2.44,0,2.93,0,3.15,0,3.09,0,2.76,0,2.15,0h.79a1.18,1.18,0,0,0,.53,0A1.31,1.31,0,0,0,23.57,42.22Z" fill="#db9951"/><path d="M10.55,34.78l-.64,0,.14,0a2.78,2.78,0,0,1,.49-.08Z" fill="#d18847"/><path d="M14.46,34.83l-.77-.06.14.06Z" fill="#d18847"/><path d="M23.58,42.22A6.3,6.3,0,0,0,23.35,41a7.39,7.39,0,0,0-2.42-3.46A14.45,14.45,0,0,0,18.35,36a8,8,0,0,1,2.09,2.66c.51,1.24.19,3-1.21,3.5a5.38,5.38,0,0,1-1.7.18c-4.32,0-8.67.07-13-.29-.47,0-1.31,0-1.71-.25-.79-.58-.39-2.06,0-2.72A5.57,5.57,0,0,0,2,41.2,3.24,3.24,0,0,0,2,42.32a1.81,1.81,0,0,0,.61.92h.68l1.84,0,2.67,0,3.17,0,3.34,0,3.19,0,2.71,0,1.9,0a1.29,1.29,0,0,0,1-.23,1.42,1.42,0,0,0,.39-.68C23.58,42.47,23.58,42.34,23.58,42.22Z" fill="#d18847"/><path d="M23.58,42.22A4.54,4.54,0,0,0,23.35,41c-.8-2.69-3.58-4.63-6.12-5.55a14.79,14.79,0,0,0-8.83-.33L8,35.24a10.2,10.2,0,0,0-3.92,2.35,8.42,8.42,0,0,0-1.56,2.06A8.48,8.48,0,0,0,2,40.85,2.09,2.09,0,0,0,2,42.11a2.75,2.75,0,0,0,.25.59,1.64,1.64,0,0,0,.37.52c.05,0,.05,0,.09,0a1.51,1.51,0,0,0,.3,0l1.4,0,2.25,0,2.83,0,3.11,0,3.14.05,2.88,0,2.34,0,1.54,0a1.14,1.14,0,0,0,1.08-1A1.71,1.71,0,0,0,23.58,42.22Z" fill="none" stroke="#ad6c36" stroke-miterlimit="10" stroke-width="0.13"/><path d="M7.31,36.37a.59.59,0,0,0-.2.05.94.94,0,0,0-.23.1c-.07,0-.15.09-.13.19a.17.17,0,0,0,.15.14c.09,0,.16-.06.22-.11s.36-.28.23-.35A.05.05,0,0,0,7.31,36.37Z" fill="#e6c9aa"/><path d="M4.45,39.67a1,1,0,0,0-.2,0L4,39.82c-.07,0-.15.09-.13.19a.18.18,0,0,0,.15.14c.09,0,.16-.06.22-.12s.36-.27.23-.35Z" fill="#e6c9aa"/><path d="M8.92,37.2a.93.93,0,0,0,.07.2.57.57,0,0,0,.13.21c.05.07.1.14.2.12a.16.16,0,0,0,.12-.17c0-.09-.07-.15-.14-.21S9,37,8.93,37.16,8.92,37.18,8.92,37.2Z" fill="#e6c9aa"/><path d="M11.29,38.2a.58.58,0,0,0-.11.18,1.09,1.09,0,0,0-.07.24c0,.08,0,.17.05.22a.18.18,0,0,0,.21,0,.35.35,0,0,0,.06-.25c0-.06,0-.44-.1-.4Z" fill="#e6c9aa"/><path d="M12,35.78a.61.61,0,0,0-.18.11.77.77,0,0,0-.18.18c0,.07-.11.14-.06.22a.17.17,0,0,0,.19.08c.09,0,.13-.11.17-.18s.25-.38.1-.41Z" fill="#e6c9aa"/><path d="M13.41,37.17a.56.56,0,0,0-.16.14.75.75,0,0,0-.15.2c0,.07-.09.15,0,.22a.17.17,0,0,0,.2.06.34.34,0,0,0,.14-.21c0-.06.19-.4,0-.41S13.43,37.17,13.41,37.17Z" fill="#e6c9aa"/><path d="M17.16,38.31a1,1,0,0,0-.2-.05H16.7c-.08,0-.17,0-.2.11a.2.2,0,0,0,.08.2.36.36,0,0,0,.25,0c.07,0,.44-.09.36-.22Z" fill="#e6c9aa"/><path d="M14.83,39.55a.52.52,0,0,0,.06.2A1.59,1.59,0,0,0,15,40c.06.06.11.14.2.11a.18.18,0,0,0,.13-.17.35.35,0,0,0-.14-.2c-.05-.05-.31-.33-.37-.2A.06.06,0,0,0,14.83,39.55Z" fill="#e6c9aa"/><path d="M18,36.58a.91.91,0,0,0,0,.21,1,1,0,0,0,0,.25c0,.08,0,.17.11.2a.16.16,0,0,0,.19-.08.28.28,0,0,0,0-.25c0-.06-.09-.44-.21-.36Z" fill="#e6c9aa"/><path d="M20,39a.73.73,0,0,0-.18-.11,1.13,1.13,0,0,0-.24-.08c-.08,0-.17,0-.23.05a.18.18,0,0,0,0,.21.32.32,0,0,0,.24.06c.07,0,.45.05.41-.1Z" fill="#e6c9aa"/><path d="M7.74,40a.58.58,0,0,0-.18-.11,1.09,1.09,0,0,0-.24-.07c-.08,0-.17,0-.22,0a.18.18,0,0,0,0,.21.34.34,0,0,0,.24.07c.07,0,.45,0,.41-.1A.05.05,0,0,0,7.74,40Z" fill="#e6c9aa"/><path d="M15.28,36.53l-.2-.07a.71.71,0,0,0-.25,0c-.08,0-.18,0-.21.09a.17.17,0,0,0,.06.2.31.31,0,0,0,.25,0c.06,0,.44,0,.37-.18S15.29,36.54,15.28,36.53Z" fill="#e6c9aa"/><path d="M12.23,35.61a13.78,13.78,0,0,1,4.66.79,11.63,11.63,0,0,1,3.34,1.88l.06,0,.08.07.06.05,0,0,.18.16a6.77,6.77,0,0,1,1.41,1.83l.1.2c0,.06.05.12.09.21l.06.16v.05a1.29,1.29,0,0,1,.07.21,3.52,3.52,0,0,1,.19.91v.21l-.07.1h0a1,1,0,0,0-.81.48,1,1,0,0,0-.1.8v.7a1,1,0,0,0,.06.93l0,.06s0,.08,0,.13a1,1,0,0,0,.14.81,1.55,1.55,0,0,1,0,.72,1.3,1.3,0,0,1,0,.13.84.84,0,0,0,0,.1v0a1,1,0,0,0-.35.85.93.93,0,0,0,.34.66.13.13,0,0,0,0,.06,2,2,0,0,1,0,.61v0a1.3,1.3,0,0,1,0,.13.42.42,0,0,1,0,.12,1,1,0,0,0,.56,1.67v.61a.47.47,0,0,1-.18.21l-.09.07a.79.79,0,0,1-.56.21h0L3.65,52.42a.82.82,0,0,1-.55-.22L3,52.13c-.14-.1-.18-.19-.18-.22v-.6H3a1,1,0,0,0,.65-1.77.7.7,0,0,1-.13-.7l0-.05a.88.88,0,0,0,0-.15A1,1,0,0,0,4,48.1a1,1,0,0,0-.31-1,.72.72,0,0,1-.11-.73l0-.08a.93.93,0,0,0,.2-.48,1,1,0,0,0,0-2H3.62v-.21A1,1,0,0,0,3.2,42.4l-.08-.12A.32.32,0,0,1,3,42.11.76.76,0,0,1,3,42a.58.58,0,0,1-.06-.17.44.44,0,0,1,0-.1.17.17,0,0,1,0-.07c0-.16,0-.33.17-.72l0-.09a.14.14,0,0,0,0-.06,6,6,0,0,1,.54-1.07l.08-.12h0a6.74,6.74,0,0,1,.88-1.1,1.06,1.06,0,0,1,.15-.15l0,0,0,0,.06-.06L5,38.15l.09-.09,0,0L5.17,38l.06,0,.06-.05.08-.06.06-.05.05,0,.09-.07,0,0,.08-.06.08-.06,0,0,.08-.05L6,37.34l0,0,.07,0,.1-.07,0,0,.08,0,.09,0,.1-.06,0,0,.07,0,.07,0,.08,0,.08-.05.07,0,.09,0,.08,0,.12,0,0,0,.07,0,.12,0,.06,0,.06,0,.14-.06,0,0,.06,0L8,36.31l.08,0,.25-.09.33-.1a12.81,12.81,0,0,1,3.56-.48M3.62,43.44h0m20.07,2.32h0M2.86,50.59h0m9.37-16a13.84,13.84,0,0,0-3.83.52L8,35.24l-.27.09-.1,0-.18.07-.11,0-.15.07-.13.05L7,35.66l-.13.06-.13.07-.14.06-.12.07L6.29,36l-.11.06L6,36.13l-.11.07-.14.08-.11.07-.13.09-.11.07-.13.09-.11.08-.13.09-.1.08-.13.1-.1.08-.12.1-.1.09-.12.1-.1.09-.11.1-.08.08,0,0,0,0-.17.17,0,0a7.67,7.67,0,0,0-1,1.23h0l-.08.12,0,0a5.53,5.53,0,0,0-.62,1.24v0a2.34,2.34,0,0,0-.25,1.36,1.19,1.19,0,0,0,.05.26,1.43,1.43,0,0,0,.09.27,1.54,1.54,0,0,0,.28.54,1.25,1.25,0,0,0,.16.22l0,0v0l0,0h0s0,0,0,0h0a.28.28,0,0,0-.06.18v1a.32.32,0,0,0,.13.26,4.36,4.36,0,0,0-.52-.11h0a.21.21,0,0,0-.18.09.11.11,0,0,0,0,.06.18.18,0,0,0,.06.15.46.46,0,0,0,.15.09c.11.05.23.15.2.26s-.11.11-.17.15a.37.37,0,0,0-.16.19.21.21,0,0,0,.1.22h.06a.36.36,0,0,0,.21-.09c.08,0,.15,0,.23-.06l.07,0h0a1.28,1.28,0,0,0-.17.3A1.69,1.69,0,0,0,3,47.83a.69.69,0,0,0-.62.49c0,.07,0,.16,0,.19h0a.15.15,0,0,0,.12-.09h0A1.68,1.68,0,0,0,3,50.32h-.8a.31.31,0,0,0-.21.07H2a.22.22,0,0,0-.09.17v.06h0l0,.95h0v.32a1.26,1.26,0,0,0,.57,1,1.76,1.76,0,0,0,1.23.5l17.78.24h0a1.82,1.82,0,0,0,1.22-.47,1.29,1.29,0,0,0,.6-1l0-1.32a.24.24,0,0,0-.1-.18h0a.33.33,0,0,0-.2-.08h-.52l.11-.15a.25.25,0,0,0,0-.07h0v0a1.33,1.33,0,0,0,.1-.28c0-.08,0-.18.06-.29v-.07a2.73,2.73,0,0,0-.07-1h0a.1.1,0,0,0,.07-.11.19.19,0,0,0,0-.08l0-.05a.84.84,0,0,0-.35-.3l.06-.05a1.15,1.15,0,0,0,.14-.17.16.16,0,0,1,0-.07h0v0c0-.09.08-.19.11-.28a1.92,1.92,0,0,0,.05-.29s0-.05,0-.07a2.21,2.21,0,0,0-.22-1.33l.09,0,.12,0A.59.59,0,0,0,23,46a.78.78,0,0,0,.21,0h0a1,1,0,0,0,.39-.48.22.22,0,0,1,.07-.09l0,0,0,0a1.33,1.33,0,0,0,.16-.17v0c.13-.22-.11-.33-.31-.33h-.14a2.44,2.44,0,0,1-.52.12h-.06a0,0,0,0,1,0,0h0l0,0h0l0,0,0,0s0-.07,0-.11l0,0,0,0-.11,0-.07,0h-.07a.15.15,0,0,0-.11,0c-.08.09,0,.23-.1.31l-.06,0a.33.33,0,0,0,.08-.22v-1a.3.3,0,0,0,0-.16h0a.46.46,0,0,0,.21,0l0,0a.88.88,0,0,0,.35-.2,1.42,1.42,0,0,0,.39-.68c0-.12,0-.25,0-.37h0A4.54,4.54,0,0,0,23.35,41a2.41,2.41,0,0,0-.08-.25.14.14,0,0,1,0-.06c0-.06-.05-.13-.08-.19s0,0,0,0l-.09-.2v0L23,40h0a7.78,7.78,0,0,0-1.62-2.1l0,0-.18-.16-.08-.07a.52.52,0,0,1-.11-.1h0l-.09-.07a12.69,12.69,0,0,0-3.61-2,14.88,14.88,0,0,0-5-.85ZM3.39,44.8h0Z" fill="#3f1d15"/></g></svg>