<svg xmlns="http://www.w3.org/2000/svg" width="100" height="100" viewBox="0 0 100 100"><g id="toppings"><path d="M19.27,44.25a2.89,2.89,0,0,0-2.57-1.86H15.25c-.91,0-1.13-.36-1.13-1,0-.79,0-1.3,0-1.35A24.39,24.39,0,0,1,9,40.36H8a23.83,23.83,0,0,1-5.19-.31S3,51.57,3,52.77a13.94,13.94,0,0,1-.11,2.48h0c0,.1,0,.23,0,.33h0c-.06.31,0,.62-.12,1-.29,1.2-.67,3-.67,3.07,0,1.17,2.52,1.85,6.39,1.85s6.39-.69,6.39-1.87A7.74,7.74,0,0,0,14.53,58s.61-.06,2.18-.4a2.79,2.79,0,0,0,2.43-1.93,29.54,29.54,0,0,0,.76-5.46A24.43,24.43,0,0,0,19.27,44.25ZM17.76,54.6c-.24,1.43-1.07,1.33-2.29,1.54-.8.13-1.3,0-1.39-.12h0c-.24.08-.11-2.42-.11-3.25,0-.67.06-4.54.1-7.84,0-1.23,1.18-.94,1.7-.94s1.57,0,1.88.76a18.37,18.37,0,0,1,.58,4.14A32.12,32.12,0,0,1,17.76,54.6Z" fill="#f0efee"/><path d="M14.07,55.71c0,.78-.92,1.32-2.54,1.7A13.08,13.08,0,0,1,9,57.73H8a13.18,13.18,0,0,1-2.58-.32c-1.62-.38-2.54-.92-2.54-1.69h0c0-.1.1-2.12.1-2.95,0-1.2-.17-12.72-.17-12.72A23.83,23.83,0,0,0,8,40.36H9a24.39,24.39,0,0,0,5.19-.31c0,.26-.17,11.53-.17,12.72C14,53.6,14.07,55.71,14.07,55.71Z" fill="#f7d100"/><path d="M14.14,40.05l-.06,4.27s-2.25.25-5.13.26H8a23.23,23.23,0,0,1-5.13-.3l0-4.35A19.56,19.56,0,0,0,8,40.36H9a24.39,24.39,0,0,0,5.19-.31Z" fill="#f0e9d5"/><path d="M2.89,56c.17.95,2.54,1.46,4.77,1.71-4.16-.44-4.73,0-5,.56s.06,1.48,2.27,2a15.23,15.23,0,0,0,7.61-.18c2.19-.85,2-1.85,2-1.85.25.54,0,.56.21,1s-.27,1-.73,1.27a6.49,6.49,0,0,1-2.6.68A21.34,21.34,0,0,1,5,61.19C3.2,60.8,1.9,60.4,2.14,59.28,2.44,57.85,2.74,57,2.89,56Z" fill="#deceab" opacity="0.56"/><path d="M2.84,39.93c-.08,0-.26-.22-.26-.3-.09-.41.1-1.08,1.41-1A7.15,7.15,0,0,0,6.58,38,4.71,4.71,0,0,1,10,37.8a13.14,13.14,0,0,0,3.19.78c1,.11,1.38.28,1.09,1.73a2.33,2.33,0,0,0-.35.92c-.09.33-.24.57-.35.87a3.76,3.76,0,0,1-.37,1.22c-.05.81-.67,1-.9.54a7.32,7.32,0,0,1-.46-1.22c-.63-.34-.61-.82-1.24-1.55a2.68,2.68,0,0,0-2-.72A49.09,49.09,0,0,1,3.05,40Z" fill="#e8e5d8"/><path d="M14,53.69c0-1.28,0-6.3.06-7.56s0-1.81,0-1.81a56.35,56.35,0,0,1-11.24,0v.14a.07.07,0,0,0,0,0,.56.56,0,0,1,0,.22c0,.25,0,.72,0,1.54,0,0,0,4.54,0,6.15s.05,2,.55,2.61.85-.61.85-1.63,0-6.23,0-6.81c0-1.51.22-1.9,1.12-1.86,6.19.29,7.52-.73,7.53,2.2,0,.77,0,6.8-.12,7.94s-1.67,2.22-3.27,2.39c-1.24.13-3,.53-1.08.52A11.06,11.06,0,0,0,12.92,57a2.24,2.24,0,0,0,1.16-1S14,55,14,53.69Z" fill="#cf8e25" opacity="0.57"/><path d="M14.08,56a.82.82,0,0,0,.7.15s-.46,1.28.3,1.74l-.53.12Z" fill="#75725b" opacity="0.63"/><path d="M14.66,56.49c.95-.16,2.18.15,2.87-.68-.67.84-1.91.58-2.86.76v-.08Z" fill="#a29d9f"/><path d="M3.42,39c-.58.49-.58.8.29.86s3.78.31,4.85.31,2.91.52,3.59.3c.45-.14,1.4-.08,1.66-.45s.07-1.06-.44-.52-1.16-.38-1.71-.21a8.35,8.35,0,0,1-2.22.48c-.75,0-4.14-.4-3.38-.91s.85-1-.39-.55S4.29,38.53,3.42,39Z" fill="#f0efee"/><circle cx="11.11" cy="53.34" r="0.27" fill="#f4e7c8" opacity="0.57"/><circle cx="8.95" cy="48.35" r="0.27" fill="#f4e7c8" opacity="0.57"/><circle cx="7.25" cy="50.55" r="0.27" fill="#f4e7c8" opacity="0.57"/><circle cx="10.56" cy="54.93" r="0.19" fill="#f4e7c8" opacity="0.57"/><circle cx="9.89" cy="50.75" r="0.19" fill="#f4e7c8" opacity="0.57"/><circle cx="8.76" cy="46.47" r="0.19" fill="#f4e7c8" opacity="0.57"/><circle cx="10.84" cy="47.39" r="0.19" fill="#f4e7c8" opacity="0.57"/><circle cx="9.7" cy="52" r="0.38" fill="#f4e7c8" opacity="0.57"/><circle cx="11.03" cy="50.46" r="0.27" fill="#f4e7c8" opacity="0.57"/><path d="M10.05,40.69a2.54,2.54,0,0,1,.91.84,3.33,3.33,0,0,0,.77,1,4.79,4.79,0,0,1,.47,1c.15.4.36.54.52.52s.35-.46.52-.9c.24-.27.23-.73.34-1.13a5.76,5.76,0,0,0,.5-1.43c.18-.23.26-.55-.06-.35a10.64,10.64,0,0,1-3.18.24c-.91-.09-1.21-.18-.92,0Z" fill="#f0e9d5" opacity="0.66"/><path d="M11.37,41a2.38,2.38,0,0,0,.88,0,2,2,0,0,0,.43-.08c.09,0,.32-.12.4-.05s-.14.65-.3.79a.43.43,0,0,0-.09.1.8.8,0,0,0,0,.26,1.3,1.3,0,0,0,0,.34c0,.1,0,.2,0,.3a3.53,3.53,0,0,1,0,.46.76.76,0,0,0,.07.45.14.14,0,0,0,.22,0s.17-.15.16,0a.5.5,0,0,1-.06.24.52.52,0,0,1-.2.26.37.37,0,0,1-.32,0,.57.57,0,0,1-.28-.31,6.16,6.16,0,0,0-.44-1.13c-.16-.22-.41-.37-.55-.6a2.64,2.64,0,0,1-.15-.29,2.81,2.81,0,0,0-.35-.5c-.07-.09-.15-.17-.22-.25s-.19-.17-.18-.24.3-.09.38,0A4.61,4.61,0,0,0,11.37,41Z" fill="#e8e5d8" opacity="0.65"/><path d="M2.84,44.28l.49.06V40.51c0-.28,0-.29.88-.23s4.35.19,4.74.22a2.21,2.21,0,0,1,1.6.88c.5.68.37.86.89,1.22s.42,1,.72,1.36.7.43.9.07.47-1.55.61-1.56a8.4,8.4,0,0,1,.17,1.87l.24,0,.05-3.75a2.41,2.41,0,0,0-.18.59,2.39,2.39,0,0,1-.34.79c-.12.2-.09.71-.18.87a4.4,4.4,0,0,0-.28.85c-.09.36-.24.46-.43.46s-.3-.07-.47-.45a3.41,3.41,0,0,0-.52-1.1,3.16,3.16,0,0,1-.69-.92,2.76,2.76,0,0,0-1.46-1.17,39.78,39.78,0,0,0-4.21-.24,11.66,11.66,0,0,1-2.53-.32s-.06.07-.06.48S2.84,44.28,2.84,44.28Z" fill="#deceab"/><path d="M18.23,48.89a18.37,18.37,0,0,0-.58-4.14C17.34,44,16.29,44,15.77,44s-1.68-.29-1.7.94c0,3.3-.1,7.17-.1,7.84,0,.48,0,1.48.07,2.25v.07c0,.14,0,.27,0,.39v.06s0,.06,0,.09h0v.08c0,.2,0,.31,0,.31s.59.25,1.39.12c1.22-.21,2-.11,2.29-1.54A32.12,32.12,0,0,0,18.23,48.89Z" fill="none" stroke="#5e5e5e" stroke-linecap="round" stroke-linejoin="round"/><path d="M2.63,39.72c-.33-.52.24-1.11,1.05-1.11A6.48,6.48,0,0,0,6.58,38,4.71,4.71,0,0,1,10,37.8a12.2,12.2,0,0,0,3.07.76c.41,0,1.08.06,1.23.53a2,2,0,0,1,0,1.22c-.06.18-.21.32-.26.5s-.08.44-.15.64a3.07,3.07,0,0,1-.24.48,1.85,1.85,0,0,0-.14.69,2.7,2.7,0,0,1-.25.61c-.09.25-.16.86-.52.9a.4.4,0,0,1-.28-.1.81.81,0,0,1-.18-.26,3.74,3.74,0,0,0-.53-1.19c-.09-.1-.2-.18-.29-.28a4.55,4.55,0,0,1-.48-.77,2.62,2.62,0,0,0-2.31-1.16c-1.61,0-4.8-.17-5.6-.34A.77.77,0,0,1,2.63,39.72Z" fill="none" stroke="#b2a18e" stroke-linecap="round" stroke-linejoin="round" stroke-width="0.08"/><path d="M13.88,60.67c.63-.29,1-.65,1-1.09,0,0-.14-.71-.32-1.56h0" fill="none" stroke="#5e5e5e" stroke-linecap="round" stroke-linejoin="round" stroke-width="0.08"/><path d="M14.08,56s0-.11,0-.31v-.08h0s0-.06,0-.09v-.15c0-.09,0-.19,0-.3V55c0-.09,0-.19,0-.29h0c0-.72-.06-1.55-.06-2" fill="none" stroke="#5e5e5e" stroke-linecap="round" stroke-linejoin="round" stroke-width="0.08"/><path d="M8.71,37.56A3.23,3.23,0,0,1,10,37.8a13.38,13.38,0,0,0,3,.76h.06c.41,0,1.07.06,1.22.53a.43.43,0,0,0,0,0,1.29,1.29,0,0,1,0,.21,2,2,0,0,1-.08,1,1.19,1.19,0,0,1-.08.16l-.06.12v0l0,1.14,0-.17,0,.17v0l0,.09c.12.31.43.48,1.05.48H16.7a3,3,0,0,1,1.54.52l.09.07.09.06.12.11a.52.52,0,0,1,.11.1h0l.15.16a2.65,2.65,0,0,1,.36.57c0,.08.07.17.1.26l.09.3c0,.06,0,.12.05.19s.07.32.1.49,0,.12,0,.18l.06.39,0,.2c0,.34.08.69.11,1,0,.07,0,.14,0,.21.06.7.09,1.41.11,2,0,.3,0,.58,0,.82v.14q0,.29,0,.63c0,.11,0,.22,0,.33l0,.39c0,.2,0,.39-.07.59-.05.41-.1.82-.16,1.22l0,.2c0,.13,0,.26-.07.38l0,.19-.06.35c-.06.35-.12.65-.18.88l-.08.3a2.25,2.25,0,0,1-.08.24A.3.3,0,0,1,19,56a2.35,2.35,0,0,1-.47.72l-.07.06a2.64,2.64,0,0,1-.41.32l-.12.07-.09,0-.1.05-.09,0a5,5,0,0,1-1,.3l-.2.05c-1.1.23-1.69.32-1.89.34l-.07,0h0a7.65,7.65,0,0,1,.3,1.4s0,.08,0,.12v0a.31.31,0,0,1,0,.1v0s0,0,0,.07v0a.36.36,0,0,1,0,.09h0l0,.08,0,0,0,.06,0,0-.06.07,0,0,0,0-.07.05h0a2.43,2.43,0,0,1-.62.38,3.12,3.12,0,0,1-.73.26,13.93,13.93,0,0,1-3,.45c-.59.05-1.21.07-1.84.07a17.74,17.74,0,0,1-2.6-.17c-2.14-.24-3.46-.79-3.57-1.59,0,0,0-.08,0-.11s.38-1.86.67-3.07h0c.08-.33.06-.64.12-.94v-.07a2.28,2.28,0,0,1,0-.26c0-.1,0-.21.05-.31,0-.41,0-.87,0-1.28s0-.72,0-1.28c0-1,0-3.1,0-4.57,0-1.17,0-2.4-.05-3.53V44.2c0-.51,0-3.24-.06-3.75v-.4a0,0,0,0,0,0,0v-.17c-.08-.06-.2-.2-.2-.26h0c-.21-.48.3-1,1-1H4a7.71,7.71,0,0,0,1.71-.28l.3-.1c.18-.06.37-.14.58-.23a5.52,5.52,0,0,1,2.13-.44M2.82,40s0,0,0,0h0l0,0,0,.06h0m2.55.29h0M14.07,56h0v0h0v0h0l0,.06h0m-11.29-16h0m5.93-3.49h0a6.59,6.59,0,0,0-2.53.53l-.48.19-.31.1A6.67,6.67,0,0,1,4,37.6H3.86l-.34,0a2.09,2.09,0,0,0-1.73.94,1.54,1.54,0,0,0-.17,1.35,1.25,1.25,0,0,0,.16.35v.2l0,2.57,0,1.18v.07l0,3.54c0,1.46,0,3.57,0,4.56,0,.54,0,1,0,1.3s0,.8,0,1.18a2.23,2.23,0,0,1,0,.23,1.24,1.24,0,0,0,0,.44c0,.12,0,.25,0,.38s0,.27-.05.38-.7,2.93-.7,3.31a1.94,1.94,0,0,0,0,.24C1.27,61.17,2.73,62,5.53,62.3a19.68,19.68,0,0,0,2.72.17c.64,0,1.28,0,1.91-.07a14.69,14.69,0,0,0,3.23-.49,4.27,4.27,0,0,0,.89-.32,3.44,3.44,0,0,0,.83-.52h0l.1-.1,0,0,.08-.09.12-.14a.13.13,0,0,0,0-.05l.09-.12s0-.06,0-.07a.8.8,0,0,0,.08-.16l.09-.22s0-.05,0-.06a.51.51,0,0,0,0-.17v0a1.79,1.79,0,0,0,0-.23.25.25,0,0,0,0-.08,1.64,1.64,0,0,0,0-.23c0-.08,0-.23-.07-.43l1-.19.2,0a6,6,0,0,0,1.15-.36l.13-.06.13-.07.11-.06.15-.09a3.27,3.27,0,0,0,.58-.44l.09-.09a3.24,3.24,0,0,0,.68-1l0-.1L20.1,56a3.46,3.46,0,0,0,.09-.35c.06-.25.13-.57.19-.94l.07-.36,0-.19.06-.4,0-.2c.06-.41.12-.83.16-1.25,0-.21.05-.41.07-.61s0-.27,0-.4,0-.24,0-.35,0-.49,0-.7v-.14c0-.25,0-.54,0-.85,0-.71-.06-1.42-.11-2.07l0-.22q-.06-.56-.12-1.08l0-.21c0-.15-.05-.28-.07-.41l0-.21q-.06-.28-.12-.54a1.6,1.6,0,0,1-.05-.21c0-.13-.07-.24-.11-.35a2.39,2.39,0,0,0-.15-.37,3.63,3.63,0,0,0-.5-.79c-.06-.08-.13-.15-.19-.22l0,0-.15-.14L19,42.26l-.11-.09-.13-.09a4.07,4.07,0,0,0-2.1-.69H15.15v-.55a1.42,1.42,0,0,0,.08-.18,2.79,2.79,0,0,0,.12-1.47,2.83,2.83,0,0,0-.07-.33l0-.05a2,2,0,0,0-1.92-1.21l-.13,0h-.08a12.18,12.18,0,0,1-2.72-.68,4.14,4.14,0,0,0-1.69-.32Z" fill="#5e5e5e"/><path d="M14.6,52.43a2.4,2.4,0,0,0,.75,1.37c2.16,2.11,10.82,2.69,8.14-2.18C21.84,48.64,14,47.84,14.6,52.43Z" fill="#92dbe0" stroke="#368c8e" stroke-linecap="round" stroke-linejoin="round"/></g></svg>