<svg xmlns="http://www.w3.org/2000/svg" width="100" height="100" viewBox="0 0 100 100"><g id="toppings"><path d="M20.54,62.18a29,29,0,0,0-5.38-4.5,14.23,14.23,0,0,1-4.77-5.58A4.08,4.08,0,0,1,10,49.69a1.82,1.82,0,0,1,1.53-1.51,3.71,3.71,0,0,1,1.92.54l8.15,4" fill="#92dbe0" stroke="#368c8e" stroke-linecap="round" stroke-linejoin="round"/><path d="M3.81,54.93a1.12,1.12,0,0,0,.38.24c-.26,0-.51-.12-.56-.28a.31.31,0,0,1,0-.1Z" fill="#ad6c36"/><path d="M19.62,42a3.28,3.28,0,0,1,.37.33c.59.58,1.18,1.16,1.78,1.73q3.6,3.45,7.49,6.57c2.14,1.72,4.38,3.42,6.68,5,.59.4,1.19.8,1.8,1.19.21.14,1,.48,1,.82,0,.53-1.38.55-1.75.61-1.17.19-2.35.35-3.53.48a59.62,59.62,0,0,1-7.78.47,60.54,60.54,0,0,1-7.23-.68A53.18,53.18,0,0,1,11.91,57c-1.23-.38-3.09-.73-4-1.65a1.5,1.5,0,0,1-.43-.75A5.19,5.19,0,0,1,7.77,52,14.56,14.56,0,0,1,9.6,48.23a16.3,16.3,0,0,1,4.22-4.46,11.78,11.78,0,0,1,4.46-1.9C19,41.75,19.24,41.71,19.62,42Z" fill="#a1361d"/><path d="M8.37,44.17l0-.08" fill="none" stroke="#ec00ff" stroke-miterlimit="10" stroke-width="0.12"/><path d="M7.63,54.91a3.09,3.09,0,0,1-.21-1.19,6.56,6.56,0,0,1,.26-1.06,12.74,12.74,0,0,1,.83-2.15,14.73,14.73,0,0,1,2.79-3.89,17.85,17.85,0,0,1,4.35-3.17,21.67,21.67,0,0,1,2.65-1.19c.85-.32,1.59-.28,1.35-1.39a2.61,2.61,0,0,0-.77-1.45c-.78-.69-1.69-.35-2.53,0a26.92,26.92,0,0,0-2.81,1.36A21,21,0,0,0,4.9,49.84c-.26.56-.51,1.13-.75,1.7l-.36.83c-.11.24-.13.49-.23.74a1.67,1.67,0,0,0,.16,1.44,1.38,1.38,0,0,0,1.11.67,5.94,5.94,0,0,0,3,.2A3.58,3.58,0,0,1,7.63,54.91Z" fill="#d19259"/><path d="M3.53,54.55l-.06-.73s-.06-.4,0-.43a3.07,3.07,0,0,1,.42-.28,2.87,2.87,0,0,1,1.47-.34q.39,0,.78.06c.29,0,.54.19.82.25s.45,0,.58.13c.67.29,3.18,1.21,3.42,1.3,1.29.52,2.57,1,3.89,1.45a46.46,46.46,0,0,0,10.49,1.53c1.43.1,2.89.24,4.32.28,1.59,0,3.18,0,4.76,0,.8,0,1.59-.08,2.38-.13a6.33,6.33,0,0,0,1.86-.17.17.17,0,0,1,.06.16c0,.53-1.38.55-1.75.61-1.17.19-2.35.35-3.53.48a59.62,59.62,0,0,1-7.78.47,60.54,60.54,0,0,1-7.23-.68,52.77,52.77,0,0,1-5.71-1.24c-.95-.26-1.89-.54-2.83-.85a6.45,6.45,0,0,1-1.81-.61s0,0,0,0c-.08-.17-.71-.16-.87-.19l-1.1-.17-1.35-.22c-.23,0-1-.06-1.13-.36A.57.57,0,0,1,3.53,54.55Z" fill="#deb988"/><path d="M3.47,53.82s-.06-.4,0-.43a3.07,3.07,0,0,1,.42-.28,2.87,2.87,0,0,1,1.47-.34q.39,0,.78.06c.29,0,.54.19.82.25s.45,0,.58.13c.67.29,3.18,1.21,3.42,1.3,1.29.52,2.57,1,3.89,1.45a29.7,29.7,0,0,0,4.94,1c1.66.22,3.33.29,5,.46s3.49.27,5.24.32,3.5,0,5.25-.06c1.14-.05,2.27-.13,3.41-.24a3.41,3.41,0,0,1-1.41.27L32.87,58a3.39,3.39,0,0,0-.64.07c-.26.07-.51.19-.78.25a4.1,4.1,0,0,1-1.72-.23A12.68,12.68,0,0,0,28,57.85l-5.51-.41-2.07-.15a3,3,0,0,1-.85-.12,10.6,10.6,0,0,1-1-.22,1.76,1.76,0,0,0-1.09,0,3.9,3.9,0,0,1-1,.12c-.14,0-.27,0-.35-.16a.6.6,0,0,0-.3-.31,1.48,1.48,0,0,0-.46-.08,1.12,1.12,0,0,1-.45-.13c-.16-.1-.28-.26-.43-.37a1.55,1.55,0,0,0-.6-.22,12.15,12.15,0,0,1-2.35-.83,2.4,2.4,0,0,0-.23-.11,1.62,1.62,0,0,0-.38,0l-.88,0H9.88c-.09,0-.09.16-.07.25s.08.19.11.28a.39.39,0,0,1,0,.3.32.32,0,0,1-.34.14.64.64,0,0,1-.47-.44c0-.18-.06-.37-.11-.56a.51.51,0,0,0-.35-.39c-.17,0-.46-.11-.61,0-.31.25-.11.91.07,1.18,0,.08.12.29-.06.24s-.11-.08-.18-.1l-.26,0s-.38,0-.39,0a1,1,0,0,1-.09-.42l0,0a1.16,1.16,0,0,0,.24-.28,1.05,1.05,0,0,0,.25-1A1.69,1.69,0,0,0,6,53c-1.09-.17-2.44.23-2.43.94h-.1A.53.53,0,0,1,3.47,53.82Z" fill="#c99d69"/><path d="M9.28,56h0" fill="none" stroke="#c99d69" stroke-linecap="round" stroke-linejoin="round" stroke-width="0"/><path d="M19.44,58.63l-.66-.1h.1Z" fill="#ad6c36"/><path d="M19,40.16c.16.33,0,.82-.36.86s-.52-.17-.74-.05-.23.61-.51.7a.83.83,0,0,1-.44-.06c-.44-.1-.83.24-1.17.52a8.84,8.84,0,0,1-1.51,1c-.24.13-.49.19-.72.31s-.33.44-.64.5a1.24,1.24,0,0,0-.69.33,12.44,12.44,0,0,1-1.45,1.27A3.32,3.32,0,0,0,10,46c-.41.4-.45,1.07-1,1.38a3,3,0,0,0-.91.89,1.76,1.76,0,0,0-.23.84c0,.28,0,.69-.21.88s-.45.12-.53.46-.15.53-.55.64a.49.49,0,0,1-.47,0,.38.38,0,0,1-.09-.27c0-.37.19-.6.27-.93a2,2,0,0,0,0-.43,1.6,1.6,0,0,1,.15-.58A8.24,8.24,0,0,1,8,46.44c.32-.35.71-.62,1.05-.95s.66-.81,1-1.2a3.6,3.6,0,0,1,1-.9,5.19,5.19,0,0,0,1-.53c.31-.28.44-.73.78-1s1.08-.2,1.55-.47a4.09,4.09,0,0,0,.72-.66A4.19,4.19,0,0,1,16.54,40l.78-.29a3,3,0,0,1,.74-.26C18.4,39.45,18.81,39.88,19,40.16Z" fill="#d6a167"/><path d="M3.58,54.79a1.33,1.33,0,0,1-.05-.63c0-.2,0-.4,0-.6a3.28,3.28,0,0,1,.31-1.19l.36-.83c.24-.57.49-1.14.75-1.7a21,21,0,0,1,8.64-9.07,26.92,26.92,0,0,1,2.81-1.36c.84-.34,1.75-.68,2.53,0a2.61,2.61,0,0,1,.77,1.45c.24,1.11-.5,1.07-1.35,1.39a21.67,21.67,0,0,0-2.65,1.19,17.85,17.85,0,0,0-4.35,3.17,14.73,14.73,0,0,0-2.79,3.89,12.74,12.74,0,0,0-.83,2.15c0,.18-.11.36-.16.55.67.29,3.18,1.21,3.42,1.3,1.29.52,2.57,1,3.89,1.45l.62.18.26.07.37.1.31.07.31.08.34.07.29.06.34.07.3.05.33.06.31,0,.32,0,.33.05.3,0,.31,0c1.63.21,3.26.29,4.89.45h.08l.48,0,2.4.18c.76,0,1.52.08,2.28.1s1.7,0,2.55,0h.77l1.08,0c.8,0,1.59-.08,2.38-.13l.42,0,1.31-.1.13-.05a.17.17,0,0,1,.06.16c0,.53-1.38.55-1.75.61-1.17.19-2.35.35-3.53.48a59.62,59.62,0,0,1-7.78.47,60.54,60.54,0,0,1-7.23-.68,52.77,52.77,0,0,1-5.71-1.24c-.95-.26-1.89-.54-2.83-.85a7.45,7.45,0,0,1-1.77-.58h0v0H8a1.62,1.62,0,0,1-.18-.1l-.26,0s-.38,0-.39,0l-.67-.1a8,8,0,0,1-1-.16l-.8-.13-.57-.08H4l-.06,0h0l0,0h0l0,0h0l0,0,0,0,0,0h0a.09.09,0,0,1,0-.06l0-.06S3.58,54.81,3.58,54.79Z" fill="none" stroke="#ad6c36" stroke-miterlimit="10" stroke-width="0.12"/><path d="M38.64,57.44a6.33,6.33,0,0,1-1.86.17c-.79,0-1.58.1-2.38.13l-1.54,0a2,2,0,0,0-1.26.31,1.35,1.35,0,0,1-1.13,0,20.63,20.63,0,0,0-5.15-.62c-1.45-.11-2.91-.21-4.36-.36q-1.07-.1-2.13-.27c-.4-.06-.8-.16-1.19-.2s-.55.19-.89.21a.88.88,0,0,1-.62-.22,1.81,1.81,0,0,0-.32-.3,1.26,1.26,0,0,0-.47-.12.78.78,0,0,1-.46-.23,2.55,2.55,0,0,0-.62-.23l-1.35-.48-1-.38a3.09,3.09,0,0,0-.82-.29c-.1,0-.2,0-.31,0A1.43,1.43,0,0,1,10,54.5c-.48-.25-.43.28-.24.57.07.12.18.27.12.4a.23.23,0,0,1-.34.05.53.53,0,0,1-.19-.33,1.88,1.88,0,0,1,0-.67.81.81,0,0,0,0-.31A.23.23,0,0,0,9,54.05c-.13,0-.15.22-.27.29s-.31,0-.38-.15a3.12,3.12,0,0,1-.15-.43c-.12-.31-.51-.31-.52-.7A1,1,0,0,1,8,52.37a2.85,2.85,0,0,0,.51-.59c.24-.45,0-.9.15-1.34a.78.78,0,0,1,.14-.27,5,5,0,0,1,.54-.74,5.12,5.12,0,0,1,.53-.25c.63-.4.88-1.2,1.38-1.75a12.8,12.8,0,0,1,2.26-1.49,12.54,12.54,0,0,0,1.6-1.4,4.3,4.3,0,0,1,1.45-1.09,4.36,4.36,0,0,0,1.29-.56,2.2,2.2,0,0,1,2.05-.53,2.58,2.58,0,0,1,.74.62L21.77,44c.8.77,1.61,1.52,2.43,2.26.36.32.76.6,1.15.9a10.61,10.61,0,0,1,1.07,1.05,32.3,32.3,0,0,0,2.84,2.36c2.14,1.72,4.38,3.42,6.68,5,.59.4,1.19.8,1.8,1.19.19.12.82.4.94.71A.1.1,0,0,0,38.64,57.44Z" fill="#f8ce5b"/><path d="M27.53,57.34c.64.06,1.29.16,1.93.2.47,0,.82.44,1.29.44a2.69,2.69,0,0,0,.78-.23,1.21,1.21,0,0,1,.38-.06,2.06,2.06,0,0,1,.25.07,5.15,5.15,0,0,0-.56.33,1.35,1.35,0,0,1-1.13,0,20.63,20.63,0,0,0-5.15-.62l-.56,0A18.29,18.29,0,0,1,27.53,57.34Z" fill="#f7bc45"/><path d="M37,57.29a4.44,4.44,0,0,1,.6-.16c.24-.06.14-.26,0-.39l-.25-.21a2.55,2.55,0,0,0,.39.24,1.85,1.85,0,0,0,.37.25,1,1,0,0,1,.61.47.1.1,0,0,0,0-.05,6.33,6.33,0,0,1-1.86.17l-1.56.09A13.59,13.59,0,0,0,37,57.29Z" fill="#f7bc45"/><path d="M7.71,53.07l.08,0c0,.23.27.39.44.49a.43.43,0,0,1,.24.27c0,.07,0,.15,0,.22a.22.22,0,0,0,.24.09A.61.61,0,0,0,9,54c-.08.1-.13.25-.24.31s-.31,0-.38-.15a3.12,3.12,0,0,1-.15-.43C8.1,53.45,7.73,53.45,7.71,53.07Z" fill="#f7bc45"/><path d="M9.26,54.52v0l0,.25a.28.28,0,0,0,0,.13.11.11,0,0,0,.11.07.14.14,0,0,0,.08-.13c0-.06,0-.11,0-.17a.2.2,0,0,1,.15-.16c-.09,0-.07.2-.06.25a1,1,0,0,0,.13.34c.07.12.18.27.12.4a.23.23,0,0,1-.34.05.53.53,0,0,1-.19-.33A2.52,2.52,0,0,1,9.26,54.52Z" fill="#f7bc45"/><path d="M14,55.65c.34.08.68.18,1,.27s.57,0,.82.22a2.56,2.56,0,0,0,.37.3.9.9,0,0,0,.46.05l.3,0a1.31,1.31,0,0,1,.27.06l.62.16-.18,0c-.36,0-.55.19-.89.21a.88.88,0,0,1-.62-.22,1.81,1.81,0,0,0-.32-.3,1.26,1.26,0,0,0-.47-.12.78.78,0,0,1-.46-.23,2.55,2.55,0,0,0-.62-.23l-.47-.16Z" fill="#f7bc45"/><path d="M20.23,51.12a.81.81,0,0,0,.25.4,1.62,1.62,0,0,0,.92.23,7.81,7.81,0,0,1,1,0c.74.11,1.36.66,2.1.75.93.12,1.91-.48,2.76-.1a.72.72,0,0,1,.5.73.93.93,0,0,1-.53.57,3.83,3.83,0,0,0-.82.5c-.21.2-.61,1-.21,1.23.16.07.34.06.47.16a.41.41,0,0,1,.07.53,1,1,0,0,1-.45.37,1.93,1.93,0,0,1-1.89,0c-.49-.33-.73-.93-1.18-1.3a3.11,3.11,0,0,0-2.12-.5,5.83,5.83,0,0,1-1.56,0,7.56,7.56,0,0,0-.91-.32,1.72,1.72,0,0,0-1.12.37,3.69,3.69,0,0,1-1.55.51A2.14,2.14,0,0,1,14,54.4a.66.66,0,0,1-.08-.78c.17-.2.47-.18.73-.17a4.29,4.29,0,0,0,3.13-1.19,1.45,1.45,0,0,0,.46-.73c.09-.47-.17-.93,0-1.39a1.5,1.5,0,0,1,.87-.82C20.25,49,20,50.35,20.23,51.12Z" fill="#f7bc45"/><path d="M23.47,47.7a6.2,6.2,0,0,1,.93-.28,1.09,1.09,0,0,1,.91.21.64.64,0,0,1,.09.87,1,1,0,0,1-.94.13A4.62,4.62,0,0,0,23,48.57a1.79,1.79,0,0,0-1.23.77c-.13.2-.22.45-.44.53s-.58-.13-.73-.39-.25-.58-.51-.74c-.48-.32-1.16.1-1.69-.13a1.38,1.38,0,0,1-.65-1,9.18,9.18,0,0,1-.2-1,1,1,0,0,1,.06-.56c.48-.79,1.23.33,1.53.67A4,4,0,0,0,23.47,47.7Z" fill="#f7bc45"/><path d="M18.76,43.43a.48.48,0,0,1-.22.46,2.69,2.69,0,0,1-.48.24,1.77,1.77,0,0,0-.87,1c-.13.37-.45.76-.38,1.16,0,.21.12.41.13.62a.52.52,0,0,1-.28.53c-.22.09-.44,0-.66-.14a1.6,1.6,0,0,0-1.1,0c-.26.1-.54.26-.8.17a.57.57,0,0,1-.29-.65,1,1,0,0,1,.47-.59c.22-.14.46-.23.69-.36.67-.37,1-1,1.56-1.5C16.79,44.14,18.55,42.53,18.76,43.43Z" fill="#f7bc45"/><path d="M12.18,49a2.21,2.21,0,0,0-.62.71,1.66,1.66,0,0,0,.36,1.69,5.56,5.56,0,0,0,1.82,1.12c.17.08.36.21.35.39s-.28.31-.49.3-.45-.07-.62,0a.51.51,0,0,0-.11.65,1.39,1.39,0,0,0,.53.49c-.21.33-.73.25-1.05,0s-.61-.54-1-.58-.78.2-1.18.19a1.22,1.22,0,0,1-1-.9,3.38,3.38,0,0,1,0-1.45,2.74,2.74,0,0,1,.38-1.32,8,8,0,0,1,1-.86c.43-.42.26-1,.63-1.45.69-.77,2.46-.92,1.49.5A2.76,2.76,0,0,1,12.18,49Z" fill="#f7bc45"/><path d="M30.62,52.07a5.72,5.72,0,0,0,.49.37.33.33,0,0,1,.14.19c0,.1-.11.18-.21.21a2.44,2.44,0,0,1-1,0,1.46,1.46,0,0,0-1,.11c-.13.08-.23.19-.36.27a.4.4,0,0,1-.43,0,.56.56,0,0,1-.12-.51.61.61,0,0,0-.13-.55c-.15-.15-.32-.23-.29-.48s.24-.44.22-.67a1.07,1.07,0,0,0-.27-.47c-.1-.14-.18-.35-.06-.49a.3.3,0,0,1,.4,0c.29.16.48.48.78.65a4.7,4.7,0,0,1,.65.37C29.81,51.35,30.2,51.73,30.62,52.07Z" fill="#f7bc45"/><path d="M36.31,56.55a.89.89,0,0,1-.69.76,8.52,8.52,0,0,1-2.31.23c-.23,0-.54,0-.61-.25a.48.48,0,0,1,.23-.49,1.51,1.51,0,0,0,.44-.35.83.83,0,0,0,.09-.58,2.37,2.37,0,0,1-.06-.59c0-.28.19-.56.5-.54a2.76,2.76,0,0,1,1.2.59C35.47,55.58,36.3,56.05,36.31,56.55Z" fill="#f7bc45"/><path d="M38.64,57.44a6.33,6.33,0,0,1-1.86.17c-.79,0-1.58.1-2.38.13l-1.54,0a2,2,0,0,0-1.26.31,1.35,1.35,0,0,1-1.13,0,20.63,20.63,0,0,0-5.15-.62c-1.45-.11-2.91-.21-4.36-.36q-1.07-.1-2.13-.27c-.4-.06-.8-.16-1.19-.2s-.55.19-.89.21a.88.88,0,0,1-.62-.22,1.81,1.81,0,0,0-.32-.3,1.26,1.26,0,0,0-.47-.12.78.78,0,0,1-.46-.23,2.55,2.55,0,0,0-.62-.23l-1.35-.48-1-.38a3.09,3.09,0,0,0-.82-.29c-.1,0-.2,0-.31,0A1.43,1.43,0,0,1,10,54.5c-.48-.25-.43.28-.24.57.07.12.18.27.12.4a.23.23,0,0,1-.34.05.53.53,0,0,1-.19-.33,1.88,1.88,0,0,1,0-.67.81.81,0,0,0,0-.31A.23.23,0,0,0,9,54.05c-.13,0-.15.22-.27.29s-.31,0-.38-.15a3.12,3.12,0,0,1-.15-.43c-.12-.31-.51-.31-.52-.7A1,1,0,0,1,8,52.37a2.85,2.85,0,0,0,.51-.59c.24-.45,0-.9.15-1.34a.78.78,0,0,1,.14-.27,5,5,0,0,1,.54-.74,5.12,5.12,0,0,1,.53-.25c.63-.4.88-1.2,1.38-1.75a12.8,12.8,0,0,1,2.26-1.49,12.54,12.54,0,0,0,1.6-1.4,4.3,4.3,0,0,1,1.45-1.09,4.36,4.36,0,0,0,1.29-.56,2.2,2.2,0,0,1,2.05-.53,2.58,2.58,0,0,1,.74.62L21.77,44c.8.77,1.61,1.52,2.43,2.26.36.32.76.6,1.15.9a10.61,10.61,0,0,1,1.07,1.05,32.3,32.3,0,0,0,2.84,2.36c2.14,1.72,4.38,3.42,6.68,5,.59.4,1.19.8,1.8,1.19.19.12.82.4.94.71A.1.1,0,0,0,38.64,57.44Z" fill="none" stroke="#f5aa27" stroke-miterlimit="10" stroke-width="0.12"/><ellipse cx="15.06" cy="50.15" rx="2.99" ry="2.18" transform="translate(-2.91 0.97) rotate(-3.35)" fill="#cc553b"/><path d="M12.15,50.32c.5,2.7,5.72,2.45,5.86-.34-.37-2.88-5.86-2.55-5.86.34Zm-.14,0c.16-2.95,5.6-3.26,6.08-.36,0,3.06-5.74,3.44-6.08.36Z" fill="#af2f1a"/><path d="M17.52,49.27a.07.07,0,0,1-.05.1.06.06,0,0,1-.07,0,2.9,2.9,0,0,1-.19-.29,1.26,1.26,0,0,0-.31-.25c-.21-.11-.46-.12-.67-.23s0-.11.08-.11a.87.87,0,0,1,.32.06,1.61,1.61,0,0,1,.57.32A1.15,1.15,0,0,1,17.52,49.27Z" fill="#efa9a3"/><path d="M15.13,48.47a.18.18,0,0,1,.16,0l.16,0c.07,0,.21,0,.27.05s0,0,0,.07a.71.71,0,0,1-.28-.06S15.14,48.46,15.13,48.47Z" fill="#efa9a3"/><path d="M12.62,50.72l0,.05a0,0,0,0,1,0,.06s0,0-.05,0a.56.56,0,0,1-.17-.4c.05,0,.06.08.08.13A.5.5,0,0,0,12.62,50.72Z" fill="#efa9a3"/><path d="M18.91,44.12a1.78,1.78,0,0,1,.87-.86c.33-.16.9-.39,1.21-.11q.92.83,1.8,1.68c.39.37.79.72,1.15,1.11.14.15.46.41.45.61s-.26.4-.38.51a2.18,2.18,0,0,1-.89.5,3.56,3.56,0,0,1-2.36-.23C19.25,46.66,18.42,45.22,18.91,44.12Z" fill="#cc553b"/><path d="M18.89,44.12a1.86,1.86,0,0,1,2-1c.85.72,1.71,1.53,2.52,2.29l.71.67a1.24,1.24,0,0,1,.31.42c.05.24-.12.38-.21.51-1.82,2.11-6.34-.08-5.36-2.84Zm0,0c-.79,2.51,3.51,4.53,5.2,2.7.3-.27.15-.45-.09-.69l-.69-.68c-.78-.77-1.63-1.61-2.45-2.34a1.81,1.81,0,0,0-2,1Z" fill="#af2f1a"/><path d="M22.5,45a.21.21,0,0,1-.23,0,.53.53,0,0,1-.2-.16l-.66-.67c-.06-.07-.28-.26-.14-.34s.31.18.38.25S22.52,45,22.5,45Z" fill="#efa9a3"/><path d="M23.52,46.09a.58.58,0,0,1,.17.14.2.2,0,0,1,0,.21.12.12,0,0,1-.18.06c-.07,0-.05-.15-.09-.23s-.05-.08-.05-.12.06-.1.09-.07" fill="#efa9a3"/><path d="M20.9,46a.11.11,0,0,1,.14.09.12.12,0,0,1-.13.12A.14.14,0,0,1,20.8,46a.15.15,0,0,1,.12-.13l0,0" fill="#efa9a3"/><path d="M20.51,43.36a.48.48,0,0,0-.39,0l-.12.05a.08.08,0,0,1-.1-.05A.11.11,0,0,1,20,43.3a1,1,0,0,1,.58-.15C20.75,43.18,20.73,43.41,20.51,43.36Z" fill="#efa9a3"/><path d="M21.5,50.72c-.16,1.05,1,2.09,2.61,2.33a4.08,4.08,0,0,0,2.31-.33,1.37,1.37,0,0,0,.51-2.21l-.07-.08a3.08,3.08,0,0,0-1.69-.83,4.49,4.49,0,0,0-2.37-.23A1.88,1.88,0,0,0,21.5,50.72Z" fill="#cc553b"/><path d="M21.55,50.73c-.1,2.36,5,3.16,5.66.92.17-1.42-1.46-2-2.59-2.16-1.15-.42-2.8-.11-3.07,1.24Zm-.1,0c.31-1.42,2-1.71,3.18-1.27,1.16.23,2.85.71,2.71,2.23-.64,2.58-6.12,1.76-5.89-1Z" fill="#af2f1a"/><path d="M25.25,50.15h-.08a4.09,4.09,0,0,1-1-.16c-.1,0-.23-.2-.06-.21s.13.07.16.09l.28.07A1.58,1.58,0,0,0,25,50c.08,0,.26,0,.33,0a.08.08,0,0,1,0,.11S25.28,50.14,25.25,50.15Z" fill="#efa9a3"/><path d="M22.35,50.09a2.27,2.27,0,0,0-.19.34.24.24,0,0,1-.06.08.07.07,0,0,1-.09,0,.13.13,0,0,1,0-.09.75.75,0,0,1,.39-.58.48.48,0,0,1,.42,0c-.05,0-.12,0-.18.05A.56.56,0,0,0,22.35,50.09Z" fill="#efa9a3"/><path d="M22,57.2l-.74,0c-.67-.07-1.34-.14-2-.23-.19,0-1.83-.31-1.84-.27a2.92,2.92,0,0,1,2.9-1.39,3.93,3.93,0,0,1,2,.62,2.27,2.27,0,0,1,.89,1.44A4.72,4.72,0,0,0,22,57.2Z" fill="#cc553b"/><path d="M22,57.27c-1.53-.16-3.09-.4-4.61-.61a2.21,2.21,0,0,1,1.35-1.17c1.63-.62,4.23-.17,4.52,1.86-.34-.06-.91-.05-1.26-.08Zm0-.15a3.2,3.2,0,0,1,1.24.2s-.06,0-.06,0c-.52-2.42-4.67-2.75-5.77-.66a35.34,35.34,0,0,0,4.59.45Z" fill="#af2f1a"/><path d="M22.54,56.45a.15.15,0,0,1,0,.11.11.11,0,0,1-.18,0,.67.67,0,0,1-.11-.18.83.83,0,0,0-.39-.35,3,3,0,0,0-.51-.15.11.11,0,0,1-.09-.07s0-.06,0-.08h.09A1.49,1.49,0,0,1,22.54,56.45Z" fill="#efa9a3"/><path d="M27.64,55a1.86,1.86,0,0,0-.08.62c0,.89.68,1.29,1.46,1.46a5.06,5.06,0,0,0,2.32.06c1.18-.29,2.74-1.85,1.56-3A3,3,0,0,0,31,53.33a3.25,3.25,0,0,0-2.8.62A2.23,2.23,0,0,0,27.64,55Z" fill="#cc553b"/><path d="M27.65,55c-.4,1.64,1,2.06,2.38,2.11a3.11,3.11,0,0,0,3.12-1.62c.56-1.42-1.26-2.16-2.4-2.19a2.6,2.6,0,0,0-3.1,1.7Zm0,0a2.66,2.66,0,0,1,3.13-1.7c1.19,0,3,.76,2.56,2.26A3,3,0,0,1,30,57.34c-1.38-.11-2.9-.66-2.39-2.35Z" fill="#af2f1a"/><path d="M32.55,54.13a.11.11,0,0,1-.11,0,2.4,2.4,0,0,0-.82-.33,1.13,1.13,0,0,0-.26,0c-.07,0-.21,0-.16-.13s.14,0,.21,0a2.39,2.39,0,0,1,.64.11c.09,0,.17.08.26.12a.41.41,0,0,1,.23.16s0,.06,0,.09S32.56,54.13,32.55,54.13Z" fill="#efa9a3"/><path d="M30.8,53.62s.05,0,.05,0a0,0,0,0,1,0,.06.08.08,0,0,1-.07,0h-.22a.13.13,0,0,1-.09,0,.07.07,0,0,1,0-.07.07.07,0,0,1,.06,0h0A.53.53,0,0,1,30.8,53.62Z" fill="#efa9a3"/><path d="M28.38,56.42l.24.08c.05,0,.29,0,.25.13l0,0a1,1,0,0,1-.61-.17.67.67,0,0,1-.4-.37s0-.06,0-.08a.06.06,0,0,1,.09,0s.05.08.08.11a.4.4,0,0,0,.13.13Z" fill="#efa9a3"/><path d="M30.08,54.54a.1.1,0,0,1,.09.1.11.11,0,0,1-.09.1.1.1,0,0,1,0-.19" fill="#efa9a3"/><path d="M17.83,39a1.54,1.54,0,0,1,1.05.4,2.28,2.28,0,0,1,.42.51,3.78,3.78,0,0,1,.17.35,3.09,3.09,0,0,1,.18.59c.12.54,0,.81-.25,1l.22.12a3.28,3.28,0,0,1,.37.33l.31.31a2.23,2.23,0,0,1,.27.26l.17.16a.58.58,0,0,1,.25.12q.92.83,1.8,1.68c.39.37.79.72,1.15,1.11a2.41,2.41,0,0,1,.41.48c.32.27.67.51,1,.77a11.55,11.55,0,0,1,1.06,1q1.41,1.22,2.85,2.37h0l1.36,1.08c1.61,1.26,3.27,2.49,4.95,3.65l.37.26.16.1c.54.37,1.09.74,1.64,1.09l0,0h0a6.65,6.65,0,0,1,.61.37.67.67,0,0,1,.25.25h0s0,0,0,.05a.2.2,0,0,1,0,.11c0,.17-.15.28-.35.37l-.12,0a4.17,4.17,0,0,1-.72.14h-.14l-.42.05c-1,.16-2,.3-3,.42l-.54.06c-1.09.13-2.19.24-3.28.32-1.28.09-2.56.15-3.84.15h-.66a60.54,60.54,0,0,1-7.23-.68h0a51.07,51.07,0,0,1-5.69-1.23l-1.83-.53c-.4-.11-.81-.23-1.21-.38a5.62,5.62,0,0,1-1.56-.52h0v0H8a1.62,1.62,0,0,1-.18-.1h0l-.26,0H7.21l-.12,0-.55-.08h0l-.24,0h0l-.18,0H6l-.18,0h0l-.22,0h0l-.8-.13H4.7c-.12,0-.32,0-.51-.07h0l-.1,0H4l-.06,0h0A.59.59,0,0,1,3.76,55h0l0,0,0,0,0,0h0a.09.09,0,0,1,0-.06.31.31,0,0,1,0-.1h0a.14.14,0,0,1,0-.06,1.27,1.27,0,0,1,0-.34c0-.19,0-.38,0-.57s-.06-.4,0-.43l0,0,0-.14a3.61,3.61,0,0,1,.28-.86l.09-.22.27-.61c.24-.57.49-1.14.75-1.7a21,21,0,0,1,8.64-9.07c.65-.37,1.32-.7,2-1l.81-.35c.21-.08.42-.17.64-.24l.32-.09a2.37,2.37,0,0,1,.52-.06m0-1h0a3.25,3.25,0,0,0-.74.09l-.41.11c-.24.08-.48.17-.71.27l-.84.36c-.72.32-1.42.68-2.08,1a22.14,22.14,0,0,0-9,9.5c-.25.54-.49,1.08-.71,1.6l-.06.14c-.09.21-.17.41-.26.61l-.05.11,0,.11a4.52,4.52,0,0,0-.32,1,1.67,1.67,0,0,0-.08.93l0,.52v0a2,2,0,0,0,.07.56,1.3,1.3,0,0,0,.05.14,1.75,1.75,0,0,0,.11.24l.08.13,0,.06,0,.06.11.1,0,0,.05,0,.12.08h0l0,0h0l.29.13h.05l.11,0,.09,0h.05l.09,0h.15l.36,0h.11l.65.11.16,0,.2,0h.07l.18,0h.07l.2,0h.07l.23,0,.47.07h0l.19,0a2.68,2.68,0,0,0,.44,0h0a.63.63,0,0,0,.22.09,5.6,5.6,0,0,0,1.41.48l.21,0c.43.15.86.28,1.23.38.59.18,1.22.36,1.84.53a51.09,51.09,0,0,0,5.8,1.26,61.23,61.23,0,0,0,7.37.7h.69c1.21,0,2.49,0,3.91-.15,1.05-.08,2.13-.19,3.32-.32l.44-.06h.11c1-.12,2.05-.27,3-.43l.21,0h.15l.15,0a4.42,4.42,0,0,0,.91-.18l.2-.07a1.43,1.43,0,0,0,1-1.21,1.34,1.34,0,0,0-.1-.59L39.54,57l0-.06,0,0a1.72,1.72,0,0,0-.52-.52A6.27,6.27,0,0,0,38.4,56l-.11,0c-.56-.36-1.1-.72-1.63-1.08l-.08,0-.08-.06-.22-.15-.14-.1c-1.57-1.08-3.22-2.3-4.9-3.61l-1.36-1.08C29,49.07,28,48.29,27.09,47.5l-.24-.26A7.23,7.23,0,0,0,26,46.4l-.36-.28c-.16-.12-.33-.24-.48-.37a3.25,3.25,0,0,0-.38-.42l-.06-.07c-.3-.31-.61-.6-.9-.88l-.3-.28c-.54-.51-1.17-1.11-1.82-1.69a1.56,1.56,0,0,0-.38-.25h0a3.7,3.7,0,0,0-.28-.28l-.12-.12-.17-.17,0,0a2.5,2.5,0,0,0,0-.89,4.6,4.6,0,0,0-.23-.77,4.3,4.3,0,0,0-.24-.48,3.5,3.5,0,0,0-.61-.75A2.56,2.56,0,0,0,17.83,38Z" fill="#ad6c36"/><path d="M6.63,46.47A2.46,2.46,0,0,0,8,47.12c3,.4,10.3-4.31,5.23-6.61C10.17,39.1,3.41,43.14,6.63,46.47Z" fill="#92dbe0" stroke="#368c8e" stroke-linecap="round" stroke-linejoin="round"/></g></svg>