<svg xmlns="http://www.w3.org/2000/svg" width="100" height="100" viewBox="0 0 100 100"><g id="eyes"><path d="M23.29,53.28a9.17,9.17,0,0,1-4.87-.85c-1.54-.65-3-1.51-4.52-2.15a6.18,6.18,0,0,0-2.26-.57,2.75,2.75,0,0,0-2.11.87c-.85,1-.53,2.6.2,3.71,1.76,2.65,5.55,5.07,8.2,6.79a19.39,19.39,0,0,0,7.65,3.08" fill="#92dbe0" stroke="#368c8e" stroke-linecap="round" stroke-linejoin="round"/><path d="M9.87,84.08a.36.36,0,0,1-.34-.37L9.64,74a.36.36,0,0,1,.12-.28.39.39,0,0,1,.25-.1l1.56.11a.42.42,0,0,1,.27.14.4.4,0,0,1,.07.3l-1.64,9.58a.38.38,0,0,1-.37.31Z" fill="#a3d0e3"/><path d="M10,74l1.53.1L9.9,83.71,10,74m0-.75a.74.74,0,0,0-.51.2.73.73,0,0,0-.24.54L9.15,83.7a.76.76,0,0,0,.68.76H9.9a.75.75,0,0,0,.74-.62l1.64-9.59a.74.74,0,0,0-.15-.59.72.72,0,0,0-.54-.28l-1.53-.11Z" fill="#498da5"/><path d="M9.61,74.37l1-13.52a1,1,0,0,1,1.1-.84,1.37,1.37,0,0,1,.85.29.84.84,0,0,1,.33.71l-1,13.51Z" fill="#aaa"/><path d="M11.75,60.39h.08c.42,0,.75.3.73.6l-1,13.13L10,74l1-13.14c0-.28.34-.49.72-.49m0-.75h0a1.38,1.38,0,0,0-1.47,1.19L9.26,74l0,.76.75,0,1.53.1.74,0,.06-.74L13.3,61a1.19,1.19,0,0,0-.47-1,1.57,1.57,0,0,0-.95-.37Z" fill="#7a7a7a"/><path d="M10.64,52.55l1.12-16.5a1.06,1.06,0,0,1,1-1,1.07,1.07,0,0,1,1,1.12l-1.12,16.5Z" fill="#aaa"/><path d="M12.8,35.57h0a.55.55,0,0,1,.51.58l-1.09,16-1.09-.08,1.09-16a.55.55,0,0,1,.54-.52m0-1h0A1.56,1.56,0,0,0,11.26,36L10.17,52l-.07,1,1,.07,1.1.07,1,.07.07-1,1.09-16A1.53,1.53,0,0,0,14,35.11a1.51,1.51,0,0,0-1.06-.53H12.8Z" fill="#7a7a7a"/><path d="M12,37.18a1.45,1.45,0,0,1-1.35-1.55l0-.49a1.46,1.46,0,0,1,1.45-1.35l1.78.12a1.45,1.45,0,0,1,1.35,1.55l0,.48a1.45,1.45,0,0,1-1.45,1.35Z" fill="#bfc5c6"/><path d="M12.09,34.29h.06l1.69.11a1,1,0,0,1,.88,1l0,.49a.94.94,0,0,1-.95.88h-.06L12,36.68a1,1,0,0,1-.88-1l0-.48a1,1,0,0,1,.95-.89m0-1a2,2,0,0,0-1.95,1.82l0,.49A1.88,1.88,0,0,0,10.59,37a2,2,0,0,0,1.33.67l1.69.11h.13A2,2,0,0,0,15.69,36l0-.49a1.88,1.88,0,0,0-.48-1.41,1.91,1.91,0,0,0-1.33-.67l-1.69-.11Z" fill="#656868"/><rect x="10.51" y="57.89" width="2.7" height="3.98" rx="1.06" transform="translate(19.63 120.41) rotate(-176.11)" fill="#595959"/><path d="M12.85,60.21l-2-.13a1.8,1.8,0,0,1-1.67-1.93l.93-13.68v-.32a5.51,5.51,0,0,1,.06-.71c0-.21.12-.85.69-.85a1,1,0,0,1,.42.12.82.82,0,0,0,.31.11l.58,0a.57.57,0,0,0,.59-.53l.08-1.08c0-.22,0-.43,0-.64a5.28,5.28,0,0,1,0-1.11l0-.11.09-.16a.69.69,0,0,1,.58-.26,3.61,3.61,0,0,1,1.06.25,6,6,0,0,1,2.09,1.08c.61.54,1.62,1.6,1.57,2.67a1.07,1.07,0,0,1-.5.87,1,1,0,0,1-.48.12,1.18,1.18,0,0,1-.57-.15,5.15,5.15,0,0,1-.58-.41l-.31-.23-.1-.06L14.77,58.53A1.8,1.8,0,0,1,13,60.21Z" fill="#476eb2"/><path d="M13.64,39.47a3.81,3.81,0,0,1,1,.26,5.44,5.44,0,0,1,1.84.94c.56.51,1.44,1.45,1.4,2.28a.54.54,0,0,1-.25.45.46.46,0,0,1-.23.06.62.62,0,0,1-.32-.09c-.29-.16-.58-.42-.86-.61l-.82-.55L14.27,58.5A1.3,1.3,0,0,1,13,59.71h-.09l-2-.13a1.32,1.32,0,0,1-1.22-1.39l.27-4q.24-3.42.47-6.86c.07-1,.13-1.91.2-2.86,0-.33,0-.67.06-1s.11-.42.2-.42.34.2.7.23l.57,0h.07a1.05,1.05,0,0,0,1.06-1l.08-1.09a13.57,13.57,0,0,1,.06-1.69s0-.05,0-.06.09-.06.17-.06m0-1a1.19,1.19,0,0,0-1,.46,1.13,1.13,0,0,0-.2.48,5.69,5.69,0,0,0-.06,1.21c0,.2,0,.39,0,.59l0,.53,0,.56a.09.09,0,0,1-.07.06l-.58,0-.12-.06a1.55,1.55,0,0,0-.64-.17c-.38,0-1,.17-1.19,1.27a7,7,0,0,0-.06.77c0,.1,0,.2,0,.3l-.1,1.48-.1,1.38-.23,3.43L9,54.16l-.14,2-.13,2a2.29,2.29,0,0,0,2.14,2.45l2,.14H13a2.31,2.31,0,0,0,2.3-2.15l1-14.52a3.28,3.28,0,0,0,.31.2,1.67,1.67,0,0,0,.81.22,1.46,1.46,0,0,0,.72-.19A1.53,1.53,0,0,0,18.86,43a4.34,4.34,0,0,0-1.74-3.06,6,6,0,0,0-2.19-1.15l-.07,0a3.73,3.73,0,0,0-1.22-.28Z" fill="#163f70"/><line x1="11.47" y1="44.68" x2="10.92" y2="55.67" fill="none" stroke="#6a93ce" stroke-linecap="round" stroke-miterlimit="10" stroke-width="0.6"/><path d="M5.9,52.42a4,4,0,0,0-.08,1.51,3.32,3.32,0,0,0,.95,2.19,2.51,2.51,0,0,0,2.59.27,5.24,5.24,0,0,0,2-1.76c1.43-1.89,3.08-6.38-1-6.05A5.23,5.23,0,0,0,5.9,52.42Z" fill="#92dbe0" stroke="#368c8e" stroke-miterlimit="10"/></g></svg>