<svg xmlns="http://www.w3.org/2000/svg" width="100" height="100" viewBox="0 0 100 100"><g id="Layer_1" data-name="Layer 1"><path d="M71.41,55.68a10.09,10.09,0,0,1-5.73,3.12c-3.35.56-6.61-.33-9.71-1.55a22.75,22.75,0,0,0-5.9-1.75,22.44,22.44,0,0,0-6.64.43,25.5,25.5,0,0,0-6,2.12A13,13,0,0,1,32,59.57c-3.85.07-6.71-2.85-8.52-6q-.3-.51-.57-1.05c1.52,11.2,7,22,15.09,26.33,22.35,12,36.82-9.82,37.07-30.65A17.1,17.1,0,0,1,71.41,55.68ZM59.48,62.22l.11,0c1.92-.29,1.32,1.27.46,2.29a16.26,16.26,0,0,1-4.54,3.38c-3.72,2-8.61,1.75-12.5.4a12.76,12.76,0,0,1-4.07-2.16,13.4,13.4,0,0,1-2.18-2.75c-.76-1.19-.45-1.15.89-1.08a18.35,18.35,0,0,0,7.46-1.09c1.19-.49,2.71-1.94,3.91-1.59.94.28,2.17,1.59,3.24,2A12.81,12.81,0,0,0,59.48,62.22Z" fill="#368c8e" opacity="0.3"/></g></svg>