<svg xmlns="http://www.w3.org/2000/svg" width="100" height="100" viewBox="0 0 100 100"><g id="eyes"><path d="M47,20.21c-.79-.25-.85-1.35-.64-2.15a27.63,27.63,0,0,0,.74-3.75,2,2,0,0,0-.73-2c-.66-.4-1.57-.14-2.21-.56s-.75-1.45-.72-2.28" fill="none" stroke="#368c8e" stroke-linecap="round" stroke-linejoin="round" stroke-width="1.5"/><path d="M39.82,20.91c-.56-1.12-.62-2.42-1.09-3.58S37,15.1,35.86,15.5c-.57.19-1,.7-1.65.7-1,0-1.44-1.24-1.5-2.24s-.18-2.23-1.11-2.58" fill="none" stroke="#368c8e" stroke-linecap="round" stroke-linejoin="round" stroke-width="1.5"/><path d="M33.67,25.58c-.6-1.12-1.34-2.36-2.57-2.64a5.68,5.68,0,0,0-2.87.49,2.86,2.86,0,0,1-2.79-.26c-1-.94-.5-2.77-1.43-3.77" fill="none" stroke="#368c8e" stroke-linecap="round" stroke-linejoin="round" stroke-width="1.5"/><path d="M30.07,32c-.27-1.23-1.79-1.8-3.05-1.61a22.79,22.79,0,0,0-3.57,1.29,3.32,3.32,0,0,1-3.53-.57c-.36-.42-.76-1.05-1.26-.84" fill="none" stroke="#368c8e" stroke-linecap="round" stroke-linejoin="round" stroke-width="1.5"/><path d="M25.61,38a3.05,3.05,0,0,0-3.52,0c-1.11.82-1.53,2.31-2.58,3.2a3.33,3.33,0,0,1-2.71.73,7.93,7.93,0,0,0-2.16-.45A1.89,1.89,0,0,0,13,43.25" fill="none" stroke="#368c8e" stroke-linecap="round" stroke-linejoin="round" stroke-width="1.5"/><path d="M24.29,47.32c-1.3-.31-2.58.49-3.67,1.26S18.26,50.17,17,49.9a14.57,14.57,0,0,1-1.81-.73,3.76,3.76,0,0,0-3.76.8" fill="none" stroke="#368c8e" stroke-linecap="round" stroke-linejoin="round" stroke-width="1.5"/><path d="M25.61,57.84a2.4,2.4,0,0,1-2.66.55c-1.17-.51-1.71-1.85-2.6-2.76a4.48,4.48,0,0,0-5.72-.43" fill="none" stroke="#368c8e" stroke-linecap="round" stroke-linejoin="round" stroke-width="1.5"/><path d="M29.07,64.12A2.44,2.44,0,0,0,26.26,64c-.88.46-1.6,1.2-2.48,1.69a5.07,5.07,0,0,1-4.22.31,6.46,6.46,0,0,0-1.34-.47,2.08,2.08,0,0,0-2.29,2" fill="none" stroke="#368c8e" stroke-linecap="round" stroke-linejoin="round" stroke-width="1.5"/><path d="M30.77,69.78a3.84,3.84,0,0,1-2.7,1.31c-.84,0-1.67-.2-2.51-.21a2.29,2.29,0,0,0-2.14,1c-.15.32-.19.69-.33,1a2.45,2.45,0,0,1-1.68,1.22c-.69.18-1.42.21-2.11.4" fill="none" stroke="#368c8e" stroke-linecap="round" stroke-linejoin="round" stroke-width="1.5"/><path d="M36.16,76.53a4.21,4.21,0,0,1-3.38,2.56A22.18,22.18,0,0,1,30.34,79a2.94,2.94,0,0,0-2.24.76,7.49,7.49,0,0,0-.87,1.66A4,4,0,0,1,24,83.55" fill="none" stroke="#368c8e" stroke-linecap="round" stroke-linejoin="round" stroke-width="1.5"/><path d="M42.12,78.84a2.06,2.06,0,0,1-.69,2.07,10.86,10.86,0,0,1-1.93,1.26,1.5,1.5,0,0,0-.46.37c-.32.43-.15,1-.22,1.56a4.23,4.23,0,0,1-1.17,2A2.34,2.34,0,0,0,37,88.25" fill="none" stroke="#368c8e" stroke-linecap="round" stroke-linejoin="round" stroke-width="1.5"/><path d="M48.3,79.59A18.9,18.9,0,0,1,47,84.92a8.16,8.16,0,0,0-.66,1.91c-.22,1.43.42,3.06-.4,4.25" fill="none" stroke="#368c8e" stroke-linecap="round" stroke-linejoin="round" stroke-width="1.5"/><path d="M54.84,79c1.11,1.36.62,3.37.88,5.11a6.72,6.72,0,0,0,1.3,3" fill="none" stroke="#368c8e" stroke-linecap="round" stroke-linejoin="round" stroke-width="1.5"/><path d="M60.48,76.39c1.18-.4,2.35.57,3.23,1.46l1.65,1.69a.67.67,0,0,1,.22.33c.07.29-.21.55-.22.84s.4.58.75.72l3.77,1.45" fill="none" stroke="#368c8e" stroke-linecap="round" stroke-linejoin="round" stroke-width="1.5"/><path d="M66.78,70.53a5.52,5.52,0,0,0,.37,2,1.86,1.86,0,0,0,1.59,1.14,2.88,2.88,0,0,0,1.38-.54,3.39,3.39,0,0,1,3-.59,3.59,3.59,0,0,1,1,.73l2.29,2.18" fill="none" stroke="#368c8e" stroke-linecap="round" stroke-linejoin="round" stroke-width="1.5"/><path d="M79.77,61.47a2.91,2.91,0,0,0-3.38-1c-1,.4-1.63,1.28-2.58,1.68a3,3,0,0,1-3.39-.9" fill="none" stroke="#368c8e" stroke-linecap="round" stroke-linejoin="round" stroke-width="1.5"/><path d="M72.14,51.54A2.87,2.87,0,0,1,74.8,50a10.19,10.19,0,0,1,3.14.7,1.8,1.8,0,0,0,1.85-.2l2.69-1.61" fill="none" stroke="#368c8e" stroke-linecap="round" stroke-linejoin="round" stroke-width="1.5"/><path d="M72,40.36a4.53,4.53,0,0,1,3.68-3,15.72,15.72,0,0,1,2.17,0,19.87,19.87,0,0,0,3.35-.3,1.86,1.86,0,0,0,1.48-.73" fill="none" stroke="#368c8e" stroke-linecap="round" stroke-linejoin="round" stroke-width="1.5"/><path d="M68.94,31.13a6.32,6.32,0,0,1,.61-1.87,2.17,2.17,0,0,1,1.53-1.13c.94-.1,1.76.6,2.68.78A2.51,2.51,0,0,0,76.57,27c.1-.47.27-1.15.74-1" fill="none" stroke="#368c8e" stroke-linecap="round" stroke-linejoin="round" stroke-width="1.5"/><path d="M64.12,23.94c-.19-1.36-.29-3,.73-3.87.75-.66,1.93-.76,2.54-1.54A3,3,0,0,0,67.65,16a5.32,5.32,0,0,1-.25-2.61" fill="none" stroke="#368c8e" stroke-linecap="round" stroke-linejoin="round" stroke-width="1.5"/><path d="M55.53,20.35a3.39,3.39,0,0,1-.76-3.43,15.65,15.65,0,0,1,2-3c.65-1,.88-2.56-.08-3.29" fill="none" stroke="#368c8e" stroke-linecap="round" stroke-linejoin="round" stroke-width="1.5"/></g></svg>