<svg xmlns="http://www.w3.org/2000/svg" width="100" height="100" viewBox="0 0 100 100"><g id="eyes"><path d="M45.23,59.55H53.8s-.21,8.57-4.32,8.57S45.23,59.55,45.23,59.55Z" fill="#c1272d"/><path d="M50.22,59.54a5.15,5.15,0,0,0-2.85,1.61,4.37,4.37,0,0,0-1.09,3.64,3.4,3.4,0,0,0,2.56,2.68,3.68,3.68,0,0,0,3.21-1.12,6.32,6.32,0,0,0,1.57-3.11,3.27,3.27,0,0,0-.48-3,2.53,2.53,0,0,0-2-.66,7.55,7.55,0,0,0-2.13.57" fill="#ff7bac"/><path d="M45.82,59.55H53a.8.8,0,0,1,.8.86c-.18,2.18-1,7.71-4.27,7.71s-4.1-6-4.22-8A.56.56,0,0,1,45.82,59.55Z" fill="none" stroke="#000" stroke-miterlimit="10" stroke-width="1.21"/></g></svg>