<svg xmlns="http://www.w3.org/2000/svg" width="100" height="100" viewBox="0 0 100 100"><g id="Layer_1" data-name="Layer 1"><path d="M52.82,61.39a1.6,1.6,0,0,1,1.55,2.09c-.86,2.44-3.18,3.4-5.91,3.42s-5.07-.93-5.94-3.36A1.6,1.6,0,0,1,44,61.43Z" fill="#c1272d"/><path d="M44.06,65.67a8.69,8.69,0,0,1,10-1.54S51.07,69,44.06,65.67Z" fill="#ff7bac"/><path d="M52.82,61.39a1.6,1.6,0,0,1,1.55,2.09c-.86,2.44-3.18,3.4-5.91,3.42s-5.07-.93-5.94-3.36A1.6,1.6,0,0,1,44,61.43Z" fill="none" stroke="#000" stroke-miterlimit="10" stroke-width="0.82"/></g></svg>