<svg xmlns="http://www.w3.org/2000/svg" width="100" height="100" viewBox="0 0 100 100"><g id="eyes"><path d="M55.4,60.82a2.1,2.1,0,0,1,2,2.76c-1.12,3.2-4.16,4.46-7.75,4.47s-6.65-1.21-7.8-4.4a2.11,2.11,0,0,1,2-2.78Z" fill="#fff"/><path d="M55.4,60.82a2.1,2.1,0,0,1,2,2.76c-1.12,3.2-4.16,4.46-7.75,4.47s-6.65-1.21-7.8-4.4a2.11,2.11,0,0,1,2-2.78Z" fill="none" stroke="#000" stroke-miterlimit="10" stroke-width="1.08"/><line x1="42.37" y1="63.93" x2="47.33" y2="63.93" fill="none" stroke="#000" stroke-linecap="round" stroke-linejoin="round" stroke-width="0.81"/><line x1="51.93" y1="63.93" x2="56.88" y2="63.93" fill="none" stroke="#000" stroke-linecap="round" stroke-linejoin="round" stroke-width="0.81"/></g></svg>