<svg xmlns="http://www.w3.org/2000/svg" width="100" height="100" viewBox="0 0 100 100"><g id="Layer_1" data-name="Layer 1"><path d="M29.88,37.23H43.49a1.65,1.65,0,0,1,1.65,1.65V41a8.45,8.45,0,0,1-8.45,8.45h0A8.45,8.45,0,0,1,28.24,41V38.87a1.65,1.65,0,0,1,1.65-1.65Z" fill="#fff" opacity="0.3"/><path d="M32,40.31h2.78a0,0,0,0,1,0,0v1.61a.4.4,0,0,1-.4.4h-2a.4.4,0,0,1-.4-.4V40.31A0,0,0,0,1,32,40.31Z" fill="#fff" opacity="0.3"/><path d="M29.88,37.23H43.49a1.65,1.65,0,0,1,1.65,1.65V41a8.45,8.45,0,0,1-8.45,8.45h0A8.45,8.45,0,0,1,28.24,41V38.87a1.65,1.65,0,0,1,1.65-1.65Z" fill="none" stroke="#141414" stroke-linecap="round" stroke-linejoin="round" stroke-width="1.79"/><path d="M54.51,37.23H68.12a1.65,1.65,0,0,1,1.65,1.65V41a8.45,8.45,0,0,1-8.45,8.45h0A8.45,8.45,0,0,1,52.87,41V38.87a1.65,1.65,0,0,1,1.65-1.65Z" fill="#fff" opacity="0.3"/><path d="M56.6,40.31h2.78a0,0,0,0,1,0,0v1.61a.4.4,0,0,1-.4.4H57a.4.4,0,0,1-.4-.4V40.31A0,0,0,0,1,56.6,40.31Z" fill="#fff" opacity="0.3"/><path d="M54.51,37.23H68.12a1.65,1.65,0,0,1,1.65,1.65V41a8.45,8.45,0,0,1-8.45,8.45h0A8.45,8.45,0,0,1,52.87,41V38.87a1.65,1.65,0,0,1,1.65-1.65Z" fill="none" stroke="#141414" stroke-linecap="round" stroke-linejoin="round" stroke-width="1.79"/><path d="M45.17,43.15l.23-.07a13.1,13.1,0,0,1,7.47.07h0" fill="none" stroke="#141414" stroke-linecap="round" stroke-linejoin="round" stroke-width="1.79"/></g></svg>