<svg xmlns="http://www.w3.org/2000/svg" width="100" height="100" viewBox="0 0 100 100"><g id="eyes"><path d="M32.45,56.17a9.17,9.17,0,0,1-4.87-.85c-1.54-.65-3-1.51-4.52-2.15a6.18,6.18,0,0,0-2.26-.57,2.75,2.75,0,0,0-2.11.87c-.85,1-.53,2.6.2,3.71,1.76,2.65,5.55,5.07,8.2,6.79a19.39,19.39,0,0,0,7.65,3.08" fill="#92dbe0" stroke="#368c8e" stroke-linecap="round" stroke-linejoin="round"/><path d="M10.26,85h-.11a.38.38,0,0,1-.26-.44l2-9.48a.4.4,0,0,1,.18-.24.31.31,0,0,1,.19-.06l.1,0,1.48.4a.37.37,0,0,1,.23.19.37.37,0,0,1,0,.31l-3.49,9.07A.38.38,0,0,1,10.26,85Z" fill="#a3d0e3"/><path d="M12.27,75.16l1.48.4-3.49,9.08,2-9.48m0-.75a.77.77,0,0,0-.39.11.72.72,0,0,0-.34.48l-2,9.48a.76.76,0,0,0,.52.88.83.83,0,0,0,.22,0,.77.77,0,0,0,.7-.48l3.49-9.08a.72.72,0,0,0,0-.61.74.74,0,0,0-.47-.38l-1.48-.41-.2,0Z" fill="#498da5"/><path d="M11.81,75.42l3.68-13a1,1,0,0,1,1-.64,1.18,1.18,0,0,1,.37,0A1,1,0,0,1,17.69,63L14,76Z" fill="#aaa"/><path d="M16.46,62.11a1.26,1.26,0,0,1,.27,0c.41.11.68.44.6.73L13.75,75.56l-1.48-.4,3.58-12.68a.59.59,0,0,1,.61-.37m0-.75h0a1.33,1.33,0,0,0-1.34.92L11.55,75l-.21.73.73.2,1.48.4.72.2.2-.72,3.58-12.68a1.4,1.4,0,0,0-1.12-1.65,1.53,1.53,0,0,0-.47-.07Z" fill="#7a7a7a"/><path d="M17.11,54.23l4.34-16a1.05,1.05,0,0,1,1-.77.8.8,0,0,1,.27,0,1,1,0,0,1,.74,1.29l-4.34,16Z" fill="#aaa"/><path d="M22.46,38l.14,0a.55.55,0,0,1,.39.67L18.78,54.16l-1.06-.28,4.21-15.47a.55.55,0,0,1,.53-.41m0-1h0A1.54,1.54,0,0,0,21,38.14L16.75,53.61l-.26,1,1,.26,1.05.29,1,.26.26-1L24,39a1.52,1.52,0,0,0-.15-1.18,1.5,1.5,0,0,0-.93-.72,1.45,1.45,0,0,0-.41-.06Z" fill="#7a7a7a"/><path d="M23.43,39.91a1.65,1.65,0,0,1-.38,0l-1.63-.44a1.45,1.45,0,0,1-1-1.78l.13-.47a1.46,1.46,0,0,1,1.4-1.07,1.2,1.2,0,0,1,.38,0l1.63.44a1.45,1.45,0,0,1,1,1.78l-.13.47a1.46,1.46,0,0,1-1.4,1.07Z" fill="#bfc5c6"/><path d="M21.93,36.6a1.07,1.07,0,0,1,.25,0l1.63.44a1,1,0,0,1,.67,1.17l-.13.47a1,1,0,0,1-.92.7l-.25,0-1.63-.45a1,1,0,0,1-.67-1.16L21,37.3a1,1,0,0,1,.92-.7m0-1A2,2,0,0,0,20.05,37l-.13.47a2,2,0,0,0,1.37,2.4l1.63.44a1.79,1.79,0,0,0,.51.07A2,2,0,0,0,25.31,39l.13-.47a2,2,0,0,0-1.37-2.39l-1.63-.44a1.75,1.75,0,0,0-.51-.07Z" fill="#656868"/><rect x="15.52" y="59.66" width="2.7" height="3.98" rx="1.06" transform="translate(16.94 125.57) rotate(-164.77)" fill="#595959"/><path d="M18.24,62.24a1.49,1.49,0,0,1-.47-.07l-1.89-.51a1.82,1.82,0,0,1-1.27-2.22l3.6-13.23.08-.31c.06-.23.12-.47.2-.69s.25-.7.72-.7a.83.83,0,0,1,.51.21,1,1,0,0,0,.28.17l.56.15.14,0a.57.57,0,0,0,.55-.42l.26-1c.08-.3.12-.5.16-.71a5.69,5.69,0,0,1,.27-1.08l0-.11.12-.13a.64.64,0,0,1,.44-.16A2.52,2.52,0,0,1,23.7,42a5.88,5.88,0,0,1,1.85,1.47c.48.65,1.26,1.89,1,2.92a1.06,1.06,0,0,1-.66.76,1,1,0,0,1-.3,0,1.12,1.12,0,0,1-.72-.28,4.78,4.78,0,0,1-.49-.51l-.26-.28L24,46,20,60.91A1.81,1.81,0,0,1,18.24,62.24Z" fill="#476eb2"/><path d="M22.54,42a3.13,3.13,0,0,1,1,.45,5.47,5.47,0,0,1,1.62,1.29,3.63,3.63,0,0,1,.92,2.5.54.54,0,0,1-.33.4.34.34,0,0,1-.14,0,.59.59,0,0,1-.39-.16c-.25-.21-.49-.53-.73-.77L23.79,45,19.5,60.78a1.29,1.29,0,0,1-1.6.91L16,61.18a1.31,1.31,0,0,1-.92-1.6c.35-1.28.7-2.56,1-3.84q.91-3.32,1.81-6.64c.25-.92.5-1.84.76-2.76.08-.32.15-.65.26-1s.17-.37.25-.37.3.26.66.36l.55.15a1.45,1.45,0,0,0,.28,0,1.08,1.08,0,0,0,1-.79c.1-.35.19-.7.29-1.05a13.19,13.19,0,0,1,.39-1.65.05.05,0,0,1,0,0s.06,0,.1,0m0-1a1.18,1.18,0,0,0-.77.28,1.22,1.22,0,0,0-.3.44,6.73,6.73,0,0,0-.3,1.17,4,4,0,0,1-.12.58l0,.15-.24.9a.09.09,0,0,1-.07.05l-.57-.16L20,44.33a1.23,1.23,0,0,0-.81-.32c-.83,0-1.1.78-1.2,1a5.87,5.87,0,0,0-.2.74c0,.1,0,.2-.08.3l-.38,1.38L17,48.84l-1.79,6.58,0,.06-.9,3.32-.14.51a2.32,2.32,0,0,0,.22,1.75,2.27,2.27,0,0,0,1.4,1.08l1.88.52a2.49,2.49,0,0,0,.61.08A2.3,2.3,0,0,0,20.46,61l3.83-14,.26.26a1.62,1.62,0,0,0,1.05.4,1.33,1.33,0,0,0,.45-.07,1.51,1.51,0,0,0,1-1.11c.31-1.23-.55-2.62-1.1-3.34A6,6,0,0,0,24,41.57l-.06,0A2.94,2.94,0,0,0,22.54,41Z" fill="#163f70"/><line x1="19.47" y1="46.67" x2="16.76" y2="57.35" fill="none" stroke="#6a93ce" stroke-linecap="round" stroke-miterlimit="10" stroke-width="0.6"/><path d="M12.49,53.18a4,4,0,0,0-.38,1.46,3.39,3.39,0,0,0,.5,2.34,2.56,2.56,0,0,0,2.48.77,5.35,5.35,0,0,0,2.36-1.33c1.77-1.57,4.27-5.65.22-6.13A5.23,5.23,0,0,0,12.49,53.18Z" fill="#92dbe0" stroke="#368c8e" stroke-miterlimit="10"/></g></svg>