<svg xmlns="http://www.w3.org/2000/svg" width="100" height="100" viewBox="0 0 100 100"><g id="Layer_1" data-name="Layer 1"><path d="M35.32,20.32c-1.81.79-4.65-.12-6.22-1.31s-3.26-4.59-5.71-3.72c-4.15,1.46-1.23,6.91.82,8.57a14.74,14.74,0,0,0,8.39,3.45" fill="#92dbe0" stroke="#368c8e" stroke-linecap="round" stroke-linejoin="round"/><path d="M36.23,74.46c-2.35,2.47-5,3.19-8.09,4.14-1.68.5-4,1.82-2.88,4s5.11,1.41,7,1.22c3.15-.34,5.91-2.31,8.93-3.51" fill="#92dbe0" stroke="#368c8e" stroke-linecap="round" stroke-linejoin="round"/><path d="M66.6,21.87c4-.4,4.55-2.93,6.8-5.82,1.14-1.47,3.56-2.79,4.67-.59,2.05,4.09-4.44,10-7.59,11.46" fill="#92dbe0" stroke="#368c8e" stroke-linecap="round" stroke-linejoin="round"/><path d="M52.42,13.13c3.27-.72,3.81-2.85,5.39-5.25.82-1.23,2.33-3.14,3.93-3.1,2.45.06,1.95,2.46,1.41,4.08-.89,2.66-2.56,3.71-4.32,5.83" fill="#92dbe0" stroke="#368c8e" stroke-linecap="round" stroke-linejoin="round"/><path d="M70.18,37.07c3.49-1.2,8.54-1.78,10.93,1.75.7,1,1.41,3.24.16,4.11s-2.8-.85-4-1.29a8.64,8.64,0,0,0-7.77,1.53" fill="#92dbe0" stroke="#368c8e" stroke-linecap="round" stroke-linejoin="round"/><path d="M62.25,77.2c2.25,2.92,1.54,6.53,2.15,9.89a2.57,2.57,0,0,0,.68,1.53,1.92,1.92,0,0,0,2.5-.25A4.76,4.76,0,0,0,68.7,85.9c1-4.83-.11-9.06-2.45-13.31" fill="#92dbe0" stroke="#368c8e" stroke-linecap="round" stroke-linejoin="round"/><path d="M47.42,83.74c-.24,2.16-1.91,4.84-4.12,5.46-1.48.42-4.94,0-4.3,2.82.26,1.16,1.6,1.71,2.78,1.9a11.49,11.49,0,0,0,12.86-8.35" fill="#92dbe0" stroke="#368c8e" stroke-linecap="round" stroke-linejoin="round"/><path d="M29.8,40.94a4.19,4.19,0,0,1-3.84.21,20,20,0,0,1-3.45-2,7.05,7.05,0,0,0-3.71-1.35,2.58,2.58,0,0,0-2.22,1,2.68,2.68,0,0,0-.34,1.78c.23,2.25,2,4,4,5.19a14.55,14.55,0,0,0,9.24,1.85" fill="#92dbe0" stroke="#368c8e" stroke-linecap="round" stroke-linejoin="round"/><path d="M46.47,13.09c.3-4-4.07-7.63-7.83-7.84A2.63,2.63,0,0,0,36,6.34a2.22,2.22,0,0,0,.44,2.3c1,1.22,2.63,1.73,3.71,2.84s1,2.41,1,3.88" fill="#92dbe0" stroke="#368c8e" stroke-linecap="round" stroke-linejoin="round"/></g></svg>