<svg xmlns="http://www.w3.org/2000/svg" width="100" height="100" viewBox="0 0 100 100"><g id="toppings"><path d="M31.86,69.76a29,29,0,0,0-5.37-4.51,14.11,14.11,0,0,1-4.78-5.58,4,4,0,0,1-.4-2.4,1.84,1.84,0,0,1,1.52-1.52,3.66,3.66,0,0,1,1.93.55l8.14,4" fill="#92dbe0" stroke="#368c8e" stroke-linecap="round" stroke-linejoin="round"/><path d="M7.9,71.05a1.18,1.18,0,0,0,.46,0c-.25.1-.5.16-.63,0l-.09,0Z" fill="#ad6c36"/><path d="M14.61,51.74a2.65,2.65,0,0,1,.48.08c.81.2,1.62.38,2.43.55q4.88,1.05,9.81,1.68c2.73.35,5.53.63,8.31.76.71,0,1.44.06,2.16.08.25,0,1.09-.11,1.25.2.24.47-.9,1.18-1.18,1.43-.9.77-1.82,1.53-2.76,2.26a58.89,58.89,0,0,1-6.39,4.46,59.64,59.64,0,0,1-6.52,3.2,51.47,51.47,0,0,1-6.31,2.14c-1.25.32-3,1-4.31.71a1.51,1.51,0,0,1-.76-.42,5.25,5.25,0,0,1-1.08-2.4,14.56,14.56,0,0,1-.4-4.16,16,16,0,0,1,1.27-6,11.52,11.52,0,0,1,2.8-4C13.92,51.9,14.15,51.71,14.61,51.74Z" fill="#a1361d"/><path d="M6.17,59.49l-.07-.06" fill="none" stroke="#ec00ff" stroke-miterlimit="10" stroke-width="0.12"/><path d="M11.15,69a3.29,3.29,0,0,1-.79-.91,5.5,5.5,0,0,1-.34-1,12.44,12.44,0,0,1-.42-2.27,14.73,14.73,0,0,1,.34-4.77,18.08,18.08,0,0,1,2.06-5,22.88,22.88,0,0,1,1.63-2.39c.56-.72,1.21-1.08.43-1.9A2.69,2.69,0,0,0,12.65,50c-1-.18-1.63.58-2.17,1.32A24.79,24.79,0,0,0,8.8,53.89,21,21,0,0,0,6.18,66.14c.06.61.15,1.23.24,1.84,0,.3.09.6.13.9s.15.49.19.75a1.7,1.7,0,0,0,.89,1.14,1.39,1.39,0,0,0,1.3,0,5.93,5.93,0,0,0,2.67-1.4A3.48,3.48,0,0,1,11.15,69Z" fill="#d19259"/><path d="M7.47,70.88c-.14-.2-.29-.4-.44-.59s-.25-.32-.23-.36a2.67,2.67,0,0,1,.2-.46,2.89,2.89,0,0,1,1.08-1.06,6.53,6.53,0,0,1,.7-.35,7.84,7.84,0,0,1,.83-.23c.17-.06.37-.24.56-.19.72-.1,3.34-.63,3.6-.67,1.36-.24,2.73-.47,4.07-.81A45.78,45.78,0,0,0,27.58,62c1.27-.65,2.59-1.3,3.83-2s2.72-1.64,4-2.52c.66-.44,1.32-.9,2-1.36A6,6,0,0,0,38.91,55a.19.19,0,0,1,.14.11c.24.47-.9,1.18-1.18,1.43-.9.77-1.82,1.53-2.76,2.26a58.89,58.89,0,0,1-6.39,4.46,59.64,59.64,0,0,1-6.52,3.2,50.62,50.62,0,0,1-5.51,1.93c-.94.27-1.9.53-2.85.76a7.43,7.43,0,0,1-1.87.43l0,0c-.15-.1-.68.24-.83.3l-1,.43-1.27.51c-.22.09-.91.5-1.15.29A.64.64,0,0,1,7.47,70.88Z" fill="#deb988"/><path d="M7,70.29s-.25-.32-.23-.36a2.67,2.67,0,0,1,.2-.46,2.89,2.89,0,0,1,1.08-1.06,6.53,6.53,0,0,1,.7-.35,7.84,7.84,0,0,1,.83-.23c.17-.06.37-.24.56-.19.72-.1,3.34-.63,3.6-.67,1.36-.24,2.73-.47,4.07-.81a28.92,28.92,0,0,0,4.75-1.7c1.52-.68,3-1.49,4.49-2.22s3.12-1.59,4.63-2.47,3-1.8,4.45-2.79c.94-.64,1.87-1.3,2.78-2a3.53,3.53,0,0,1-1.06,1l-3.61,2.49a3.19,3.19,0,0,0-.5.39c-.2.2-.34.43-.54.62a4.17,4.17,0,0,1-1.59.71,10.89,10.89,0,0,0-1.6.72l-4.92,2.54-1.84,1a3.25,3.25,0,0,1-.79.34,10,10,0,0,1-1,.36,1.71,1.71,0,0,0-.95.53,3.37,3.37,0,0,1-.81.64.41.41,0,0,1-.37,0,.58.58,0,0,0-.42-.11,1.67,1.67,0,0,0-.44.17,1.17,1.17,0,0,1-.45.13,5.48,5.48,0,0,1-.56-.1,1.64,1.64,0,0,0-.62.13,12.2,12.2,0,0,1-2.44.52,2.06,2.06,0,0,0-.26,0,1.52,1.52,0,0,0-.33.18l-.76.44a.16.16,0,0,0-.08.06c-.05.07,0,.18.08.24s.16.12.24.19a.37.37,0,0,1,.15.26.33.33,0,0,1-.22.3.66.66,0,0,1-.63-.13c-.13-.13-.25-.29-.39-.42a.52.52,0,0,0-.5-.16c-.17.06-.45.15-.51.34-.14.38.38.84.68,1,.08,0,.25.17.07.23a1.27,1.27,0,0,0-.2,0,1.33,1.33,0,0,0-.24.1s-.32.2-.35.18a1,1,0,0,1-.3-.31s0,0,0,0a1,1,0,0,0,0-.36,1.06,1.06,0,0,0-.32-1,1.71,1.71,0,0,0-1.86.11c-1,.42-1.95,1.47-1.57,2.07l-.09,0Z" fill="#c99d69"/><path d="M13.12,69.09h0" fill="none" stroke="#c99d69" stroke-linecap="round" stroke-linejoin="round" stroke-width="0"/><path d="M23.16,66l-.61.26.08-.05Z" fill="#ad6c36"/><path d="M13.09,50.54c.31.2.44.7.14.92s-.53.13-.65.35.12.64-.07.87-.27.12-.41.17c-.42.15-.59.64-.73,1.06a8.49,8.49,0,0,1-.76,1.65c-.13.23-.31.42-.45.64s-.05.54-.29.76a1.34,1.34,0,0,0-.41.64,10.6,10.6,0,0,1-.57,1.84,3.16,3.16,0,0,0-.36.71c-.15.55.18,1.14-.09,1.67a2.72,2.72,0,0,0-.32,1.24,1.6,1.6,0,0,0,.24.83c.14.25.4.57.28.87s-.31.33-.2.67.14.52-.14.83c-.11.12-.26.25-.42.21a.42.42,0,0,1-.22-.18c-.2-.3-.15-.61-.26-.93,0-.14-.16-.23-.24-.36A1.63,1.63,0,0,1,7,64.43a8.1,8.1,0,0,1,.07-2.82c.09-.47.28-.9.39-1.36a15.23,15.23,0,0,0,.22-1.53A3.54,3.54,0,0,1,8,57.44a5.43,5.43,0,0,0,.59-1c.12-.4,0-.86.16-1.24s.81-.74,1.07-1.22a4.15,4.15,0,0,0,.27-.93A4.23,4.23,0,0,1,11,51.66l.51-.65c.14-.17.31-.5.49-.61A1.35,1.35,0,0,1,13.09,50.54Z" fill="#d6a167"/><path d="M7.64,71.06a1.52,1.52,0,0,1-.38-.52c-.09-.17-.25-.31-.35-.48a3.11,3.11,0,0,1-.36-1.18c0-.3-.08-.6-.13-.9-.09-.61-.18-1.23-.24-1.84A21,21,0,0,1,8.8,53.89a24.79,24.79,0,0,1,1.68-2.62c.54-.74,1.14-1.5,2.17-1.32a2.69,2.69,0,0,1,1.41.83c.78.82.13,1.18-.43,1.9A22.88,22.88,0,0,0,12,55.07a18.08,18.08,0,0,0-2.06,5,14.73,14.73,0,0,0-.34,4.77A12.44,12.44,0,0,0,10,67.09c.05.18.09.37.15.55.72-.1,3.34-.63,3.6-.67,1.36-.24,2.73-.47,4.07-.81l.62-.16.26-.08.36-.11.31-.1.3-.1L20,65.5l.28-.1.33-.13.28-.1.31-.13.29-.12.3-.12.31-.13.28-.12.28-.13c1.5-.68,2.93-1.46,4.4-2.18l.07,0,.43-.22,2.14-1.09c.67-.37,1.34-.73,2-1.12s1.47-.86,2.18-1.31l.3-.19.36-.23.9-.59c.66-.44,1.32-.9,2-1.36.11-.08.23-.15.35-.22l1.06-.78.09-.11a.19.19,0,0,1,.14.11c.24.47-.9,1.18-1.18,1.43-.9.77-1.82,1.53-2.76,2.26a58.89,58.89,0,0,1-6.39,4.46,59.64,59.64,0,0,1-6.52,3.2,50.62,50.62,0,0,1-5.51,1.93c-.94.27-1.9.53-2.85.76a7.87,7.87,0,0,1-1.81.43l0,0h0a1.34,1.34,0,0,0-.2,0l-.24.1s-.32.2-.35.18l-.63.26a8.1,8.1,0,0,1-.92.38l-.75.3-.52.24-.09,0h0l-.07,0H7.78s0,0,0,0l-.06,0Z" fill="none" stroke="#ad6c36" stroke-miterlimit="10" stroke-width="0.12"/><path d="M38.91,55a6,6,0,0,1-1.5,1.11c-.64.46-1.3.92-2,1.36-.42.28-.86.57-1.29.84a2,2,0,0,0-.91.93,1.34,1.34,0,0,1-1,.6A21.29,21.29,0,0,0,27.58,62c-1.29.67-2.58,1.35-3.9,2-.65.31-1.3.6-2,.88-.38.16-.76.28-1.13.45s-.36.45-.64.65a.86.86,0,0,1-.64.14,2.33,2.33,0,0,0-.44-.1,1.33,1.33,0,0,0-.46.16.89.89,0,0,1-.51,0,2.34,2.34,0,0,0-.64.12q-.71.17-1.41.3l-1,.18A2.93,2.93,0,0,0,14,67a2.31,2.31,0,0,0-.24.2,1.46,1.46,0,0,1-.82.31c-.54,0-.22.46.09.62.13.06.3.13.31.27s-.13.23-.26.23a.61.61,0,0,1-.34-.19,2,2,0,0,1-.38-.54.83.83,0,0,0-.17-.27.2.2,0,0,0-.28,0c-.09.09,0,.27-.08.39s-.27.14-.4.07a2,2,0,0,1-.35-.3c-.27-.2-.6,0-.81-.32a1,1,0,0,1-.07-.77,2.88,2.88,0,0,0,.12-.77c0-.5-.44-.78-.57-1.21a.65.65,0,0,1,0-.31,3.91,3.91,0,0,1,.07-.91A5.14,5.14,0,0,1,10.1,63c.33-.67.12-1.48.26-2.22a12.32,12.32,0,0,1,1.15-2.44,14.57,14.57,0,0,0,.63-2,4.24,4.24,0,0,1,.67-1.68,4.22,4.22,0,0,0,.8-1.16,2.19,2.19,0,0,1,1.47-1.51A2.38,2.38,0,0,1,16,52l1.49.33c1.08.23,2.16.45,3.25.65.48.09,1,.12,1.45.17a12.35,12.35,0,0,1,1.46.34,31.75,31.75,0,0,0,3.65.52c2.73.35,5.53.63,8.31.76.71,0,1.44.06,2.16.08.22,0,.91-.09,1.17.11Z" fill="#f8ce5b"/><path d="M29.39,60.71c.57-.29,1.17-.55,1.75-.84.41-.22.93-.06,1.33-.31A2.6,2.6,0,0,0,33,59a1.16,1.16,0,0,1,.29-.25l.25-.07a4.56,4.56,0,0,0-.3.58,1.34,1.34,0,0,1-1,.6A21.29,21.29,0,0,0,27.58,62l-.5.26A17.12,17.12,0,0,1,29.39,60.71Z" fill="#f7bc45"/><path d="M37.42,55.71a5.77,5.77,0,0,1,.42-.44c.18-.17,0-.3-.21-.32l-.33-.05c.14,0,.31,0,.46,0a2.16,2.16,0,0,0,.44,0A1,1,0,0,1,39,55l-.06,0a6,6,0,0,1-1.5,1.11c-.42.31-.85.6-1.28.9A12,12,0,0,0,37.42,55.71Z" fill="#f7bc45"/><path d="M10.26,67.43h.09c.13.18.43.19.63.19a.44.44,0,0,1,.35.1c.05.05.08.13.14.17a.23.23,0,0,0,.26,0,.72.72,0,0,0,.12-.25c0,.12,0,.27,0,.39s-.27.14-.4.07a2,2,0,0,1-.35-.3C10.79,67.54,10.47,67.74,10.26,67.43Z" fill="#f7bc45"/><path d="M12.34,67.85l0,0,.15.2s0,.08.09.1a.12.12,0,0,0,.13,0,.12.12,0,0,0,0-.15,1.1,1.1,0,0,1-.09-.14.18.18,0,0,1,0-.21c-.07.07,0,.2.08.24a1.09,1.09,0,0,0,.29.23c.13.06.3.13.31.27s-.13.23-.26.23a.61.61,0,0,1-.34-.19A2.34,2.34,0,0,1,12.34,67.85Z" fill="#f7bc45"/><path d="M16.94,66.36c.33-.11.67-.2,1-.3s.5-.28.82-.25a2.67,2.67,0,0,0,.47.07.88.88,0,0,0,.42-.21c.08,0,.15-.12.24-.17a.8.8,0,0,1,.26-.09l.61-.19-.17.07c-.32.16-.36.45-.64.65a.86.86,0,0,1-.64.14,2.33,2.33,0,0,0-.44-.1,1.33,1.33,0,0,0-.46.16.89.89,0,0,1-.51,0,2.34,2.34,0,0,0-.64.12l-.49.11Z" fill="#f7bc45"/><path d="M19.91,59.21a.73.73,0,0,0,.42.21,1.53,1.53,0,0,0,.91-.28,8.77,8.77,0,0,1,.84-.49c.68-.29,1.5-.15,2.18-.46.85-.38,1.38-1.4,2.3-1.53a.75.75,0,0,1,.81.37.93.93,0,0,1-.16.76,4.24,4.24,0,0,0-.43.85c-.08.28,0,1.2.46,1.16.17,0,.32-.13.49-.11a.42.42,0,0,1,.33.42.89.89,0,0,1-.19.54,2,2,0,0,1-1.64,1c-.58,0-1.1-.42-1.68-.5a3.14,3.14,0,0,0-2.07.69,6,6,0,0,1-1.35.77,9.2,9.2,0,0,0-.94.21,1.68,1.68,0,0,0-.76.9,3.75,3.75,0,0,1-1.06,1.24,2.18,2.18,0,0,1-2.05.35c-.26-.11-.52-.35-.47-.63s.31-.4.53-.53a4.24,4.24,0,0,0,2-2.64,1.44,1.44,0,0,0,0-.87c-.17-.45-.63-.7-.72-1.19A1.5,1.5,0,0,1,18,58.26C18.81,57.38,19.32,58.68,19.91,59.21Z" fill="#f7bc45"/><path d="M20.89,54.61a5.58,5.58,0,0,1,.64-.73,1.1,1.1,0,0,1,.89-.29.62.62,0,0,1,.53.69c-.08.32-.43.48-.74.61a4.19,4.19,0,0,0-1.29.72,1.8,1.8,0,0,0-.65,1.29c0,.24.06.5-.09.69s-.56.19-.83,0a2,2,0,0,0-.82-.36c-.58,0-.94.7-1.51.78A1.41,1.41,0,0,1,16,57.56a7.26,7.26,0,0,1-.7-.77.87.87,0,0,1-.24-.51c0-.92,1.22-.36,1.65-.23A4,4,0,0,0,20.89,54.61Z" fill="#f7bc45"/><path d="M14.64,53.44a.47.47,0,0,1,0,.5,2.11,2.11,0,0,1-.28.45,1.8,1.8,0,0,0-.23,1.3c.08.38,0,.89.28,1.19a4.89,4.89,0,0,1,.44.47.51.51,0,0,1,0,.59c-.14.18-.41.19-.63.22a1.59,1.59,0,0,0-1,.55c-.17.22-.32.51-.6.56a.55.55,0,0,1-.58-.39,1.06,1.06,0,0,1,.09-.76c.11-.23.27-.44.4-.66.38-.67.27-1.39.55-2.09C13.33,55.06,14,52.78,14.64,53.44Z" fill="#f7bc45"/><path d="M12,61.64a2.34,2.34,0,0,0-.16.93A1.62,1.62,0,0,0,13,63.82a5.32,5.32,0,0,0,2.14,0c.18,0,.41,0,.5.15s-.08.41-.26.51-.42.18-.51.37a.52.52,0,0,0,.25.61,1.56,1.56,0,0,0,.71.15c0,.38-.49.58-.88.57a2.61,2.61,0,0,0-1.15,0c-.37.16-.56.58-.91.78a1.2,1.2,0,0,1-1.34-.24,3.43,3.43,0,0,1-.79-1.21,2.71,2.71,0,0,1-.37-1.32A9.5,9.5,0,0,1,10.77,63c.15-.58-.32-1-.22-1.56.19-1,1.62-2.07,1.53-.36A2.3,2.3,0,0,1,12,61.64Z" fill="#f7bc45"/><path d="M29.27,54.6q.3,0,.6.06c.08,0,.18,0,.22.08s0,.21-.06.29a2.43,2.43,0,0,1-.91.52,1.46,1.46,0,0,0-.82.63c-.07.14-.09.29-.16.42a.4.4,0,0,1-.35.25c-.18,0-.29-.2-.37-.37a.61.61,0,0,0-.4-.4c-.2,0-.4,0-.5-.26s0-.49-.16-.69a1,1,0,0,0-.47-.25c-.17-.07-.35-.21-.32-.39a.33.33,0,0,1,.32-.25c.33,0,.67.16,1,.15a6.19,6.19,0,0,1,.75,0C28.2,54.41,28.73,54.52,29.27,54.6Z" fill="#f7bc45"/><path d="M36.45,55.44a.9.9,0,0,1-.18,1,8.75,8.75,0,0,1-1.85,1.4c-.2.13-.47.26-.66.11a.5.5,0,0,1,0-.54,1.68,1.68,0,0,0,.19-.53.8.8,0,0,0-.23-.54,3.34,3.34,0,0,1-.36-.48.51.51,0,0,1,.15-.72A2.71,2.71,0,0,1,34.79,55C35.23,55.06,36.18,55,36.45,55.44Z" fill="#f7bc45"/><path d="M38.91,55a6,6,0,0,1-1.5,1.11c-.64.46-1.3.92-2,1.36-.42.28-.86.57-1.29.84a2,2,0,0,0-.91.93,1.34,1.34,0,0,1-1,.6A21.29,21.29,0,0,0,27.58,62c-1.29.67-2.58,1.35-3.9,2-.65.31-1.3.6-2,.88-.38.16-.76.28-1.13.45s-.36.45-.64.65a.86.86,0,0,1-.64.14,2.33,2.33,0,0,0-.44-.1,1.33,1.33,0,0,0-.46.16.89.89,0,0,1-.51,0,2.34,2.34,0,0,0-.64.12q-.71.17-1.41.3l-1,.18A2.93,2.93,0,0,0,14,67a2.31,2.31,0,0,0-.24.2,1.46,1.46,0,0,1-.82.31c-.54,0-.22.46.09.62.13.06.3.13.31.27s-.13.23-.26.23a.61.61,0,0,1-.34-.19,2,2,0,0,1-.38-.54.83.83,0,0,0-.17-.27.2.2,0,0,0-.28,0c-.09.09,0,.27-.08.39s-.27.14-.4.07a2,2,0,0,1-.35-.3c-.27-.2-.6,0-.81-.32a1,1,0,0,1-.07-.77,2.88,2.88,0,0,0,.12-.77c0-.5-.44-.78-.57-1.21a.65.65,0,0,1,0-.31,3.91,3.91,0,0,1,.07-.91A5.14,5.14,0,0,1,10.1,63c.33-.67.12-1.48.26-2.22a12.32,12.32,0,0,1,1.15-2.44,14.57,14.57,0,0,0,.63-2,4.24,4.24,0,0,1,.67-1.68,4.22,4.22,0,0,0,.8-1.16,2.19,2.19,0,0,1,1.47-1.51A2.38,2.38,0,0,1,16,52l1.49.33c1.08.23,2.16.45,3.25.65.48.09,1,.12,1.45.17a12.35,12.35,0,0,1,1.46.34,31.75,31.75,0,0,0,3.65.52c2.73.35,5.53.63,8.31.76.71,0,1.44.06,2.16.08.22,0,.91-.09,1.17.11Z" fill="none" stroke="#f5aa27" stroke-miterlimit="10" stroke-width="0.12"/><ellipse cx="15" cy="61.09" rx="2.99" ry="2.18" transform="translate(-32.24 19.55) rotate(-34.88)" fill="#cc553b"/><path d="M12.6,62.76c1.84,2,6.17-.9,4.82-3.35-1.82-2.27-6.33.88-4.82,3.35Zm-.11.08c-1.4-2.59,3.07-5.7,5-3.48,1.58,2.62-3.09,5.93-5,3.48Z" fill="#af2f1a"/><path d="M16.64,59.06a.08.08,0,0,1,0,.11s-.05,0-.07,0-.21-.12-.32-.16a1.27,1.27,0,0,0-.39-.05c-.24,0-.45.14-.69.16s-.05-.1,0-.14a1.88,1.88,0,0,1,.3-.12,1.83,1.83,0,0,1,.66,0A1.24,1.24,0,0,1,16.64,59.06Z" fill="#efa9a3"/><path d="M14.18,59.63a.17.17,0,0,1,.1-.13l.17,0a1.39,1.39,0,0,1,.26-.1s.06,0,0,.07-.21.08-.27.1A1.51,1.51,0,0,0,14.18,59.63Z" fill="#efa9a3"/><path d="M13.21,62.86l.07,0s0,0,0,.06,0,0,0,0-.32-.13-.36-.26.09,0,.14.07A.54.54,0,0,0,13.21,62.86Z" fill="#efa9a3"/><path d="M15.13,53.94a1.75,1.75,0,0,1,.29-1.19c.19-.31.56-.8,1-.72.81.15,1.62.31,2.42.48.52.12,1.05.21,1.56.35.19,0,.6.11.7.29s0,.47-.06.63a2,2,0,0,1-.5.89,3.51,3.51,0,0,1-2.13,1C16.74,55.93,15.29,55.14,15.13,53.94Z" fill="#cc553b"/><path d="M15.11,54a1.85,1.85,0,0,1,1.18-2c1.1.16,2.26.4,3.35.63l.95.2a1.21,1.21,0,0,1,.48.19.57.57,0,0,1,.09.55c-.45,2.75-5.45,3.25-6.05.38Zm0,0c.64,2.56,5.37,2,5.84-.41.12-.39-.1-.46-.43-.54l-.95-.23c-1.06-.24-2.23-.51-3.31-.71a1.82,1.82,0,0,0-1.15,1.89Z" fill="#af2f1a"/><path d="M18.64,52.8a.19.19,0,0,1-.18.16.72.72,0,0,1-.25,0l-.9-.23c-.1,0-.39-.07-.31-.22s.36,0,.46,0S18.65,52.77,18.64,52.8Z" fill="#efa9a3"/><path d="M20.08,53.21a.53.53,0,0,1,.22,0,.19.19,0,0,1,.15.15.13.13,0,0,1-.13.15c-.08,0-.12-.1-.19-.14L20,53.32s0-.12,0-.1" fill="#efa9a3"/><path d="M17.79,54.47a.12.12,0,0,1,.17,0,.12.12,0,0,1-.05.17.13.13,0,0,1-.17-.06.14.14,0,0,1,0-.17v0" fill="#efa9a3"/><path d="M16.09,52.46a.49.49,0,0,0-.31.24.41.41,0,0,1-.07.11.08.08,0,0,1-.11,0s0-.08,0-.12a1,1,0,0,1,.42-.44C16.2,52.18,16.3,52.39,16.09,52.46Z" fill="#efa9a3"/><path d="M20.78,58.21c.42,1,2,1.26,3.44.62A4,4,0,0,0,26,57.35a1.38,1.38,0,0,0-.73-2.15l-.1,0a3.12,3.12,0,0,0-1.88.18,4.45,4.45,0,0,0-2.14,1A1.87,1.87,0,0,0,20.78,58.21Z" fill="#cc553b"/><path d="M20.83,58.19c1.15,2.07,5.94.07,5.31-2.17-.6-1.3-2.28-.91-3.34-.49-1.2.25-2.44,1.37-2,2.66Zm-.1,0c-.47-1.37.82-2.51,2.05-2.74,1.11-.42,2.8-.89,3.47.48.81,2.53-4.29,4.7-5.52,2.26Z" fill="#af2f1a"/><path d="M23.68,55.76a.18.18,0,0,1-.07.05,4,4,0,0,1-.91.37c-.11,0-.3,0-.16-.14s.14,0,.18,0A2.68,2.68,0,0,0,23,56a1.89,1.89,0,0,0,.35-.17c.07,0,.21-.16.28-.16a.1.1,0,0,1,.1.07A.1.1,0,0,1,23.68,55.76Z" fill="#efa9a3"/><path d="M21.18,57.23a2.55,2.55,0,0,0,0,.39.31.31,0,0,1,0,.1.1.1,0,0,1-.08.05.11.11,0,0,1-.06-.07.75.75,0,0,1,0-.7c.07-.09.23-.24.36-.23s-.09.09-.13.15A.56.56,0,0,0,21.18,57.23Z" fill="#efa9a3"/><path d="M24.57,63.49l-.65.35c-.61.3-1.22.58-1.84.86-.17.07-1.71.69-1.7.73a2.92,2.92,0,0,1,1.74-2.7,3.9,3.9,0,0,1,2.05-.53,2.3,2.3,0,0,1,1.51.76A5,5,0,0,0,24.57,63.49Z" fill="#cc553b"/><path d="M24.61,63.55c-1.39.66-2.84,1.27-4.25,1.89a2.28,2.28,0,0,1,.54-1.71c1.07-1.38,3.52-2.35,4.82-.77-.31.13-.8.43-1.11.59Zm-.07-.13a3.25,3.25,0,0,1,1.16-.48s0,.05,0,0c-1.72-1.79-5.42.09-5.27,2.45a35.82,35.82,0,0,0,4.15-2Z" fill="#af2f1a"/><path d="M24.67,62.56a.14.14,0,0,1,.07.08c0,.07-.07.12-.14.11a.5.5,0,0,1-.19-.1.76.76,0,0,0-.51-.09,3,3,0,0,0-.52.13s-.08,0-.11,0a.09.09,0,0,1,0-.1l.08-.05A1.46,1.46,0,0,1,24.67,62.56Z" fill="#efa9a3"/><path d="M28.25,58.65a2.18,2.18,0,0,0,.25.56,1.56,1.56,0,0,0,2,.48,5,5,0,0,0,2-1.15c.86-.87,1.37-3-.25-3.41a3.12,3.12,0,0,0-2,.32,3.26,3.26,0,0,0-2.06,2A2.26,2.26,0,0,0,28.25,58.65Z" fill="#cc553b"/><path d="M28.27,58.64c.51,1.61,1.95,1.22,3.13.56a3.08,3.08,0,0,0,1.8-3C33,54.68,31,55,30,55.58a2.59,2.59,0,0,0-1.75,3.06Zm0,0A2.66,2.66,0,0,1,30,55.57c1-.6,3-.94,3.37.58a3,3,0,0,1-1.88,3.26c-1.23.62-2.82,1-3.27-.76Z" fill="#af2f1a"/><path d="M32,55.34a.12.12,0,0,1-.1,0,2.36,2.36,0,0,0-.88.15l-.21.14c-.06,0-.19.09-.2,0s.1-.11.15-.14a2.24,2.24,0,0,1,.6-.25l.29,0a.39.39,0,0,1,.28,0s.07,0,.07.07Z" fill="#efa9a3"/><path d="M30.23,55.83h.07a.09.09,0,0,1,0,.07l-.05.05-.19.13a.08.08,0,0,1-.08,0A.06.06,0,0,1,30,56s0,0,0-.06h0A.45.45,0,0,1,30.23,55.83Z" fill="#efa9a3"/><path d="M29.63,59.47l.25,0s.26-.13.28,0a.05.05,0,0,1,0,0,1,1,0,0,1-.6.18.69.69,0,0,1-.54-.11.1.1,0,0,1,0-.07.08.08,0,0,1,.08,0l.12,0a.39.39,0,0,0,.18,0Z" fill="#efa9a3"/><path d="M30.1,57a.11.11,0,0,1,.13,0,.11.11,0,0,1,0,.13.09.09,0,1,1-.11-.15" fill="#efa9a3"/><path d="M12.34,49.92l.31,0a1.94,1.94,0,0,1,.61.22,2.39,2.39,0,0,1,.34.21,4.4,4.4,0,0,1,.46.4c.38.4.42.69.3,1h.25a2.65,2.65,0,0,1,.48.08l.43.1c.13,0,.25.06.37.09l.23.05a.58.58,0,0,1,.19,0h.08c.81.15,1.62.31,2.42.48.52.12,1.05.21,1.56.35a2.44,2.44,0,0,1,.6.19c.41.07.83.09,1.25.14a10.18,10.18,0,0,1,1.45.34c1.22.19,2.44.37,3.66.52h0q.87.12,1.74.21c2,.24,4.08.42,6.12.53l.45,0h.19l2,.07h.06l.47,0h.24a.66.66,0,0,1,.34.08h0l0,0a.24.24,0,0,1,.08.09.5.5,0,0,1-.11.49l-.08.1a3.57,3.57,0,0,1-.54.49l-.11.09-.34.26c-.77.65-1.54,1.29-2.33,1.92l-.43.34c-.86.67-1.74,1.34-2.63,2-1.22.88-2.47,1.72-3.76,2.48a59.64,59.64,0,0,1-6.52,3.2h0a50.4,50.4,0,0,1-5.5,1.92c-.61.18-1.22.34-1.84.5-.39.12-.81.23-1.22.32a6.31,6.31,0,0,1-1.57.37h-.29l-.24.1h0l-.07,0a1.93,1.93,0,0,1-.24.13h0l-.12.05-.51.21h0l-.21.1-.05,0-.17.07-.06,0-.17.06,0,0-.22.08h0l-.75.3-.05,0h0c-.11.05-.29.14-.47.21h0l-.1,0h0l-.07,0H8.08l-.16,0H7.78s0,0,0,0l-.09,0h0l-.06,0a1.33,1.33,0,0,1-.21-.26c-.11-.16-.22-.31-.34-.46s-.25-.32-.23-.36v0l0-.14a3.89,3.89,0,0,1-.21-.88l0-.23c0-.23-.06-.45-.1-.67-.09-.61-.18-1.23-.24-1.84A21,21,0,0,1,8.8,53.89c.36-.65.76-1.29,1.17-1.9l.51-.72a5.56,5.56,0,0,1,.42-.54l.23-.25a1.68,1.68,0,0,1,1.21-.56M12,69.58h0m.33-20.66h0a2.73,2.73,0,0,0-1.91.84l-.29.31c-.16.2-.32.4-.47.61s-.35.49-.52.75a22.76,22.76,0,0,0-4,14.81c.06.59.15,1.17.23,1.74l0,.14c0,.22.07.44.1.66v.11l0,.12a5,5,0,0,0,.23,1,1.76,1.76,0,0,0,.43.85l.29.39,0,0a2.18,2.18,0,0,0,.35.43l.12.1a.85.85,0,0,0,.21.14l.15.08.06,0,.07,0,.15,0H8l.32,0h.05l.11,0H8.5l.09,0L8.72,72h.06l.36-.17.1,0,.59-.24.16-.07.21-.07h0l.05,0,.19-.08h0l.06,0,.19-.08h0l.05,0,.22-.11h0l.4-.17.16-.06a2.56,2.56,0,0,0,.4-.21h0a1,1,0,0,0,.24,0,5.92,5.92,0,0,0,1.45-.33l.2-.06c.45-.1.88-.22,1.24-.32L17,69.33a52.43,52.43,0,0,0,5.61-2,62.84,62.84,0,0,0,6.64-3.26c1.23-.73,2.48-1.55,3.84-2.54.85-.61,1.72-1.27,2.67-2l.35-.28.08-.07c.81-.64,1.6-1.29,2.36-1.95l.17-.13.12-.09.12-.09a4.83,4.83,0,0,0,.68-.62l.14-.17a1.44,1.44,0,0,0,.19-1.54,1.31,1.31,0,0,0-.39-.45l-.08,0,0,0-.08,0a1.64,1.64,0,0,0-.72-.19h-.8l-2-.07h-.63c-1.9-.1-3.94-.28-6.06-.52-.58-.07-1.15-.13-1.72-.21-1.19-.15-2.4-.32-3.59-.52-.12,0-.23-.06-.35-.09a7.79,7.79,0,0,0-1.19-.25l-.46-.05-.6-.06a3,3,0,0,0-.54-.17l-.09,0c-.42-.12-.83-.2-1.23-.28L19,51.54c-.77-.17-1.6-.34-2.45-.49a1.09,1.09,0,0,0-.26,0h-.2l-.38-.09-.17,0-.23,0h0a2.42,2.42,0,0,0-.5-.74,4.22,4.22,0,0,0-.6-.53,4.43,4.43,0,0,0-.46-.29,3.16,3.16,0,0,0-.91-.31,2.61,2.61,0,0,0-.48,0Z" fill="#ad6c36"/><path d="M5.89,62.37a2.42,2.42,0,0,0,1.54-.19c2.77-1.22,6.52-9,1-8.37C5.05,54.23,1.41,61.21,5.89,62.37Z" fill="#92dbe0" stroke="#368c8e" stroke-linecap="round" stroke-linejoin="round"/></g></svg>