<svg xmlns="http://www.w3.org/2000/svg" width="100" height="100" viewBox="0 0 100 100"><g id="toppings"><path d="M31.54,65.78c-1.72-1.51-3.93-2.42-5.87-3.64a18.33,18.33,0,0,1-2.81-2A6.13,6.13,0,0,1,21,57.2c-.8-3.21,2.9-2.41,4.67-1.75a30.3,30.3,0,0,0,7.21,1.71" fill="#92dbe0" stroke="#368c8e" stroke-linecap="round" stroke-linejoin="round"/><path d="M21.45,50.63a2.92,2.92,0,0,0-2.58-1.87H17.42c-.9,0-1.13-.36-1.12-1,0-.78,0-1.29,0-1.34a24.47,24.47,0,0,1-5.19.31h-1c-2.91,0-5.19-.15-5.19-.32,0,0,.17,11.52.17,12.73A13.91,13.91,0,0,1,5,61.63H5c0,.1,0,.23,0,.33H5c-.06.3,0,.62-.12.95-.29,1.2-.67,3-.67,3.07,0,1.17,2.52,1.85,6.39,1.85S17,67.14,17,66a7.61,7.61,0,0,0-.32-1.56s.62-.06,2.19-.4a2.82,2.82,0,0,0,2.43-1.93,29.74,29.74,0,0,0,.75-5.46A24.91,24.91,0,0,0,21.45,50.63ZM19.93,61c-.23,1.44-1.07,1.34-2.29,1.54-.79.14-1.3,0-1.38-.11h0c-.24.08-.11-2.43-.11-3.25s.05-4.54.1-7.84c0-1.23,1.17-.94,1.7-.94s1.56,0,1.88.76a17.9,17.9,0,0,1,.57,4.14A30.18,30.18,0,0,1,19.93,61Z" fill="#f0efee"/><path d="M16.25,62.09c0,.77-.92,1.32-2.54,1.7a13.18,13.18,0,0,1-2.58.32h-1a13.07,13.07,0,0,1-2.57-.32C5.94,63.41,5,62.87,5,62.1H5c0-.1.09-2.12.09-3C5.12,57.94,5,46.42,5,46.42c0,.17,2.28.3,5.19.32h1a24.47,24.47,0,0,0,5.19-.31c0,.26-.17,11.53-.17,12.72C16.15,60,16.25,62.09,16.25,62.09Z" fill="#f7d100"/><path d="M16.32,46.42l-.06,4.28S14,51,11.13,51h-1A22.72,22.72,0,0,1,5,50.65L5,46.3c0,.17,2.26.42,5.17.44h1a24.47,24.47,0,0,0,5.19-.31Z" fill="#f0e9d5"/><path d="M5.07,62.41c.16,1,2.53,1.46,4.76,1.71-4.15-.44-4.73,0-5,.56s0,1.48,2.26,2a15.46,15.46,0,0,0,7.61-.18c2.2-.85,2-1.85,2-1.85.25.54,0,.55.21,1s-.27,1-.73,1.28a6.74,6.74,0,0,1-2.6.68,21.33,21.33,0,0,1-6.43-.07c-1.83-.39-3.13-.79-2.9-1.91C4.61,64.23,4.91,63.33,5.07,62.41Z" fill="#deceab" opacity="0.56"/><path d="M5,46.3c-.07,0-.26-.22-.25-.29-.1-.41.1-1.08,1.41-1a6.87,6.87,0,0,0,2.58-.6,4.79,4.79,0,0,1,3.43-.21,12.62,12.62,0,0,0,3.19.79c1,.11,1.37.28,1.09,1.72a2.62,2.62,0,0,0-.36.93,8.31,8.31,0,0,1-.35.87,3.64,3.64,0,0,1-.36,1.22c-.05.81-.67,1-.91.54A8.49,8.49,0,0,1,14,49c-.62-.34-.6-.82-1.23-1.56a2.67,2.67,0,0,0-2-.71,49.09,49.09,0,0,1-5.6-.34Z" fill="#e8e5d8"/><path d="M16.18,60.07c0-1.28,0-6.3.05-7.56s0-1.81,0-1.81A55.66,55.66,0,0,1,5,50.65v.15a.09.09,0,0,0,0,.05.78.78,0,0,1,0,.22c0,.25,0,.71,0,1.54,0,0,0,4.54,0,6.15s0,2,.55,2.61.84-.61.84-1.63,0-6.23,0-6.81c0-1.51.21-1.9,1.12-1.86,6.19.29,7.52-.73,7.53,2.2,0,.77,0,6.8-.13,7.94s-1.66,2.21-3.27,2.39c-1.24.13-3,.53-1.07.52a11.14,11.14,0,0,0,4.45-.79,2.24,2.24,0,0,0,1.17-1S16.22,61.4,16.18,60.07Z" fill="#cf8e25" opacity="0.57"/><path d="M16.26,62.4a.8.8,0,0,0,.69.15s-.46,1.28.3,1.73l-.53.13Z" fill="#75725b" opacity="0.63"/><path d="M16.84,62.87c.95-.16,2.18.14,2.87-.68-.67.84-1.92.57-2.86.75v-.07Z" fill="#a29d9f"/><path d="M5.59,45.41c-.58.48-.57.8.29.85s3.78.32,4.86.32,2.91.52,3.59.3c.45-.15,1.39-.08,1.66-.46s.06-1.05-.45-.52-1.16-.37-1.71-.2a8.18,8.18,0,0,1-2.22.48c-.74,0-4.14-.41-3.38-.92s.86-1-.39-.54S6.47,44.91,5.59,45.41Z" fill="#f0efee"/><circle cx="13.29" cy="59.72" r="0.27" fill="#f4e7c8" opacity="0.57"/><circle cx="11.13" cy="54.73" r="0.27" fill="#f4e7c8" opacity="0.57"/><circle cx="9.42" cy="56.93" r="0.27" fill="#f4e7c8" opacity="0.57"/><circle cx="12.74" cy="61.31" r="0.19" fill="#f4e7c8" opacity="0.57"/><circle cx="12.06" cy="57.12" r="0.19" fill="#f4e7c8" opacity="0.57"/><circle cx="10.93" cy="52.85" r="0.19" fill="#f4e7c8" opacity="0.57"/><circle cx="13.01" cy="53.76" r="0.19" fill="#f4e7c8" opacity="0.57"/><circle cx="11.88" cy="58.38" r="0.38" fill="#f4e7c8" opacity="0.57"/><circle cx="13.21" cy="56.84" r="0.27" fill="#f4e7c8" opacity="0.57"/><path d="M12.23,47.07a2.62,2.62,0,0,1,.91.84A3.29,3.29,0,0,0,13.91,49a4.18,4.18,0,0,1,.46,1c.16.39.36.54.53.51s.34-.45.52-.89a2.89,2.89,0,0,0,.33-1.13,5.92,5.92,0,0,0,.51-1.43c.18-.23.25-.55-.06-.36a10.11,10.11,0,0,1-3.19.24c-.91-.08-1.21-.17-.91.06Z" fill="#f0e9d5" opacity="0.66"/><path d="M13.55,47.32a2.16,2.16,0,0,0,.88.06,3.58,3.58,0,0,0,.43-.08c.08,0,.32-.12.39,0,.22.2-.14.65-.29.79a.28.28,0,0,0-.09.1,1.1,1.1,0,0,0-.06.26,1.94,1.94,0,0,0,0,.34c0,.1,0,.2,0,.3a2.36,2.36,0,0,1,0,.46.77.77,0,0,0,.08.45c.06.08.14.1.21,0s.17-.14.17,0a1.05,1.05,0,0,1-.06.24.53.53,0,0,1-.21.26.44.44,0,0,1-.32,0,.52.52,0,0,1-.27-.31A6.16,6.16,0,0,0,14,49.06c-.16-.22-.41-.37-.56-.61l-.14-.28a2.49,2.49,0,0,0-.35-.5l-.22-.25c-.05-.05-.19-.17-.19-.25s.3-.08.39,0A3.51,3.51,0,0,0,13.55,47.32Z" fill="#e8e5d8" opacity="0.65"/><path d="M5,50.65l.48.07V46.89c0-.28,0-.29.88-.24s4.35.2,4.74.23a2.23,2.23,0,0,1,1.61.88c.5.68.36.85.88,1.22s.42,1,.73,1.36.69.43.9.07.47-1.55.6-1.56A8.4,8.4,0,0,1,16,50.72l.25,0,0-3.75a2.41,2.41,0,0,0-.18.59,2.47,2.47,0,0,1-.33.79c-.12.2-.09.71-.18.87a3.56,3.56,0,0,0-.29.85c-.08.36-.23.46-.42.45s-.3-.06-.48-.45A3.44,3.44,0,0,0,13.91,49a3.12,3.12,0,0,1-.69-.92,2.8,2.8,0,0,0-1.46-1.17,37.41,37.41,0,0,0-4.21-.24A11.23,11.23,0,0,1,5,46.3s-.06.08,0,.48S5,50.65,5,50.65Z" fill="#deceab"/><path d="M20.4,55.27a17.9,17.9,0,0,0-.57-4.14c-.32-.76-1.36-.76-1.88-.76s-1.68-.29-1.7.94c-.05,3.3-.1,7.17-.1,7.84,0,.47,0,1.48.07,2.25v.07c0,.14,0,.27,0,.39V62h0a.19.19,0,0,0,0,.08c0,.19,0,.31,0,.31s.59.25,1.38.11c1.22-.2,2.06-.1,2.29-1.54A30.18,30.18,0,0,0,20.4,55.27Z" fill="none" stroke="#5e5e5e" stroke-linecap="round" stroke-linejoin="round"/><path d="M4.81,46.1C4.48,45.58,5.05,45,5.86,45a6.46,6.46,0,0,0,2.89-.61,4.79,4.79,0,0,1,3.43-.21,11.72,11.72,0,0,0,3.07.77c.41.05,1.08.05,1.22.53a1.93,1.93,0,0,1,0,1.21c-.07.18-.21.33-.27.51s-.07.43-.14.64a4.3,4.3,0,0,1-.24.48,1.5,1.5,0,0,0-.14.69,4.11,4.11,0,0,1-.25.61c-.1.25-.16.85-.52.89a.35.35,0,0,1-.29-.1.62.62,0,0,1-.17-.25A4.25,4.25,0,0,0,13.91,49c-.09-.1-.2-.18-.3-.28a4.28,4.28,0,0,1-.47-.77,2.63,2.63,0,0,0-2.31-1.16c-1.61,0-4.81-.17-5.6-.34A.77.77,0,0,1,4.81,46.1Z" fill="none" stroke="#b2a18e" stroke-linecap="round" stroke-linejoin="round" stroke-width="0.08"/><path d="M16.05,67.05c.63-.29,1-.66,1-1.09,0,0-.13-.71-.32-1.56h0" fill="none" stroke="#5e5e5e" stroke-linecap="round" stroke-linejoin="round" stroke-width="0.08"/><path d="M16.26,62.4s0-.12,0-.31a.19.19,0,0,1,0-.08h0v-.15a.28.28,0,0,1,0-.09c0-.09,0-.2,0-.3V61.4c0-.1,0-.19,0-.3h0c0-.72-.05-1.55-.05-2" fill="none" stroke="#5e5e5e" stroke-linecap="round" stroke-linejoin="round" stroke-width="0.08"/><path d="M10.88,43.94a3.43,3.43,0,0,1,1.3.23,12.32,12.32,0,0,0,3,.76h.06c.41.05,1.08.06,1.22.53,0,0,0,0,0,.05a1.12,1.12,0,0,1,0,.21,1.8,1.8,0,0,1-.07,1,.89.89,0,0,1-.08.17.75.75,0,0,1-.07.12V47l0,1.14a.47.47,0,0,1,0-.17.47.47,0,0,0,0,.17v0a.24.24,0,0,0,0,.09c.13.31.43.48,1.05.48h1.45a3.13,3.13,0,0,1,1.55.53l.09.07.08.06a.69.69,0,0,1,.13.11l.11.1h0l.15.17a2.31,2.31,0,0,1,.36.57c0,.08.07.17.11.26a2.17,2.17,0,0,1,.08.3,1.05,1.05,0,0,1,0,.19c0,.15.08.31.11.49l0,.18.06.39,0,.2c.05.33.08.68.12,1a1.49,1.49,0,0,0,0,.21c.05.7.09,1.41.11,2,0,.31,0,.59,0,.83v.14c0,.19,0,.4,0,.63s0,.22,0,.33,0,.26,0,.39l-.06.59c-.05.4-.11.82-.17,1.22l0,.19-.06.39,0,.19-.06.35c-.07.34-.13.65-.19.88s-.05.22-.07.3l-.09.24,0,.08a2.31,2.31,0,0,1-.47.71l-.07.07a2.89,2.89,0,0,1-.42.32l-.11.07-.09,0-.1,0-.1.05a4.84,4.84,0,0,1-.95.3l-.2,0c-1.11.23-1.69.32-1.9.34l-.07,0h0A7,7,0,0,1,17,65.8a.49.49,0,0,1,0,.12v.17s0,0,0,.07v0l0,.1h0l0,.08v0a.21.21,0,0,0,0,.06l0,0-.07.08,0,0,0,0-.06.06h0a2.43,2.43,0,0,1-.62.38,4.2,4.2,0,0,1-.73.26,14,14,0,0,1-3,.45c-.58,0-1.21.07-1.84.07a17.84,17.84,0,0,1-2.6-.17c-2.13-.24-3.45-.8-3.56-1.6a.34.34,0,0,1,0-.1c0-.11.37-1.87.66-3.07h0C5,62.57,5,62.26,5,62v-.07a.8.8,0,0,1,0-.26c0-.1,0-.21,0-.31,0-.41,0-.87.05-1.28a11.83,11.83,0,0,1,0-1.28c0-1,0-3.1,0-4.57,0-1.17,0-2.41,0-3.54H5v-.07c0-.5,0-3.23,0-3.74,0-.25,0-.4,0-.41v-.15c-.09-.06-.21-.2-.2-.26h0c-.21-.49.3-1,1-1h.39a7.76,7.76,0,0,0,1.71-.27l.3-.1c.18-.06.37-.14.57-.23a5.52,5.52,0,0,1,2.13-.44M5,46.34a.16.16,0,0,0,0,0H5l0,0,0,.06H5m2.55.29h0m8.71,15.7h0l0,.06h0v0h0v-.05h0M5,46.42H5m5.93-3.48v0a6.41,6.41,0,0,0-2.53.53l-.48.19-.3.1A6.88,6.88,0,0,1,6.15,44H5.72A2.18,2.18,0,0,0,4,44.94a1.54,1.54,0,0,0-.16,1.35,1,1,0,0,0,.16.35v.2L4,49.4v1.26l0,3.54c0,1.46,0,3.57,0,4.56a12.56,12.56,0,0,0,0,1.3c0,.38,0,.8-.05,1.18l0,.22a1.58,1.58,0,0,0,0,.44c0,.13,0,.26,0,.39a2,2,0,0,1-.05.38S3.25,65.6,3.25,66a1.94,1.94,0,0,0,0,.24c.18,1.33,1.63,2.13,4.44,2.45a18.08,18.08,0,0,0,2.71.18c.64,0,1.28,0,1.92-.07a15.11,15.11,0,0,0,3.22-.49,4.36,4.36,0,0,0,.9-.32,3.44,3.44,0,0,0,.83-.52l.11-.1,0,0,.09-.09a1.34,1.34,0,0,0,.11-.14l0,0,.08-.13,0-.06s.05-.1.08-.16a1.52,1.52,0,0,0,.08-.22s0-.06,0-.07,0-.1,0-.16,0-.06,0-.07A1.41,1.41,0,0,0,18,66v-.09a2,2,0,0,0,0-.23l-.07-.42,1-.2.2,0a6,6,0,0,0,1.15-.37l.12,0,.14-.07.1-.06.16-.09a3.21,3.21,0,0,0,.58-.45l.1-.09a3.61,3.61,0,0,0,.67-1l0-.11a2.83,2.83,0,0,0,.11-.31l.1-.36c.06-.25.12-.57.19-.93l.06-.36,0-.2.06-.39v-.07l0-.13c.06-.41.12-.84.17-1.25,0-.21,0-.41.07-.61l0-.41,0-.35c0-.25,0-.48,0-.69v-.15c0-.25,0-.53,0-.85,0-.7-.06-1.42-.12-2.07l0-.21c0-.37-.07-.74-.12-1.09l0-.21-.06-.41,0-.2c0-.19-.07-.37-.11-.54l-.06-.22a3.58,3.58,0,0,0-.11-.35,3.84,3.84,0,0,0-.14-.36,3.41,3.41,0,0,0-.5-.79l-.2-.22,0,0-.14-.14-.17-.14-.12-.09L21,48.46a4.1,4.1,0,0,0-2.11-.7H17.33v-.55L17.4,47a2.92,2.92,0,0,0,.12-1.47,1.73,1.73,0,0,0-.08-.33v0A2,2,0,0,0,15.5,44h-.13a12.39,12.39,0,0,1-2.79-.69,4.23,4.23,0,0,0-1.7-.32Z" fill="#5e5e5e"/><path d="M20.26,61.35a2.36,2.36,0,0,0,1.49-.43c2.54-1.63,5-10-.31-8.42C18.17,53.44,15.65,60.9,20.26,61.35Z" fill="#92dbe0" stroke="#368c8e" stroke-linecap="round" stroke-linejoin="round"/></g></svg>