<svg xmlns="http://www.w3.org/2000/svg" width="100" height="100" viewBox="0 0 100 100"><g id="toppings"><path d="M31.86,69.76a29,29,0,0,0-5.37-4.51,14.11,14.11,0,0,1-4.78-5.58,4,4,0,0,1-.4-2.4,1.84,1.84,0,0,1,1.52-1.52,3.66,3.66,0,0,1,1.93.55l8.14,4" fill="#92dbe0" stroke="#368c8e" stroke-linecap="round" stroke-linejoin="round"/><path d="M26.05,55.71a2.91,2.91,0,0,1-.63.21l-2.27.74-3.33,1.08L16,59l-3.65,1.19-2.89.94-.79.26a1.33,1.33,0,0,1-.58.13,1.64,1.64,0,0,1-1.25-1.73A1,1,0,0,1,7.23,59a3.52,3.52,0,0,1,1-.29l2.65-.86,3.54-1.15,3.82-1.24,3.49-1.13,2.54-.83,1-.32c.75-.24,1.18,1.14,1.2,1.64a1.2,1.2,0,0,1-.1.62A.61.61,0,0,1,26.05,55.71Z" fill="#7a4130"/><path d="M25.23,53.18l-17,5.53a3.52,3.52,0,0,0-1,.29,1,1,0,0,0-.37.76,1.64,1.64,0,0,0,1.25,1.73,1.33,1.33,0,0,0,.58-.13l.79-.26,15.94-5.18a2.91,2.91,0,0,0,.63-.21.61.61,0,0,0,.28-.27,1.2,1.2,0,0,0,.1-.62C26.41,54.32,26,52.94,25.23,53.18Zm-2.93,3a2.53,2.53,0,0,1-.64.21c-.46.13-.92.26-1.38.41-2.49.77-5,1.65-7.45,2.41-.72.22-1.49.38-2.18.66s-1.37.5-2.06.73c-.3.11-.59.29-.91.15a.53.53,0,0,1-.38-.56c0-.2.29-.36.45-.44s.53,0,.79-.1a2.48,2.48,0,0,0,.54-.32c.31-.19.63-.08,1-.17a5.65,5.65,0,0,0,.57-.23c.29-.13.59-.2.88-.31a6.78,6.78,0,0,1,.84-.35A12,12,0,0,0,13.53,58c.18,0,.31-.17.49-.22s.42,0,.63-.08a2.5,2.5,0,0,0,1-.47,1.48,1.48,0,0,1,.93-.38,11.33,11.33,0,0,0,1.29-.26,2.74,2.74,0,0,0,1.29-.35,2.05,2.05,0,0,1,.84-.29,3,3,0,0,0,.95-.39c.41-.21.94-.56,1.38-.22a.51.51,0,0,1,.18.5A.57.57,0,0,1,22.3,56.18Z" fill="#633427"/><path d="M25.28,53.35a2.74,2.74,0,0,1-.63.21l-2.26.74-3.34,1.08-3.8,1.23L11.61,57.8l-2.89.94-.8.26a1.25,1.25,0,0,1-.57.13A1.62,1.62,0,0,1,6.1,57.4a1,1,0,0,1,.36-.76,3.62,3.62,0,0,1,1-.29l2.65-.86,3.54-1.15,3.82-1.24L20.93,52l2.54-.83,1-.32c.76-.24,1.18,1.14,1.21,1.64a1.19,1.19,0,0,1-.11.62A.57.57,0,0,1,25.28,53.35Z" fill="#7a4130"/><path d="M24.46,50.82l-17,5.53a3.62,3.62,0,0,0-1,.29,1,1,0,0,0-.36.76,1.62,1.62,0,0,0,1.25,1.73A1.25,1.25,0,0,0,7.92,59l.8-.26,15.93-5.18a2.74,2.74,0,0,0,.63-.21.57.57,0,0,0,.28-.27,1.19,1.19,0,0,0,.11-.62C25.64,52,25.22,50.58,24.46,50.82Zm-2.93,3a2.4,2.4,0,0,1-.64.21c-.46.13-.92.26-1.37.41-2.5.77-5,1.65-7.46,2.41-.72.22-1.49.38-2.18.66s-1.37.5-2.05.73c-.31.11-.6.29-.92.16a.56.56,0,0,1-.38-.57c0-.2.29-.36.46-.44s.52,0,.79-.09A3.32,3.32,0,0,0,8.31,57c.32-.19.63-.08,1-.17a4.84,4.84,0,0,0,.57-.23c.29-.13.59-.2.88-.31a6.32,6.32,0,0,1,.85-.35,11.86,11.86,0,0,0,1.18-.27c.18,0,.31-.17.49-.22s.43,0,.63-.07a2.69,2.69,0,0,0,1.06-.48,1.43,1.43,0,0,1,.92-.38,12,12,0,0,0,1.3-.26,2.59,2.59,0,0,0,1.28-.35,1.9,1.9,0,0,1,.84-.28,3.37,3.37,0,0,0,1-.4c.41-.21.94-.56,1.37-.22a.5.5,0,0,1,.19.5A.62.62,0,0,1,21.53,53.82Z" fill="#633427"/><rect x="4.95" y="51.57" width="19.96" height="1.68" rx="0.33" transform="translate(-15.46 7.17) rotate(-17.99)" fill="#b02727"/><path d="M24.28,50a.47.47,0,0,1-.35,0,.51.51,0,0,1-.24-.24,1.89,1.89,0,0,1-.18-.41.45.45,0,0,1,.1-.48.45.45,0,0,1,.43-.11.43.43,0,0,1,.28.26l-.06-.19a.34.34,0,0,0-.42-.22l-18.35,6a.34.34,0,0,0-.21.42l.31,1a.34.34,0,0,0,.42.22l18.35-6a.34.34,0,0,0,.21-.42l0-.12A.49.49,0,0,1,24.28,50Zm-4.07.93c-.11.29-.51.39-.78.48l-.6.2c-3.51,1.18-7,2.4-10.53,3.52-.76.23-1.51.47-2.27.69-.41.12-.55-.55-.39-.81.24-.42,1-.5,1.42-.63l1.75-.56c3.54-1.12,7-2.35,10.62-3.38C19.79,50.34,20.43,50.36,20.21,50.94Z" fill="#922"/><path d="M7,58.38H27.82a.32.32,0,0,1,.32.32v1a1.82,1.82,0,0,1-1.82,1.82H8.54a1.82,1.82,0,0,1-1.82-1.82v-1A.32.32,0,0,1,7,58.38Z" transform="translate(-17.66 8.32) rotate(-17.99)" fill="#db9951"/><path d="M26.77,55.27,25,55.85h.14c.94,0,1.08,1.2.54,1.76a3,3,0,0,1-.9.55c-1,.42-2,.68-3.06,1l-3.12,1L10.16,63c-.77.26-1.82.6-2.41.19a.83.83,0,0,1-.3-.37c-.09-.18-.3-.52-.2-.74s.44-.34.64-.44A44.23,44.23,0,0,1,12.33,60l3.87-1.32,2-.66-11,3.58c-.2.07-.33.24-.29.38l.41,1.26c.26.79,1.41,1.13,2.56.75L26,58.78c1.15-.38,1.88-1.33,1.63-2.12l-.41-1.26C27.18,55.26,27,55.2,26.77,55.27Z" fill="#d18847"/><path d="M7,58.38H27.82a.32.32,0,0,1,.32.32v1a1.82,1.82,0,0,1-1.82,1.82H8.54a1.82,1.82,0,0,1-1.82-1.82v-1A.32.32,0,0,1,7,58.38Z" transform="translate(-17.66 8.32) rotate(-17.99)" fill="none" stroke="#ad6c36" stroke-miterlimit="10" stroke-width="0.1"/><path d="M25.6,50.73a.54.54,0,0,1-.42.13H25c-.13,0-.05.23-.12.32s-.27.14-.39.19-.43.29-.59.25a1,1,0,0,1-.29-.18.26.26,0,0,1-.18.22.89.89,0,0,1-.4.07c-.11,0-.23-.08-.34-.06s-.18.08-.28.1-.22,0-.32,0S22,52,22,52s.06,0,.08.07a.12.12,0,0,1,0,.15.42.42,0,0,1-.14.09l-.58.23a.25.25,0,0,1-.14,0c-.15,0,0-.19,0-.26s-.09-.19-.19-.19a.34.34,0,0,0-.26.12c-.1.09-.18.21-.3.23a1,1,0,0,1-.35,0s-.41,0-.41.11.12.11.15.15a.28.28,0,0,1,0,.2.42.42,0,0,1-.34.23c-.31.08-.54.31-.85.42l-.09,0a.08.08,0,0,1-.07,0,.09.09,0,0,1,0-.09c.17-.18-.15-.19-.26-.18s-.54.15-.38.26.05,0,.07,0a.13.13,0,0,1,.09.17.31.31,0,0,1-.14.16.92.92,0,0,1-.78,0,.53.53,0,0,0-.59.12.71.71,0,0,1-.42.19.2.2,0,0,1-.13,0,.12.12,0,0,1-.07-.11c0-.09.18-.13.15-.22s-.08-.06-.13,0a2,2,0,0,0-1.29.69.72.72,0,0,1-.42.32s-.11,0-.12,0,0-.05,0-.08-.09-.06-.14-.06-.63,0-.56.21.11.07.16.12a.14.14,0,0,1,0,.18.26.26,0,0,1-.19.07h-.21c-.15,0-.25.13-.37.21a1.65,1.65,0,0,1-.45.19.19.19,0,0,1-.13,0c-.06,0,0-.13-.07-.2A.18.18,0,0,0,12,55.3a.68.68,0,0,0-.22.09.79.79,0,0,0-.23.09,2,2,0,0,1-.41.31.15.15,0,0,1-.13,0,.08.08,0,0,1-.06-.11s.11-.08.09-.13-.06,0-.1,0a1.08,1.08,0,0,0-.53.11s-.3.12-.21.2.06,0,.09,0,0,.08,0,.12a.19.19,0,0,1-.12.07c-.39.14-.78.32-1.17.45-.06,0-.13,0-.17,0s-.06-.09-.09-.13a.32.32,0,0,0-.41-.08.85.85,0,0,0-.31.34,1,1,0,0,1-.31.34.31.31,0,0,1-.23,0,.16.16,0,0,1-.12-.18s0-.09.07-.13c.27-.38-.5-.19-.62-.13a.2.2,0,0,0-.11.09.1.1,0,0,0,0,.13c0,.06.13.06.16.12s-.47.46-.6.5l-.1,0a.1.1,0,0,1-.09-.06s0-.11.07-.15.05-.12,0-.15-.08,0-.11,0-.14.06-.2.14-.14.16-.24.16a.2.2,0,0,1-.16-.18A.41.41,0,0,1,5.56,57c.05-.06.11-.12.11-.19s-.15-.17-.27-.19-.26,0-.28-.16a.18.18,0,0,1,.16-.2c.31-.09.66,0,1-.13.49-.13,1-.4,1.46-.58s1.08-.4,1.63-.59c1.19-.41,2.39-.75,3.58-1.13l5.79-1.88,4.72-1.54.92-.29c.08,0,.19,0,.25-.12s-.05-.21,0-.33.14-.09.23-.08a.32.32,0,0,1,.14,0s.08.08.06.13,0,.05-.06.07,0,.05,0,.08c.21,0,.38-.24.58-.34s.53-.09.44.22c0,.13-.12.23-.15.37a1,1,0,0,1-.21.58Z" fill="#97ba49"/><path d="M5.4,56.61a.76.76,0,0,0,.26,0,.8.8,0,0,1,.27,0,.21.21,0,0,1,.19.19c0,.05,0,.09,0,.14s0,.12.07.12a.15.15,0,0,0,.07,0,.68.68,0,0,0,.21-.34,1.09,1.09,0,0,1,.07-.24c.1-.18.43-.22.61-.28s.3-.15.41,0a.29.29,0,0,1,.06.21,1.66,1.66,0,0,1-.06.21c.11,0,.2-.11.25-.22A1.85,1.85,0,0,1,7.88,56a.58.58,0,0,1,.27-.2c.08,0,.17,0,.25-.06a.84.84,0,0,0,.14-.06.77.77,0,0,1,.45,0,.43.43,0,0,0,.22,0c.1,0,.16-.11.22-.2s.33-.23.54-.31.13-.12.2-.19a.81.81,0,0,1,.26-.18,2.19,2.19,0,0,1,.52,0,3,3,0,0,0,.73-.32,2.58,2.58,0,0,1,.86-.21c.1,0,.33-.06.41,0s0,.08.05.13.09,0,.14,0a1.3,1.3,0,0,0,.46-.22c.17-.1,0-.14,0-.26a.17.17,0,0,1,.11-.11c.21-.09.44,0,.67,0a.93.93,0,0,0,.45-.18,1.62,1.62,0,0,1,.5-.23,2.68,2.68,0,0,0,.56-.13s.1-.06.1-.11a.25.25,0,0,1,0-.07s0,0,.07-.06a1,1,0,0,1,.53,0,1,1,0,0,0,.54,0,1.16,1.16,0,0,0,.59-.28c.16-.15.28-.35.48-.42s.5,0,.46.18a.32.32,0,0,0,0,.09.09.09,0,0,0,0,.1s.1,0,.15,0a.88.88,0,0,0,.36-.3.71.71,0,0,1,.55-.36,1.93,1.93,0,0,0,.34,0,.35.35,0,0,0,.16-.06c.06,0,.07-.09.11-.13s.29-.11.41-.15a1.45,1.45,0,0,1,.45-.13,1.27,1.27,0,0,1,.28.06s.07,0,.09,0,0-.08,0-.11c.05-.24.53-.31.72-.31a1.18,1.18,0,0,0,.62,0,.44.44,0,0,0,.18-.2c0-.1,0-.17.06-.26a.36.36,0,0,1,.27-.07,1.64,1.64,0,0,1,.28.07.65.65,0,0,0,.28,0c.13,0,.16-.15.26-.19a2.38,2.38,0,0,0,.47-.17A.23.23,0,0,1,24.8,50a.14.14,0,0,1,.14,0l0,.07a.11.11,0,0,0,.14,0,.72.72,0,0,0,.24-.22c.08-.08.18-.16.28-.13a.23.23,0,0,1,.16.13.38.38,0,0,1,0,.21c0-.05.08-.12.1-.17s.08-.16.1-.24c.09-.31-.25-.31-.44-.22s-.37.3-.58.34c0,0,0-.05,0-.08s.05,0,.06-.07,0-.1-.06-.13a.32.32,0,0,0-.14,0c-.09,0-.2,0-.23.08s.09.21,0,.33-.17.09-.25.12l-.92.29L12.93,53.82c-1.19.38-2.39.72-3.58,1.13-.55.19-1.09.38-1.63.59s-1,.45-1.46.58c-.32.09-.67,0-1,.13a.18.18,0,0,0-.16.2C5.14,56.57,5.29,56.6,5.4,56.61Z" fill="#7fa32e"/><path d="M24.82,50.72a.08.08,0,0,0-.09,0,.05.05,0,0,0,0,.05l0,0A.28.28,0,0,1,25,51c0-.08.14-.12.13-.18S24.87,50.72,24.82,50.72Z" fill="#7fa32e"/><path d="M21.91,51.44c.09.15.29.2.39.33a.24.24,0,0,0-.24.06.23.23,0,0,0,0,.25A.13.13,0,0,0,22,52C21.86,51.93,21.86,51.59,21.91,51.44Z" fill="#7fa32e"/><path d="M23.42,51.15a.54.54,0,0,1,.46.41,1.57,1.57,0,0,0-.26-.1h0A1.73,1.73,0,0,0,23.42,51.15Z" fill="#7fa32e"/><path d="M21.4,52.12a.36.36,0,0,0,0,.09.07.07,0,0,0,.08,0s.06,0,.07-.07a.17.17,0,0,0,0-.1.51.51,0,0,0-.34-.3c-.12,0,0,.07,0,.11A.51.51,0,0,1,21.4,52.12Z" fill="#7fa32e"/><path d="M16,53.67a.3.3,0,0,1,.12.21s0,0,0,.08,0,0,0,0a.09.09,0,0,0,.07,0,.19.19,0,0,0,0-.08.33.33,0,0,0-.16-.26c-.05,0-.2-.1-.24,0A.75.75,0,0,1,16,53.67Z" fill="#7fa32e"/><path d="M13.88,54.47a.25.25,0,0,1,.21-.07.24.24,0,0,1,.14.14.44.44,0,0,1,0,.3.37.37,0,0,0-.25-.22.35.35,0,0,0-.31.06C13.77,54.64,13.81,54.53,13.88,54.47Z" fill="#7fa32e"/><path d="M17.8,53.05a.62.62,0,0,0,.43.25.31.31,0,0,0-.21.05c-.05,0-.1.13-.16.1S17.75,53.16,17.8,53.05Z" fill="#7fa32e"/><path d="M18.54,53a.29.29,0,0,1-.1.24c.08,0,.17.1.22,0s0-.11,0-.15Z" fill="#7fa32e"/><path d="M19.25,52.82a.08.08,0,0,1,0-.08s.07,0,.1,0,.16.22.08.29S19.28,52.88,19.25,52.82Z" fill="#7fa32e"/><path d="M11.12,55.33a.27.27,0,0,0-.13-.21.31.31,0,0,0-.25,0,.5.5,0,0,0-.35.2.29.29,0,0,1,.24,0,.32.32,0,0,1,.17.19s.27,0,.3.07h0A1,1,0,0,0,11.12,55.33Z" fill="#7fa32e"/><path d="M10.21,55.81s0,0,0,0a.11.11,0,0,1,0-.08.48.48,0,0,0,0-.12c0-.09-.07,0-.1,0S10.14,55.76,10.21,55.81Z" fill="#7fa32e"/><path d="M8.88,56.47s0,.05.06,0v0a.22.22,0,0,0,0-.19.36.36,0,0,0-.16-.11c-.05,0-.16-.09-.21,0A.85.85,0,0,1,8.88,56.47Z" fill="#7fa32e"/><path d="M26,53.35a.22.22,0,0,1,.05.08.11.11,0,0,1,0,.13,2.7,2.7,0,0,1-.35-.07,1.49,1.49,0,0,0-.47,0l-1,.32a2.06,2.06,0,0,0-1.05.73,13.45,13.45,0,0,1-1.36,1.56,1.32,1.32,0,0,1-.48.37,1.3,1.3,0,0,1-.44.06c-1.09,0-2.19,0-3.28,0a7.12,7.12,0,0,0-.8,0c-.26,0-.53.08-.79.12a14.65,14.65,0,0,0-1.6.33c-.6.17-1.18.41-1.77.6-1,.34-2.06.67-3.09,1l-1.59.48c-.34.09-.86.16-1,.53,0,.08,0,.3-.16.29s-.1-.09-.11-.16c0-.58.58-.74,1-.9,1.11-.41,2.26-.73,3.38-1.1l2.55-.83c.85-.27,1.72-.55,2.58-.78s1.77-.35,2.63-.6c.45-.14.89-.3,1.33-.48.7-.3,1.36-.66,2.07-.94s1.56-.53,2.34-.79a1.55,1.55,0,0,1,1.42,0Z" fill="#f5b81b"/><path d="M20.51,55.07a13.75,13.75,0,0,1-1.51.57,9.13,9.13,0,0,0-1.45.39c-.07,0-.15.11-.12.18s.11.06.18.06a17.47,17.47,0,0,1,1.91-.05c.32,0,.64,0,.95,0s.42.15.68,0a1.64,1.64,0,0,0,.41-.38c.15-.17.31-.34.47-.5a10.38,10.38,0,0,1,1.26-1.22c.31-.24.68-.36,1-.57,0,0,.05,0,.05-.07s-.09,0-.14,0c-.33.13-.66.29-1,.41s-.67.23-1,.37c-.54.21-1.07.45-1.59.71Z" fill="#ffd321"/><path d="M6.72,59.51a.07.07,0,0,0,0,.05s0,0,.07,0,0,0,0-.06a.64.64,0,0,1,.22-.24,1.75,1.75,0,0,0,.27-.16.05.05,0,0,0,0,0h0a1.18,1.18,0,0,0-.39.19A.34.34,0,0,0,6.72,59.51Z" fill="#ffd321"/><path d="M9.36,58.46l-.06,0s-.09,0-.13,0c-.47.16-.94.28-1.41.44,0,0-.08,0-.08.05s0,0,.05,0a15.39,15.39,0,0,0,1.63-.51Z" fill="#ffd321"/><path d="M15.2,56.57s0,0,0,0,0,0,.06,0l1.17-.15.37,0c.05,0,.11,0,.1-.07s-.05-.06-.09-.06a5,5,0,0,0-.67,0,.69.69,0,0,0-.25,0l-.33.08A2.11,2.11,0,0,0,15.2,56.57Z" fill="#ffd321"/><path d="M24.73,47.13a4.36,4.36,0,0,0-.6-1.07c-1.62-2.3-4.88-3.24-7.58-3.29A14.76,14.76,0,0,0,8.08,45.3l-.31.22a10.25,10.25,0,0,0-3,3.53A8.56,8.56,0,0,0,4,51.23a7.35,7.35,0,0,0-.12,1.15,2.27,2.27,0,0,0,.23,1.43,4.34,4.34,0,0,0,.7.78c.11.1.26.25.41.24a3.12,3.12,0,0,0,.59-.19l1.58-.52,2.32-.75,2.79-.91,3-1,2.94-1,2.62-.85,2-.66.76-.25a1.2,1.2,0,0,0,.5-.18A1.31,1.31,0,0,0,24.73,47.13Z" fill="#db9951"/><path d="M10,44.27l-.58.26.14,0a2.64,2.64,0,0,1,.44-.23Z" fill="#d18847"/><path d="M13.73,43.06l-.75.19.15,0C13.33,43.2,13.53,43.12,13.73,43.06Z" fill="#d18847"/><path d="M24.74,47.13a6.7,6.7,0,0,0-.61-1.07,7.27,7.27,0,0,0-3.41-2.49,14.74,14.74,0,0,0-2.94-.67,8.07,8.07,0,0,1,2.84,1.85c.87,1,1.14,2.79,0,3.7a5.1,5.1,0,0,1-1.55.72c-4.1,1.35-8.19,2.86-12.37,3.89A3.94,3.94,0,0,1,5,53.38c-.93-.29-1-1.83-.82-2.6A5.41,5.41,0,0,0,4,53.11a3,3,0,0,0,.41,1,1.8,1.8,0,0,0,.86.68l.66-.21,1.75-.57,2.54-.83,3-1,3.18-1,3-1L22,49.39l1.81-.59c.35-.11.71-.19.89-.55a1.37,1.37,0,0,0,.15-.77C24.81,47.36,24.78,47.25,24.74,47.13Z" fill="#d18847"/><path d="M24.74,47.13a4.36,4.36,0,0,0-.61-1.07c-1.62-2.3-4.88-3.24-7.58-3.29A14.76,14.76,0,0,0,8.08,45.3l-.31.22a10.17,10.17,0,0,0-3,3.49A8.51,8.51,0,0,0,4,51.46a7.05,7.05,0,0,0-.1,1.3A2.07,2.07,0,0,0,4.23,54a2.51,2.51,0,0,0,.44.48,1.52,1.52,0,0,0,.51.37h.1c.09,0,.19-.07.28-.09l1.33-.44L9,53.6l2.68-.88,3-1,3-1,2.74-.89,2.23-.72,1.46-.47a1.15,1.15,0,0,0,.71-1.28C24.79,47.33,24.77,47.23,24.74,47.13Z" fill="none" stroke="#ad6c36" stroke-miterlimit="10" stroke-width="0.13"/><path d="M7.46,46.82a.68.68,0,0,0-.19.11,1,1,0,0,0-.18.17c0,.07-.11.14-.06.22a.16.16,0,0,0,.19.09c.08,0,.13-.11.17-.18s.25-.37.11-.41Z" fill="#e6c9aa"/><path d="M5.81,50.87a.61.61,0,0,0-.18.1.77.77,0,0,0-.18.18c0,.06-.12.13-.07.22a.18.18,0,0,0,.19.08c.08,0,.13-.1.17-.18s.26-.37.11-.41Z" fill="#e6c9aa"/><path d="M9.25,47.09a.74.74,0,0,0,.12.17l.19.16c.07,0,.15.1.23,0a.17.17,0,0,0,.06-.2.31.31,0,0,0-.2-.15c-.06,0-.39-.21-.41-.06A.08.08,0,0,0,9.25,47.09Z" fill="#e6c9aa"/><path d="M11.81,47.27a.91.91,0,0,0-.05.21,2.09,2.09,0,0,0,0,.25c0,.08,0,.17.12.2a.18.18,0,0,0,.19-.09.32.32,0,0,0,0-.25c0-.06-.1-.44-.23-.35Z" fill="#e6c9aa"/><path d="M11.74,44.74a.7.7,0,0,0-.14.17,1.51,1.51,0,0,0-.11.22c0,.08-.05.17,0,.23a.16.16,0,0,0,.21,0c.07,0,.08-.14.09-.22s.12-.44,0-.42Z" fill="#e6c9aa"/><path d="M13.49,45.62a.58.58,0,0,0-.11.18.62.62,0,0,0-.08.24c0,.08,0,.17,0,.22a.18.18,0,0,0,.21,0,.34.34,0,0,0,.07-.24c0-.07.05-.45-.1-.41Z" fill="#e6c9aa"/><path d="M17.4,45.49a.71.71,0,0,0-.21,0,1.13,1.13,0,0,0-.24.08c-.07,0-.15.08-.15.17a.16.16,0,0,0,.14.16c.08,0,.16,0,.23-.09s.39-.23.27-.32Z" fill="#e6c9aa"/><path d="M15.59,47.42a1.26,1.26,0,0,0,.13.17,1,1,0,0,0,.19.16c.07,0,.15.1.23,0a.17.17,0,0,0,.06-.2.31.31,0,0,0-.2-.15c-.06,0-.39-.21-.41-.06Z" fill="#e6c9aa"/><path d="M17.63,43.59a.71.71,0,0,0,0,.21.75.75,0,0,0,.08.24c0,.07.07.15.17.15a.18.18,0,0,0,.16-.14.35.35,0,0,0-.09-.23s-.23-.39-.32-.27A.05.05,0,0,0,17.63,43.59Z" fill="#e6c9aa"/><path d="M20.28,45.26a.56.56,0,0,0-.21,0h-.25c-.08,0-.17,0-.2.12a.18.18,0,0,0,.08.19.31.31,0,0,0,.25,0c.07,0,.44-.1.36-.22Z" fill="#e6c9aa"/><path d="M9,50.12a.56.56,0,0,0-.21,0H8.57c-.08,0-.17,0-.2.12a.18.18,0,0,0,.08.19.31.31,0,0,0,.25,0c.07,0,.44-.1.36-.22Z" fill="#e6c9aa"/><path d="M15.05,44.41h-.22l-.24.06c-.07,0-.16.06-.17.15a.17.17,0,0,0,.12.17.3.3,0,0,0,.24-.06c.06,0,.41-.19.3-.3Z" fill="#e6c9aa"/><path d="M16.3,43.77h.23a11.57,11.57,0,0,1,3.77.71l.07,0,.11,0,.06,0,.05,0,.22.09A7,7,0,0,1,22.74,46a1.2,1.2,0,0,0,.16.16l.14.17.11.13,0,0,.13.18a3.33,3.33,0,0,1,.48.8v0a.84.84,0,0,1,.05.17.61.61,0,0,1,0,.11h0a1,1,0,0,0-.46,1.51l0,.07.2.6a1,1,0,0,0,.35.85l.06.05A.29.29,0,0,0,24,51a1,1,0,0,0,.39.73,1.6,1.6,0,0,1,.28.66.93.93,0,0,1,0,.14v.12a1,1,0,0,0-.06.92,1,1,0,0,0,.54.52l0,0a2.05,2.05,0,0,1,.23.61.93.93,0,0,1,0,.14.28.28,0,0,1,0,.13,1,1,0,0,0,.92,1.41h.15l.19.57a.5.5,0,0,1-.11.27l-.06.09a.83.83,0,0,1-.46.38L9.15,63.2a.73.73,0,0,1-.25,0,.85.85,0,0,1-.35-.08l-.1,0c-.16,0-.23-.12-.24-.15l-.09-.3L8,62.41l.12,0a1,1,0,0,0,.69-.92,1,1,0,0,0-.63-1,.7.7,0,0,1-.35-.65.61.61,0,0,0,0-.19,1,1,0,0,0-.42-1.52.7.7,0,0,1-.34-.66s0-.07,0-.09a1,1,0,0,0,0-.51,1,1,0,0,0,.56-1.27,1,1,0,0,0-.94-.66,1.06,1.06,0,0,0-.31.05l-.12,0-.06-.19a1,1,0,0,0-.79-1l-.11-.08a.44.44,0,0,1-.14-.13.39.39,0,0,0-.08-.1,1.34,1.34,0,0,0-.11-.14l0-.09,0-.06a1.52,1.52,0,0,1-.07-.74v-.08s0-.06,0-.08a5.07,5.07,0,0,1,.16-1.18l0-.11v0a8,8,0,0,1,.48-1.34l.1-.19,0,0,0-.05,0-.06,0-.1.06-.1,0,0,0-.07L6,49l0-.07.05-.09,0-.07,0-.06.06-.09,0,0,.06-.08.05-.08.07-.09,0-.05,0-.07.07-.09,0,0,0-.06,0-.06.06-.07.06-.07,0-.06,0,0,.09-.1.05-.06.06-.06.06-.07.06-.06,0-.05.08-.08.06-.06.06-.06L7.57,47l.1-.1,0,0,0,0,.07-.06,0,0,0,0,0,0,.13-.11.07-.06.21-.16.28-.2a13.92,13.92,0,0,1,7.65-2.35M26,50.45h0m1.16,5.75h0M16.3,42.77A14.81,14.81,0,0,0,8.08,45.3l-.31.22-.23.18-.08.06-.14.12-.1.08-.12.11-.1.09-.12.11-.1.1-.11.1-.1.11-.1.09-.1.12-.1.1-.1.12-.09.1-.1.12-.08.1-.1.12-.08.11-.09.13-.08.1-.09.13L5.39,48l-.09.13-.07.11a1,1,0,0,0-.08.14.41.41,0,0,0-.07.11L5,48.65a.75.75,0,0,1-.07.12l-.06.13L4.81,49v0c0,.08-.07.15-.11.22v0a8.05,8.05,0,0,0-.54,1.49h0a.83.83,0,0,0,0,.15v0a5.74,5.74,0,0,0-.18,1.38v0a2.3,2.3,0,0,0,.2,1.37,1.19,1.19,0,0,0,.12.22l.18.23a1.46,1.46,0,0,0,.44.42,1.53,1.53,0,0,0,.22.16h.06l0,0h.11a.28.28,0,0,0,0,.18l.31,1a.34.34,0,0,0,.21.21,2.25,2.25,0,0,0-.52.07.21.21,0,0,0-.16.13s0,0,0,.07,0,.09.11.12a.53.53,0,0,0,.17,0c.12,0,.27.07.27.18a.33.33,0,0,1-.11.2.41.41,0,0,0-.09.23.2.2,0,0,0,.16.18h0c.1,0,.17-.09.23-.16s.13-.08.2-.14a.12.12,0,0,1,.08,0h0a2,2,0,0,0-.06.34,1.67,1.67,0,0,0,1,1.65.71.71,0,0,0-.43.67c0,.07,0,.15.11.16h0c.07,0,.1-.07.12-.14v0a1.68,1.68,0,0,0,1,1.66l-.7.22h0l-.06,0a.37.37,0,0,0-.18.14h0v0a.22.22,0,0,0,0,.19l0,0,.29.91h0l.09.3a1.28,1.28,0,0,0,.87.79,1.84,1.84,0,0,0,.77.17,1.87,1.87,0,0,0,.56-.09l16.91-5.49a1.82,1.82,0,0,0,1-.84,1.29,1.29,0,0,0,.25-1.16l-.41-1.26a.25.25,0,0,0-.15-.13h0a.28.28,0,0,0-.13,0l-.1,0-.06,0h0l-.42.14.06-.18s0,0,0-.08h0a1.08,1.08,0,0,0,0-.31,1.11,1.11,0,0,0,0-.29v-.07a3.06,3.06,0,0,0-.37-.9h0a.11.11,0,0,0,0-.13.22.22,0,0,0-.05-.08l0,0a.92.92,0,0,0-.43-.18.09.09,0,0,0,0-.06.66.66,0,0,0,.08-.21s0,0,0-.08h0c0-.1,0-.21,0-.31s0-.18,0-.29a.64.64,0,0,1,0-.07A2.19,2.19,0,0,0,25,50.91l.08,0h.17a.57.57,0,0,0,.37-.14l0,0a1,1,0,0,0,.21-.58l0-.11,0,0v0a1,1,0,0,0,.09-.21v0c0-.18-.08-.24-.22-.24a.59.59,0,0,0-.23,0l-.08,0a1.52,1.52,0,0,1-.5.3,0,0,0,0,1,0,0h0s0,0,0,0h0l0,0a.05.05,0,0,0,0,0,.11.11,0,0,0,0-.11l0,0H24.7a.14.14,0,0,0-.09.08c-.05.11.09.2,0,.32l-.05,0a.3.3,0,0,0,0-.23l0-.12L24.32,49l-.06-.19a.38.38,0,0,0-.09-.15.57.57,0,0,0,.22-.11l0,0a.72.72,0,0,0,.27-.3,1.45,1.45,0,0,0,.14-.77c0-.12-.06-.23-.1-.35h0a4.36,4.36,0,0,0-.61-1.07L24,45.85l0-.05-.14-.16,0,0-.15-.16,0,0-.16-.17h0a8,8,0,0,0-2.21-1.47h0L21,43.67l-.1,0-.14-.06h0l-.1,0a12.5,12.5,0,0,0-4.07-.76ZM6.13,56.15l.64-.21a5.17,5.17,0,0,1-.51.18l-.13,0Z" fill="#3f1d15"/></g></svg>