<svg xmlns="http://www.w3.org/2000/svg" width="100" height="100" viewBox="0 0 100 100"><g id="Isolation_Mode" data-name="Isolation Mode"><path d="M93.79,93.45c-1.31,1-4.14,1.66-7.41,1.63s-6.09-.73-7.37-1.74a1.7,1.7,0,0,1-.52-1.91l5.32-15.72.06-8,5.43,0-.06,8,5.09,15.79A1.72,1.72,0,0,1,93.79,93.45Z" fill="#d8dfef"/><path d="M94.33,92.22c0,1.62-3.58,2.89-8,2.86s-8-1.36-7.94-3l.2-.64,2.66-8.29,10.78,1.4,2.08,7Z" fill="#84d884"/><path d="M89.24,75.75c0-.39-1.21-.71-2.71-.73a8.52,8.52,0,0,0-.9,0" fill="none" stroke="#627189" stroke-linecap="round" stroke-linejoin="round" stroke-width="0.71"/><path d="M84.78,76.42a8.5,8.5,0,0,0,1.73.17,8.38,8.38,0,0,0,1.27-.07" fill="none" stroke="#f8fbff" stroke-linecap="round" stroke-linejoin="round" stroke-width="0.71"/><ellipse cx="86.5" cy="84.4" rx="1.49" ry="5.6" transform="translate(1.59 170.41) rotate(-89.66)" fill="#b6f2b6"/><path d="M90.24,85.53a16.71,16.71,0,0,1-3.75.36,17.1,17.1,0,0,1-2.93-.24" fill="none" stroke="#d7f7d7" stroke-linecap="round" stroke-linejoin="round" stroke-width="0.62"/><path d="M80.72,84.37c0-.82,2.69-1.47,5.79-1.45s5,.68,5.59,1.52" fill="none" stroke="#3a893a" stroke-linecap="round" stroke-linejoin="round" stroke-width="0.71"/><path d="M93.79,93.45c-1.31,1-4.14,1.66-7.41,1.63s-6.09-.73-7.37-1.74a1.7,1.7,0,0,1-.52-1.91L83.71,76a2.17,2.17,0,0,0,.1-.62l0-6.81L83,67.15h7.33l-1,1.48-.05,6.81a1.87,1.87,0,0,0,.1.62l5,15.49A1.72,1.72,0,0,1,93.79,93.45Z" fill="none" stroke="#818faa" stroke-linecap="round" stroke-linejoin="round" stroke-width="1.24"/><ellipse cx="86.59" cy="66.28" rx="1.42" ry="4.65" transform="translate(19.69 152.39) rotate(-89.58)" fill="#d8dfef" stroke="#818faa" stroke-linecap="round" stroke-linejoin="round" stroke-width="1.24"/><ellipse cx="86.59" cy="66.28" rx="0.45" ry="3.44" transform="translate(19.69 152.39) rotate(-89.58)" fill="#fff"/></g></svg>