<svg xmlns="http://www.w3.org/2000/svg" width="100" height="100" viewBox="0 0 100 100"><g id="Layer_1" data-name="Layer 1"><path d="M76.87,68.74a16.47,16.47,0,0,0-6.92,0,11.13,11.13,0,0,1,6.94,0s0,.08,0,.08Z" fill="#424242"/><path d="M77.36,69.42a11.32,11.32,0,0,0-5.57,2.93,8.22,8.22,0,0,1,5.56-3,0,0,0,0,1,0,.08Z" fill="#424242"/><path d="M77.89,70.44a6.61,6.61,0,0,0-3.14,3.86c.37-1.61,1.39-3.51,3.12-3.94a0,0,0,0,1,0,.08Z" fill="#424242"/><path d="M92,69.27a11.09,11.09,0,0,1,6.93,0,16.43,16.43,0,0,0-6.91,0s-.07-.07,0-.08Z" fill="#424242"/><path d="M91.57,70a8.2,8.2,0,0,1,5.56,3,10.62,10.62,0,0,0-4-2.49A16.09,16.09,0,0,1,91.53,70a.05.05,0,0,1,0,0Z" fill="#424242"/><path d="M91.06,71c1.72.42,2.74,2.32,3.11,3.93A6.54,6.54,0,0,0,91,71.05s0-.08,0-.07Z" fill="#424242"/><path d="M92.74,63.73c0,.84.41,1.74.48,2.58A6.56,6.56,0,0,1,92.71,70a8.74,8.74,0,0,0-1.33,2.36c-.46,1.92,1,3.72,1.92,5.25a26.58,26.58,0,0,1,2.57,5,19,19,0,0,1,.86,8.89,2.76,2.76,0,0,1-.54,1.5c-.38.4-1,.32-1.34.69a12.07,12.07,0,0,1-6.65,3.47,38.05,38.05,0,0,1-11.42.36A17.71,17.71,0,0,1,73.54,97c-1.43-.44-1.5-2.07,0-2.31A18.58,18.58,0,0,1,78,95c3.44.37,7,.84,10.41-.11,1.28-.36,2.52-.85,3.78-1.29a22.35,22.35,0,0,1-4.25.08,6.94,6.94,0,0,1-1.52-.11c-.17,0-1-.75-.67-.72-.59,0-1.25-.19-1.84-.24a3.41,3.41,0,0,1-3.55.2c-.35-.2-.94-.52-.76-.87-.65-.06-1.55-.07-2.21-.12a3.05,3.05,0,0,1-3.48.32,1,1,0,0,1-.38-.37.85.85,0,0,1-.08-.39A2.07,2.07,0,0,1,73.79,90a1.3,1.3,0,0,1,1.29-.49.83.83,0,0,0,.46.07c.21-.08.2-.14.22-.36a85.35,85.35,0,0,1,1.72-12.35,15.55,15.55,0,0,0,.65-4,7.48,7.48,0,0,1-1.86-4.16,9,9,0,0,1,.56-4.5,14.23,14.23,0,0,1-.21-8.1A9.67,9.67,0,0,1,80,57.72,10.52,10.52,0,0,1,81.42,59c.51.53.69.79,1.47.63a10.32,10.32,0,0,1,4.69.14c.2.06,1.19-1.16,1.37-1.35a12.36,12.36,0,0,1,2.21-1.74c.17-.1,2.23-1.07,2.23-1.06a15.3,15.3,0,0,1,.19,4.11,13.32,13.32,0,0,1-.32,1.89,13.89,13.89,0,0,0-.51,1.89A2.26,2.26,0,0,0,92.74,63.73Z" fill="#a88585"/><path d="M95.87,82.6a26.58,26.58,0,0,0-2.57-5c-.94-1.53-2.38-3.33-1.92-5.25A8.74,8.74,0,0,1,92.71,70a6.56,6.56,0,0,0,.51-3.64,6.36,6.36,0,0,0-.55-2.24,8.84,8.84,0,0,0-1.33-1.93,17.92,17.92,0,0,0-2.35-2,.18.18,0,0,1,0-.22,15.26,15.26,0,0,1,2.14-2.6,17.57,17.57,0,0,1,1.65-1.46l-1.59.77A12.36,12.36,0,0,0,89,58.38c-.18.19-1.17,1.41-1.37,1.35a10.32,10.32,0,0,0-4.69-.14c-.78.16-1-.1-1.47-.63A10.52,10.52,0,0,0,80,57.72a10.07,10.07,0,0,0-3.06-1.52c.46.62.89,1.27,1.37,1.88.6.79,1.23,1.56,1.9,2.3a.23.23,0,0,1,0,.32c-.52.47-1,.94-1.54,1.37a7,7,0,0,0-1.41,1.52,7.38,7.38,0,0,0-1,5.12,7.48,7.48,0,0,0,1.86,4.16,15.55,15.55,0,0,1-.65,4,85.35,85.35,0,0,0-1.72,12.35c0,.22,0,.28-.22.36a.83.83,0,0,1-.46-.07,1.3,1.3,0,0,0-1.29.49,2.08,2.08,0,0,0-.37,1.38.84.84,0,0,0,.08.38,1,1,0,0,0,.38.37,3.05,3.05,0,0,0,3.48-.32c.66,0,1.56.06,2.21.12-.18.35.41.67.76.87a3.41,3.41,0,0,0,3.55-.2c.59,0,1.25.19,1.84.24-.3,0,.5.67.67.72a6.94,6.94,0,0,0,1.52.11,22.35,22.35,0,0,0,4.25-.08c-1.26.44-2.5.93-3.78,1.29-3.39.95-7,.48-10.41.11a18.58,18.58,0,0,0-4.39-.34c-1.54.24-1.47,1.87,0,2.31a17.71,17.71,0,0,0,3.24.56,38.05,38.05,0,0,0,11.42-.36,12.07,12.07,0,0,0,6.65-3.47c.34-.37,1-.29,1.34-.69a2.76,2.76,0,0,0,.54-1.5A19,19,0,0,0,95.87,82.6Z" fill="#999"/><path d="M73.5,91.75a1,1,0,0,0,.38.37,3.05,3.05,0,0,0,3.48-.32h.11c.15-.46.3-.92.43-1.38.19-.73.41-1.46.54-2.21.06-.34.2-.66.28-1a1,1,0,0,0-.25-.88,2.11,2.11,0,0,0-.72-.46,5.82,5.82,0,0,0-1-.35,1.78,1.78,0,0,0-.65,0c-.13,1.23-.24,2.47-.35,3.7,0,.22,0,.28-.22.36a.83.83,0,0,1-.46-.07,1.3,1.3,0,0,0-1.29.49,2.08,2.08,0,0,0-.37,1.38A.84.84,0,0,0,73.5,91.75Z" fill="#e0e0e0"/><path d="M78.05,96.81a8,8,0,0,0-1.21-2,11.75,11.75,0,0,0-3.26-.19c-1.54.24-1.47,1.87,0,2.31a17.71,17.71,0,0,0,3.24.56c.48.06,1,.1,1.47.14A3.66,3.66,0,0,0,78.05,96.81Z" fill="#666"/><path d="M78,74.69c-.19,1.26-.55,2.52-.79,3.73l1.49-3.48c.43-1,1-1.77.21-2.69s-2.21-1.68-2.59-3.19A11.14,11.14,0,0,0,77,71.23a6.35,6.35,0,0,0,.52.86c.1.15.61.62.61.78A10.2,10.2,0,0,1,78,74.69Z" fill="#7f7f7f"/><path d="M77,92.08a2.76,2.76,0,0,0,.39-.28c.66,0,1.56.06,2.21.12a.3.3,0,0,0,0,.29,1.75,1.75,0,0,1,.8-1.5,7.24,7.24,0,0,1,1.67-.45,13.62,13.62,0,0,1-.62-2.9,1.8,1.8,0,0,0-.17-.69,1.59,1.59,0,0,0-.58-.51L80,85.72c-.18-.11-.41-.23-.59-.12a.59.59,0,0,0-.2.36A21,21,0,0,1,77,92.08Z" fill="#7f7f7f"/><path d="M83.88,92.59c.59,0,1.25.19,1.84.24-.3,0,.5.67.67.72a6.94,6.94,0,0,0,1.52.11,11.59,11.59,0,0,0,2.82,0,8,8,0,0,1,1-.23L93,93.31c.08,0,.17,0,.17-.11-1.79-.25-3.61-.2-5.38-.53a8.56,8.56,0,0,1-1-.24c-.83-.26-.57-.81-.07-1.24.23-.21.2-.08.22-.4a18,18,0,0,1,0-1.94c.06-.45-.12-2.14.14-2.44a3.07,3.07,0,0,1-1.16.93,1.24,1.24,0,0,1-1.39-.23,8.37,8.37,0,0,1-.47,2.81,3.45,3.45,0,0,1-.85,1.41A2.24,2.24,0,0,1,80,91.05a1.06,1.06,0,0,0-.28,1.06c.21.69,1.16,1,1.8,1.06A3.39,3.39,0,0,0,83.88,92.59Z" fill="#7f7f7f"/><path d="M86.93,68.89a2.37,2.37,0,0,0,2.32-.09,1.72,1.72,0,0,0,.83-1.19c0-.14,0-.31-.14-.36a.33.33,0,0,0-.27,0c-.37.2-.66.53-1,.7a1.44,1.44,0,0,1-1.49-.2c-.27-.22-.48-.6-.83-.71a.39.39,0,0,0-.54.33C85.76,68,86.46,68.65,86.93,68.89Z" fill="#666"/><path d="M79.19,68.89a2.39,2.39,0,0,0,2.33-.09,1.71,1.71,0,0,0,.82-1.19c0-.14,0-.31-.14-.36a.31.31,0,0,0-.26,0c-.38.2-.67.53-1,.7a1.46,1.46,0,0,1-1.5-.2c-.27-.22-.48-.6-.82-.71a.39.39,0,0,0-.54.33C78,68,78.72,68.65,79.19,68.89Z" fill="#666"/><path d="M95.87,82.6a26.58,26.58,0,0,0-2.57-5c-.94-1.53-2.38-3.33-1.92-5.25A8.74,8.74,0,0,1,92.71,70a6.56,6.56,0,0,0,.51-3.64,6.84,6.84,0,0,0-.53-2.09,21.84,21.84,0,0,1-1.07-1.92,14.22,14.22,0,0,1,.69,4.79,7.49,7.49,0,0,1-3.57,5.15c-.19.11-.4.25-.39.47s.45.39.75.51c.62.23.88,1,1.08,1.58a31.14,31.14,0,0,1,1.38,4.26,4.11,4.11,0,0,1-.38,3.13,5.07,5.07,0,0,1-1.09,1,2.2,2.2,0,0,1,1.36.49c1.68,1.39,2,4.7,1,6.55A8.78,8.78,0,0,1,89,93.37a6.06,6.06,0,0,1,2.12.18,1.46,1.46,0,0,1,.88.55c.64,1.09-.8,1.65-1.54,1.87-1.3.4-2.51,1-3.85,1.34-.42.1-.85.19-1.28.27,1-.1,1.93-.24,2.87-.43a12.07,12.07,0,0,0,6.65-3.47c.34-.37,1-.29,1.34-.69a2.76,2.76,0,0,0,.54-1.5A19,19,0,0,0,95.87,82.6Z" fill="#7f7f7f"/><path d="M86,66.63c0-2.65,3.47-3.11,3.89-.36S85.93,69.48,86,66.63Z" fill="#0c470f" stroke="#042305" stroke-miterlimit="10" stroke-width="0.29"/><path d="M82,68.83a2.25,2.25,0,0,0-.21.24,1.31,1.31,0,0,0-.4,1.11,1,1,0,0,0,.92.64,2.32,2.32,0,0,0,.93-.23c.29-.12.46,0,.75.11a1.51,1.51,0,0,0,1.28,0,.75.75,0,0,0,.45-.6.88.88,0,0,0-.07-.32,2.56,2.56,0,0,0-.73-1c-.38-.35-.51-.24-.94,0a1.66,1.66,0,0,1-.91,0c-.25,0-.61.06-.63-.25-.11-.06-.24,0-.32.12A.68.68,0,0,0,82,68.83Z" fill="#e0e0e0"/><path d="M81.74,70.59a1.85,1.85,0,0,0,1.77-.32.12.12,0,0,1,.16,0,1.74,1.74,0,0,0,1.8.38,1.2,1.2,0,0,1-1,.29,2.14,2.14,0,0,1-1-.44h.17c-.55.33-1.41.6-1.92.07Z" fill="#424242"/><line x1="83.55" y1="69.75" x2="83.58" y2="70.39" fill="none" stroke="#424242" stroke-linecap="round" stroke-linejoin="round" stroke-width="0.29"/><path d="M78.22,66.63c0-2.65,3.48-3.11,3.9-.36S78.2,69.48,78.22,66.63Z" fill="#0c470f" stroke="#042305" stroke-miterlimit="10" stroke-width="0.29"/><path d="M84.46,68.39a.66.66,0,0,0-.34.09,1.29,1.29,0,0,1-.71.19,1.45,1.45,0,0,1-.35-.12c-.19-.08-.47-.31-.56,0a.57.57,0,0,0,.12.48,2.38,2.38,0,0,0,.82.72.28.28,0,0,0,.25,0,2.14,2.14,0,0,0,.84-.82C84.68,68.6,84.65,68.41,84.46,68.39Z" fill="#bf7373" stroke="#6b2c2c" stroke-miterlimit="10" stroke-width="0.29"/><path d="M92.74,63.73c0,.84.41,1.74.48,2.58A6.56,6.56,0,0,1,92.71,70a8.74,8.74,0,0,0-1.33,2.36c-.46,1.92,1,3.72,1.92,5.25a26.58,26.58,0,0,1,2.57,5,19,19,0,0,1,.86,8.89,2.76,2.76,0,0,1-.54,1.5c-.38.4-1,.32-1.34.69a12.07,12.07,0,0,1-6.65,3.47,38.05,38.05,0,0,1-11.42.36A17.71,17.71,0,0,1,73.54,97c-1.43-.44-1.5-2.07,0-2.31A18.58,18.58,0,0,1,78,95c3.44.37,7,.84,10.41-.11,1.28-.36,2.52-.85,3.78-1.29a22.35,22.35,0,0,1-4.25.08,6.94,6.94,0,0,1-1.52-.11c-.17,0-1-.75-.67-.72-.59,0-1.25-.19-1.84-.24a3.41,3.41,0,0,1-3.55.2c-.35-.2-.94-.52-.76-.87-.65-.06-1.55-.07-2.21-.12a3.05,3.05,0,0,1-3.48.32,1,1,0,0,1-.38-.37.85.85,0,0,1-.08-.39A2.07,2.07,0,0,1,73.79,90a1.3,1.3,0,0,1,1.29-.49.83.83,0,0,0,.46.07c.21-.08.2-.14.22-.36a85.35,85.35,0,0,1,1.72-12.35,15.55,15.55,0,0,0,.65-4,7.48,7.48,0,0,1-1.86-4.16,9,9,0,0,1,.56-4.5,14.23,14.23,0,0,1-.21-8.1A9.67,9.67,0,0,1,80,57.72,10.52,10.52,0,0,1,81.42,59c.51.53.69.79,1.47.63a10.32,10.32,0,0,1,4.69.14c.2.06,1.19-1.16,1.37-1.35a12.36,12.36,0,0,1,2.21-1.74c.17-.1,2.23-1.07,2.23-1.06a15.3,15.3,0,0,1,.19,4.11,13.32,13.32,0,0,1-.32,1.89,13.89,13.89,0,0,0-.51,1.89A2.26,2.26,0,0,0,92.74,63.73Z" fill="none" stroke="#424242" stroke-linecap="round" stroke-linejoin="round" stroke-width="0.29"/><path d="M77.24,91.7c.55-1.41.93-2.87,1.5-4.28,0,.35-1.19,5.46-1.5,4.28Z" fill="#424242"/><path d="M79.54,85.45a7.39,7.39,0,0,1,1.88,1.31c.29,1.19.45,2.4.64,3.6a.14.14,0,0,1-.12.16,1.94,1.94,0,0,0-2,.74,1.73,1.73,0,0,0-.24.68.15.15,0,0,1-.17.12c-.3-.09,0-.76.16-1a2.14,2.14,0,0,1,2.23-.85l-.16.16c-.16-1.21-.35-2.41-.55-3.6a17.17,17.17,0,0,0-1.69-1.35Z" fill="#424242"/><path d="M83.76,92.51a23.93,23.93,0,0,0,.85-5.2,13,13,0,0,1-.57,5.3.15.15,0,0,1-.28-.1Z" fill="#424242"/><path d="M85.6,92.94A2.06,2.06,0,0,1,87.12,91a2.18,2.18,0,0,1,1.2.36,4.36,4.36,0,0,1,1,.71,11.91,11.91,0,0,0-1.07-.54,2.65,2.65,0,0,0-1.09-.27,2,2,0,0,0-1.26,1.64.15.15,0,1,1-.29,0Z" fill="#424242"/><path d="M87,91.1c-1.5-4.59,3-12.42,6.06-4.9a6.74,6.74,0,0,0-2-2.66c-2.37-1-3.69,2.28-3.92,4.14A9.21,9.21,0,0,0,87.29,91c0,.18-.25.26-.29.07Z" fill="#424242"/><ellipse cx="80.63" cy="66.5" rx="0.75" ry="1.51" fill="#fff"/><ellipse cx="88.42" cy="66.5" rx="0.75" ry="1.51" fill="#fff"/><path d="M85.84,64a.27.27,0,0,1,.16-.2.73.73,0,0,1,.61-.06c.12,0,.24.15.22.28S85.79,64.31,85.84,64Z" fill="#e0e0e0"/><path d="M81.59,63.45l-.12,0a.63.63,0,0,0-.43,0c-.56.35.61.57.76.44a.26.26,0,0,0,0-.33A.37.37,0,0,0,81.59,63.45Z" fill="#e0e0e0"/><path d="M93.39,55.58h0a15.3,15.3,0,0,1,.19,4.11,13.32,13.32,0,0,1-.32,1.89,13.89,13.89,0,0,0-.51,1.89,2.26,2.26,0,0,0,0,.26,4.82,4.82,0,0,0,.1.75,7.37,7.37,0,0,1,.38,1.83,13.83,13.83,0,0,1,.07,2.13,4,4,0,0,1-.8,1.85l-.21.33a4,4,0,0,0-.47,4.46,10.83,10.83,0,0,0,.59,1c.17.29.35.57.53.84l.37.59a34.5,34.5,0,0,1,2,3.73c.2.43.37.87.53,1.31s.23.72.33,1.08a16.59,16.59,0,0,1,.48,2.2,18.11,18.11,0,0,1,0,5.61,3.1,3.1,0,0,1-.06.39,2.66,2.66,0,0,1-.26.78,1.46,1.46,0,0,1-.22.33,1.11,1.11,0,0,1-.45.27c-.2.07-.41.13-.59.21a.81.81,0,0,0-.3.21,10,10,0,0,1-2.2,1.8c-.27.16-.55.31-.83.46a14.83,14.83,0,0,1-3.62,1.21c-.47.1-.94.18-1.41.25l-.21,0c-.41.06-.82.11-1.24.15-.94.1-1.89.16-2.84.18l-1,0c-.64,0-1.27,0-1.89,0l-1.36-.08c-.51,0-1-.08-1.47-.14l-.92-.1A13.81,13.81,0,0,1,73.54,97c-1.43-.44-1.5-2.07,0-2.31.22,0,.45,0,.69,0h.37a4,4,0,0,1,.49,0h.06l.58.06.18,0,.21,0,.67.1h.07c.37,0,.73.11,1.07.14,1.31.14,2.64.29,4,.38.65,0,1.29.07,1.94.07a17.36,17.36,0,0,0,3.22-.27,11.27,11.27,0,0,0,1.28-.29c1-.27,1.9-.61,2.84-1l.42-.16-.22-.1-.67,0a4.27,4.27,0,0,1-.89.08c-.66,0-1.36-.1-2-.12h-.36a7.22,7.22,0,0,1-.81,0,2.7,2.7,0,0,1-.35-.07.28.28,0,0,1-.09,0,2.75,2.75,0,0,1-.48-.4c-.12-.13-.19-.23-.14-.26h0c-.59,0-1.25-.19-1.84-.24a3.26,3.26,0,0,1-.4.24l-.09,0-.15.07a2.55,2.55,0,0,1-.39.13l-.16,0-.09,0a2.87,2.87,0,0,1-.41.05H82l-.37,0h-.06l-.31,0a2.94,2.94,0,0,1-1-.39,1.7,1.7,0,0,1-.64-.53.23.23,0,0,1,0-.11s0,0,0,0a.35.35,0,0,1,0-.14c-.49,0-1.12-.06-1.68-.09l-.42,0h-.11a3.18,3.18,0,0,1-.37.27,2.92,2.92,0,0,1-.86.36,3.55,3.55,0,0,1-.47.08h-.28a2.65,2.65,0,0,1-.63-.07,2.7,2.7,0,0,1-.87-.33,1,1,0,0,1-.38-.37l0-.09a1,1,0,0,1,0-.3,2.52,2.52,0,0,1,.07-.72,1.68,1.68,0,0,1,.3-.65,2,2,0,0,1,.26-.25,1.25,1.25,0,0,1,.75-.27,1,1,0,0,1,.25,0h0l.11,0a1,1,0,0,0,.24,0l.11,0c.21-.08.2-.14.22-.36a100.5,100.5,0,0,1,1.33-10.54c.12-.6.25-1.21.39-1.81l.24-1a11.73,11.73,0,0,0,.41-3,8.46,8.46,0,0,1-1.45-8.2c0-.15.09-.31.15-.46a14.23,14.23,0,0,1-.21-8.1l.32.1.26.08.46.16.39.16c.14.06.29.12.42.19l.46.25.32.17c.26.16.51.32.75.5A10.52,10.52,0,0,1,81.42,59c.19.2.34.36.48.48a.92.92,0,0,0,.6.2,1.49,1.49,0,0,0,.39,0,11.78,11.78,0,0,1,1.17-.17c.3,0,.6,0,.89,0a10.28,10.28,0,0,1,1.47.11,11.36,11.36,0,0,1,1.16.24h0c.08,0,.26-.15.46-.35s.61-.68.79-.88a.77.77,0,0,0,.1-.12q.51-.5,1-.93a11.38,11.38,0,0,1,1.16-.8l.07,0,0,0,.08,0,0,0,.13-.07,0,0,.43-.2,0,0,.19-.09.09-.05.1,0,.12-.06h0l.2-.1.64-.29m0-1c-.23,0-.23,0-1.07.39l-.09,0-.1.05-.1,0,0,0-.1,0-.1,0-.18.08,0,0-.43.2-.05,0-.12.06-.06,0-.09,0-.17.1a12.12,12.12,0,0,0-1.25.86,12,12,0,0,0-1.13,1,1.23,1.23,0,0,0-.15.16L88,58c-.17.19-.39.44-.59.65-.26-.06-.53-.11-.8-.15A11,11,0,0,0,85,58.38c-.32,0-.65,0-1,0a11.26,11.26,0,0,0-1.28.18l-.18,0a3.17,3.17,0,0,1-.26-.26l-.11-.11a11.18,11.18,0,0,0-1.55-1.36,9.68,9.68,0,0,0-.82-.54,2,2,0,0,0-.25-.14l-.1-.06-.07,0c-.14-.08-.29-.17-.44-.24a3.92,3.92,0,0,0-.36-.16l-.1-.05-.07,0L78,55.51l-.48-.17-.08,0-.25-.08-.08,0-.26-.08a1,1,0,0,0-.24,0,1,1,0,0,0-1,.74,15.29,15.29,0,0,0,.12,8.35h0l0,.14a9.5,9.5,0,0,0,1.4,8.89,11.87,11.87,0,0,1-.38,2.4l-.14.55-.1.44c-.13.55-.26,1.14-.4,1.85a96.87,96.87,0,0,0-1.29,10h0a2.28,2.28,0,0,0-1.35.47,2.08,2.08,0,0,0-.45.44,2.7,2.7,0,0,0-.48,1,3.47,3.47,0,0,0-.1,1,2,2,0,0,0,.1.55,1.44,1.44,0,0,0,.09.24,1.93,1.93,0,0,0,.76.77,3.71,3.71,0,0,0,1.17.46,3.93,3.93,0,0,0,.84.09l.37,0a4,4,0,0,0,.62-.1,3.61,3.61,0,0,0,1.13-.47l.17-.11h.17l.59,0h.4a2.77,2.77,0,0,0,.86.71,3.9,3.9,0,0,0,1.31.51,2.35,2.35,0,0,0,.41.07h.12l.43,0h.33l.49-.07.15,0,.16,0a3.28,3.28,0,0,0,.53-.18l.21-.08.1,0,.19-.1.53.08.42.06,0,0a4.53,4.53,0,0,0,.65.55,18.46,18.46,0,0,1-1.87.09c-.58,0-1.19,0-1.88-.07-1.08-.07-2.2-.19-3.27-.3L78.07,94l-1-.14H77l-.7-.1-.21,0h0l-.14,0-.62-.07H75.2c-.17,0-.35,0-.53,0h-.42a6.14,6.14,0,0,0-.83.07,2.15,2.15,0,0,0-2,1.91,2.35,2.35,0,0,0,1.79,2.34,14.44,14.44,0,0,0,2.5.49l.93.11,1.5.14,1.39.08c.65,0,1.3,0,1.94,0l1,0c1,0,2-.08,2.92-.18l1.28-.16h.07l.14,0c.51-.08,1-.16,1.47-.26a15.38,15.38,0,0,0,3.86-1.3c.32-.16.62-.33.91-.5a10.66,10.66,0,0,0,2.39-2l.26-.09.27-.09a2.13,2.13,0,0,0,.83-.53,2.73,2.73,0,0,0,.38-.54,4,4,0,0,0,.35-1.06c0-.15,0-.3.07-.44a18.63,18.63,0,0,0,.2-2.37,20.08,20.08,0,0,0-.25-3.54,20.69,20.69,0,0,0-.5-2.31c-.11-.38-.23-.76-.36-1.13a14.46,14.46,0,0,0-.55-1.4A34.16,34.16,0,0,0,94.15,77c-.12-.2-.25-.4-.38-.6l-.52-.83c-.17-.29-.37-.62-.53-1-.6-1.26-.51-2.11.4-3.49l.13-.19.08-.13a5.07,5.07,0,0,0,1-2.32,14.06,14.06,0,0,0-.06-2.06l0-.23a7.86,7.86,0,0,0-.41-2,2.63,2.63,0,0,1-.06-.49.92.92,0,0,1,0-.16,4.4,4.4,0,0,1,.25-1c.08-.26.17-.52.23-.78a13.36,13.36,0,0,0,.34-2,15.81,15.81,0,0,0-.2-4.39,1,1,0,0,0-1-.81Z" fill="#424242"/></g></svg>