<svg xmlns="http://www.w3.org/2000/svg" width="100" height="100" viewBox="0 0 100 100"><g id="Layer_1" data-name="Layer 1"><path d="M92.88,90.26l.18-.22a8.82,8.82,0,0,0,.63-1.27,10.7,10.7,0,0,0,.57-4.17,31.87,31.87,0,0,0-.62-5c0-.13,0-.28.08-.35a.25.25,0,0,1,.25,0c.36.17.6.77.83,1.08a11.74,11.74,0,0,1,.84,1.28,12.72,12.72,0,0,1,1.15,2.84,12.06,12.06,0,0,1,0,6.17,6.38,6.38,0,0,1-.47,1.26,3.83,3.83,0,0,1-4,2c-.12,0-.25-.06-.35,0a.39.39,0,0,0-.14.23,2.71,2.71,0,0,1-1.91,1.56,10.62,10.62,0,0,1-2.52,0c-.86,0-1.74,0-2.6.06-1.14,0-2.08.19-3-.54a4.52,4.52,0,0,1-2.55-.16c-.59.7-1.89.64-2.75.64a2.62,2.62,0,0,1-1.27-.24.88.88,0,0,1-.34-.35,1.91,1.91,0,0,1,.51-1.71c.31-.31.67-.29,1.06-.4-.21-.94-.21-2-.44-2.86s-.39-1.76-.55-2.65a10.41,10.41,0,0,0-.14,1.57q-.09.93-.21,1.86c-.17,1.23-.4,2.46-.68,3.68a.45.45,0,0,1-.12.25.44.44,0,0,1-.27.09,20.49,20.49,0,0,1-3.32.12.53.53,0,0,1-.4-.14.42.42,0,0,1-.07-.24A1.64,1.64,0,0,1,72.34,93c-.26-3.35-.73-6.72-.83-10.07a2.59,2.59,0,0,0-.09-.68,2.77,2.77,0,0,0-.29-.6,5.85,5.85,0,0,1-.7-3.3,15.28,15.28,0,0,1,1.08-4A14.31,14.31,0,0,1,74,69.89a6.12,6.12,0,0,1,4.52-2.2,5.68,5.68,0,0,1,4,2,9.27,9.27,0,0,1,2,4.09c.44,1.85,2.52,3.15,3.67,4.57a16.71,16.71,0,0,1,1.41,2,19.06,19.06,0,0,1,2.15,5.37,20.23,20.23,0,0,1,.43,2.47c.1.88,0,1.75.11,2.62C92.39,90.83,92.68,90.5,92.88,90.26Z" fill="#eac081"/><path d="M74.89,86.17a24.9,24.9,0,0,1-.37,5.32,3.64,3.64,0,0,1-1.64,2.6,3.84,3.84,0,0,1-2.57.18,1.42,1.42,0,0,0,0,.41.42.42,0,0,0,.07.24.53.53,0,0,0,.4.14,20.49,20.49,0,0,0,3.32-.12.44.44,0,0,0,.27-.09.45.45,0,0,0,.12-.25c.28-1.22.51-2.45.68-3.68q.12-.93.21-1.86a11.81,11.81,0,0,1,.12-1.46A5.37,5.37,0,0,0,74.89,86.17Z" fill="#e5ab5e"/><path d="M96.79,84.49a12.72,12.72,0,0,0-1.15-2.84,11.74,11.74,0,0,0-.84-1.28c-.23-.31-.47-.91-.83-1.08a.25.25,0,0,0-.25,0c-.11.07-.1.22-.08.35a31.87,31.87,0,0,1,.62,5,10.7,10.7,0,0,1-.57,4.17A8.82,8.82,0,0,1,93.06,90l-.18.22c-.2.24-.49.57-.5.53-.06-.87,0-1.74-.11-2.62a20.23,20.23,0,0,0-.43-2.47,19.06,19.06,0,0,0-2.15-5.37,16.71,16.71,0,0,0-1.41-2c-1.15-1.42-3.23-2.72-3.67-4.57a9.27,9.27,0,0,0-2-4.09,5.68,5.68,0,0,0-4-2A6.12,6.12,0,0,0,74,69.89a14.31,14.31,0,0,0-2.53,4.49l-.16.42c0,.53-.11,1.06-.14,1.59a4.35,4.35,0,0,0,.2,1.86c.46,1.09,1.9,1.2,2.86.81a2.55,2.55,0,0,0,1.28-1.12c.25-.44.44-1,1-1.07a3.87,3.87,0,0,1,1.51.21,5.11,5.11,0,0,0,1.64.26c1.38-.08,2.47-.89,3.68-1.47a.17.17,0,0,1,.25.1,5.77,5.77,0,0,0,.84,1.54c.6.82,1.33,1.54,1.88,2.4a4.07,4.07,0,0,1,.68,2.7,2,2,0,0,1,1.08,1.52,5.39,5.39,0,0,1,0,2.08,6.11,6.11,0,0,1-.63,1.86,3,3,0,0,1-2,1.5,3.31,3.31,0,0,1-2.2-.56,1.68,1.68,0,0,1-.6,1c-.74.57-1.37.23-1.84-.36-.34-.42-1.17-1.7-.89-2.28a13.09,13.09,0,0,0-.74,2.55c-.37,1.42-1,3.94-2.68,4.12a1.3,1.3,0,0,1-.94-.21.75.75,0,0,1-.21-.29,1.89,1.89,0,0,0-.4,1.58.88.88,0,0,0,.34.35,2.62,2.62,0,0,0,1.27.24c.86,0,2.16.06,2.75-.64a4.52,4.52,0,0,0,2.55.16c.89.73,1.83.59,3,.54.86,0,1.74-.05,2.6-.06a10.62,10.62,0,0,0,2.52,0,2.71,2.71,0,0,0,1.91-1.56.39.39,0,0,1,.14-.23c.1-.07.23,0,.35,0a3.83,3.83,0,0,0,4-2,6.38,6.38,0,0,0,.47-1.26A12.06,12.06,0,0,0,96.79,84.49Z" fill="#e5ab5e"/><path d="M92.88,90.26l.18-.22a8.82,8.82,0,0,0,.63-1.27,10.7,10.7,0,0,0,.57-4.17,31.87,31.87,0,0,0-.62-5c0-.13,0-.28.08-.35a.25.25,0,0,1,.25,0c.36.17.6.77.83,1.08a11.74,11.74,0,0,1,.84,1.28,12.72,12.72,0,0,1,1.15,2.84,12.06,12.06,0,0,1,0,6.17,6.38,6.38,0,0,1-.47,1.26,3.83,3.83,0,0,1-4,2c-.12,0-.25-.06-.35,0a.39.39,0,0,0-.14.23,2.71,2.71,0,0,1-1.91,1.56,10.62,10.62,0,0,1-2.52,0c-.86,0-1.74,0-2.6.06-1.14,0-2.08.19-3-.54a4.52,4.52,0,0,1-2.55-.16c-.59.7-1.89.64-2.75.64a2.62,2.62,0,0,1-1.27-.24.88.88,0,0,1-.34-.35,1.91,1.91,0,0,1,.51-1.71c.31-.31.67-.29,1.06-.4-.21-.94-.21-2-.44-2.86s-.39-1.76-.55-2.65a10.41,10.41,0,0,0-.14,1.57q-.09.93-.21,1.86c-.17,1.23-.4,2.46-.68,3.68a.45.45,0,0,1-.12.25.44.44,0,0,1-.27.09,20.49,20.49,0,0,1-3.32.12.53.53,0,0,1-.4-.14.42.42,0,0,1-.07-.24A1.64,1.64,0,0,1,72.34,93c-.26-3.35-.73-6.72-.83-10.07a2.59,2.59,0,0,0-.09-.68,2.77,2.77,0,0,0-.29-.6,5.85,5.85,0,0,1-.7-3.3,15.28,15.28,0,0,1,1.08-4A14.31,14.31,0,0,1,74,69.89a6.12,6.12,0,0,1,4.52-2.2,5.68,5.68,0,0,1,4,2,9.27,9.27,0,0,1,2,4.09c.44,1.85,2.52,3.15,3.67,4.57a16.71,16.71,0,0,1,1.41,2,19.06,19.06,0,0,1,2.15,5.37,20.23,20.23,0,0,1,.43,2.47c.1.88,0,1.75.11,2.62C92.39,90.83,92.68,90.5,92.88,90.26Z" fill="none" stroke="#754116" stroke-linejoin="round" stroke-width="0.34"/><path d="M81.82,95.22a2.43,2.43,0,0,1,.54-1.83,1.83,1.83,0,0,1,.43-.35,5.26,5.26,0,0,1,1.42-.4" fill="none" stroke="#754116" stroke-linejoin="round" stroke-width="0.34"/><path d="M89.15,84.91c-4-5.51-6.21,1.47-6.1,5.19-.14,2.77,3.19,3.41,5.36,3.51a.17.17,0,0,1,0,.34,8,8,0,0,1-4.79-1.47c-1.35-1.26-.86-3.26-.66-4.87.63-3.87,3.25-7.36,6.19-2.7Z" fill="#754116"/><path d="M74.9,84.35a24.42,24.42,0,0,1,.88,3.76l-.33.06a24.59,24.59,0,0,1-.55-3.82Z" fill="#754116"/><path d="M71.32,81.64a19.84,19.84,0,0,1,2,2.82,9.45,9.45,0,0,1-1.18-1.27c-.36-.44-.74-.88-1.08-1.34l.28-.21Z" fill="#754116"/><path d="M78.76,95.3a3.16,3.16,0,0,0,.53-1.83c.18-2,.31-4.15.63-6.1,0,2-.17,4.15-.28,6.13a3.33,3.33,0,0,1-.62,2l-.26-.23Z" fill="#754116"/><path d="M71.59,75.23v.13a2,2,0,0,0,1.37,2,2,2,0,0,0,2-1.3,1,1,0,0,0,.11-.58c-.06-.28-.33-.46-.57-.61a9,9,0,0,0-1.26-.77L72.79,74a1.47,1.47,0,0,0-.59,0C71.75,74,71.62,74.82,71.59,75.23Z" fill="#bf7373" stroke="#6b2c2c" stroke-miterlimit="10" stroke-width="0.34"/><path d="M78.38,58.82a35.35,35.35,0,0,0-.88-4.21,8.48,8.48,0,0,0-1.63-3.5,1.27,1.27,0,0,0-.74-.49c-.64-.1-1.09.6-1.32,1.2A20.83,20.83,0,0,0,72.38,58a23.45,23.45,0,0,0,.07,2.51.93.93,0,0,1-.07.47,1.14,1.14,0,0,1-.28.3c-2.42,2-2.07,5.79-1.23,8.47a8.13,8.13,0,0,1-.12,2.77,2,2,0,0,0,.38,1.54c.43.41,1.14.33,1.68.59s.86.83,1.36,1.15a2.58,2.58,0,0,0,2.55-.09c.8-.41,1.46-1,2.22-1.5,1.93-1.19,4.51-1.38,6-3.09a6.94,6.94,0,0,0,1.35-3.42c.06.55.49.91.8,1.38a1.68,1.68,0,0,0,.92.84,1.61,1.61,0,0,0,1.36-.63,10.61,10.61,0,0,0,2.73-4.93c.16-.65-.75-1.06-1.41-1.24s-1.34-.2-2-.41a3.5,3.5,0,0,1-1.59-1.06.68.68,0,0,0-.37-.3.6.6,0,0,0-.37.09l-2.06,1a13.57,13.57,0,0,0-2.84-2.51,6.47,6.47,0,0,0-.85-.49A9.87,9.87,0,0,0,78.38,58.82Z" fill="#eac081"/><path d="M73.94,60.32c.53-.27,1.8-.63,2-1.23a1.16,1.16,0,0,0,.08-.32,16.77,16.77,0,0,0-.17-5.91,4.57,4.57,0,0,0-1.07-2.22,1.83,1.83,0,0,0-1,1.18A20.83,20.83,0,0,0,72.38,58c0,1,.1,2,0,3,0,0,0,.08,0,.09s.06,0,.08,0Z" fill="#bf7373" stroke="#6b2c2c" stroke-miterlimit="10" stroke-width="0.34"/><path d="M78.12,69.58a4.92,4.92,0,0,0,.29-1.31c-.29.57-.56,1.14-.82,1.71a2.43,2.43,0,0,1-3.16,1.46c-1.49-.73-.3-2.88.25-3.9l.47-.89a8.5,8.5,0,0,0-1.3,1.51,8.24,8.24,0,0,0-1,3.25,1.43,1.43,0,0,1,.57.47,9,9,0,0,0,.78,1,.83.83,0,0,0,.45.24,1.14,1.14,0,0,0,.51-.08.16.16,0,0,1,.08-.12A7,7,0,0,0,78.12,69.58Z" fill="#e5ab5e"/><path d="M86.05,67.5c0-.34,0-.68,0-1a3.91,3.91,0,0,1,.09-1l0,0,.06-.27A11,11,0,0,0,85.51,67a6.91,6.91,0,0,1-1.19,2.22,12.61,12.61,0,0,1-3.85,2.69,11,11,0,0,0-2.23,1.47,6.81,6.81,0,0,1-1.84,1.36,2.43,2.43,0,0,1-2.18-.11c-.3-.18-.56-.45-.88-.62A3.34,3.34,0,0,0,72,73.89a2,2,0,0,1-1.18-.38,1.08,1.08,0,0,0,.31.55c.43.41,1.14.33,1.68.59s.86.83,1.36,1.15a2.58,2.58,0,0,0,2.55-.09c.8-.41,1.46-1,2.22-1.5,1.93-1.19,4.51-1.38,6-3.09a6,6,0,0,0,1.17-2.54C86.08,68.22,86.06,67.86,86.05,67.5Z" fill="#e5ab5e"/><path d="M90.68,63.12c-.65-.18-1.34-.2-2-.41a3.55,3.55,0,0,1-.63-.28c.28.16.58,1,.74,1.25a2,2,0,0,0,1,1.07,1.44,1.44,0,0,1,.66.37,1,1,0,0,1,0,.78,6.74,6.74,0,0,1-1.15,2.36c-.44.58-1,1-1.75.76a3.22,3.22,0,0,1-.9-.62c.41.36.55,1.07,1.05,1.38s1.16,0,1.6-.49a10.61,10.61,0,0,0,2.73-4.93C92.25,63.71,91.34,63.3,90.68,63.12Z" fill="#e5ab5e"/><path d="M78.38,58.82a35.35,35.35,0,0,0-.88-4.21,8.48,8.48,0,0,0-1.63-3.5,1.27,1.27,0,0,0-.74-.49c-.64-.1-1.09.6-1.32,1.2A20.83,20.83,0,0,0,72.38,58a23.45,23.45,0,0,0,.07,2.51.93.93,0,0,1-.07.47,1.14,1.14,0,0,1-.28.3c-2.42,2-2.07,5.79-1.23,8.47a8.13,8.13,0,0,1-.12,2.77,2,2,0,0,0,.38,1.54c.43.41,1.14.33,1.68.59s.86.83,1.36,1.15a2.58,2.58,0,0,0,2.55-.09c.8-.41,1.46-1,2.22-1.5,1.93-1.19,4.51-1.38,6-3.09a6.94,6.94,0,0,0,1.35-3.42c.06.55.49.91.8,1.38a1.68,1.68,0,0,0,.92.84,1.61,1.61,0,0,0,1.36-.63,10.61,10.61,0,0,0,2.73-4.93c.16-.65-.75-1.06-1.41-1.24s-1.34-.2-2-.41a3.5,3.5,0,0,1-1.59-1.06.68.68,0,0,0-.37-.3.6.6,0,0,0-.37.09l-2.06,1a13.57,13.57,0,0,0-2.84-2.51,6.47,6.47,0,0,0-.85-.49A9.87,9.87,0,0,0,78.38,58.82Z" fill="none" stroke="#754116" stroke-linejoin="round" stroke-width="0.34"/><path d="M79.57,92.11a3.85,3.85,0,0,0,2.56,1.74" fill="none" stroke="#754116" stroke-linejoin="round" stroke-width="0.34"/><path d="M75.27,71.06a3.21,3.21,0,0,0-2-.5.7.7,0,0,0-.72.91,4.65,4.65,0,0,0,.33,1.81,1.19,1.19,0,0,0,.67.79,1.06,1.06,0,0,0,.81-.14,8,8,0,0,1,1-.56c.31-.12.69-.26.82-.6C76.5,72.13,75.74,71.36,75.27,71.06Z" fill="#565656" stroke="#282828" stroke-linejoin="round" stroke-width="0.34"/><path d="M79.08,67.59c-.24.8-.31,1.77.7,2a3,3,0,0,0,.85,0,3.07,3.07,0,0,0,1.69-.46.72.72,0,0,0,.32-.75c-.07-.17-.22-.28-.3-.44a1.09,1.09,0,0,1-.08-.45,3.28,3.28,0,0,0-.4-1.89c-.55-.8-1.58-.42-2,.27a4.72,4.72,0,0,0-.47,1A5.31,5.31,0,0,0,79.08,67.59Z" fill="#e5ab5e"/><path d="M75.34,65.79a3,3,0,0,1-.37.54,1.47,1.47,0,0,1-1.22.52,1.91,1.91,0,0,1-1.43-1.52c-.06-.28-.15-.83.08-1.07s.31-.08.44-.19a6.35,6.35,0,0,0,.47-.65,3,3,0,0,1,1.8-1,1.2,1.2,0,0,1,.38,0c1.07.2.79,1.21.49,1.9l-.33.78C75.55,65.36,75.45,65.58,75.34,65.79Z" fill="#e5ab5e"/><path d="M75,63.06a1,1,0,0,0-.9-.12,2.43,2.43,0,0,0-1.15,2.75,1.07,1.07,0,0,0,1.83.5,2.49,2.49,0,0,0,.58-2.72A1.1,1.1,0,0,0,75,63.06Z"/><path d="M81.88,66.38a1.05,1.05,0,0,0-.82-.4c-1,0-1.91,1.3-2,2.25a1.12,1.12,0,0,0,.25.81,1.17,1.17,0,0,0,1.32.25,2.53,2.53,0,0,0,1.42-2.41A1.18,1.18,0,0,0,81.88,66.38Z"/><path d="M86.2,68a7.83,7.83,0,0,1,.65-4.9c-.22,1.61-.73,3.21-.32,4.82L86.2,68Z" fill="#754116"/><path d="M81.13,67.07c.14-.16.49-.24.63,0a.81.81,0,0,1-.09.89.62.62,0,0,1-.32.28.34.34,0,0,1-.39-.1.52.52,0,0,1,0-.37A1.1,1.1,0,0,1,81.13,67.07Z" fill="#fff"/><path d="M75.17,64a.16.16,0,0,0,0-.07.33.33,0,0,0-.49,0,1,1,0,0,0-.25.59c0,.19,0,.43.11.55A.39.39,0,0,0,75,65a.73.73,0,0,0,.23-.43A.89.89,0,0,0,75.17,64Z" fill="#fff"/><path d="M74.14,71.16a2.13,2.13,0,0,1,.45.13.79.79,0,0,1,.48.54c0,.36-.35.41-.6.3a4.37,4.37,0,0,1-.68-.35.82.82,0,0,1-.22-.19.31.31,0,0,1,0-.29.32.32,0,0,1,.22-.15A1.34,1.34,0,0,1,74.14,71.16Z" fill="#9e9e9e"/><path d="M80,65.72a.51.51,0,0,0-.07.17.16.16,0,0,0,.07.16c.07,0,.16,0,.23,0a2,2,0,0,1,1-.27.76.76,0,0,0,.34,0,.41.41,0,0,0,.16-.43c-.07-.26-.3-.33-.45-.52s-.1-.35-.32-.27-.32.35-.42.49A7.89,7.89,0,0,0,80,65.72Z" fill="#ffd8a4"/><path d="M75.76,63c-.06-.08-.15-.14-.18-.24-.15-.44,1.34-.82,1.14,0a2,2,0,0,1-.41.82C75.93,64,75.93,63.18,75.76,63Z" fill="#ffd8a4"/><path d="M75,50.61h.12a1.27,1.27,0,0,1,.74.49,8.48,8.48,0,0,1,1.63,3.5,35.35,35.35,0,0,1,.88,4.21,9.87,9.87,0,0,1,2.23.57,6.47,6.47,0,0,1,.85.49,13.57,13.57,0,0,1,2.84,2.51l2.06-1a.69.69,0,0,1,.31-.09h.06a.68.68,0,0,1,.37.3,3.82,3.82,0,0,0,1,.78,2.44,2.44,0,0,0,.28.14,2.17,2.17,0,0,0,.35.15,6.71,6.71,0,0,0,1,.21l.51.08a4.31,4.31,0,0,1,.49.11,2.58,2.58,0,0,1,.42.14,2.34,2.34,0,0,1,.76.44l0,0a.75.75,0,0,1,.2.34.14.14,0,0,0,0,.06h0a.82.82,0,0,1,0,.22,10.42,10.42,0,0,1-1,2.65,9.48,9.48,0,0,1-.78,1.2,10.5,10.5,0,0,1-.92,1.08l-.16.15,0,0L89,69.6h0a1.37,1.37,0,0,1-.81.33l-.19,0a1.68,1.68,0,0,1-.92-.84c-.31-.47-.74-.83-.8-1.38,0,.29-.11.59-.18.88h0c0,.21-.1.42-.17.63l0,.12c-.07.2-.14.39-.22.58v0a4.14,4.14,0,0,1-.29.55s-.05.09-.07.13-.24.35-.37.51a4.64,4.64,0,0,1-.93.79,11.79,11.79,0,0,1,.61,1.82,3.79,3.79,0,0,0,.6,1.29,5.11,5.11,0,0,0,.45.59c.65.77,1.48,1.46,2.15,2.16.17.18.33.36.47.53a16.71,16.71,0,0,1,1.41,2,18.8,18.8,0,0,1,1.77,4c.14.46.27.93.38,1.4s.18.81.25,1.23.14.83.18,1.24c.08.67.07,1.33.09,2,0,.21,0,.42,0,.63h0l.17-.16.32-.37.18-.22a10,10,0,0,0,.63-1.27,8.55,8.55,0,0,0,.54-2.58l0-.53c0-.17,0-.35,0-.53V84.6c0-.21,0-.42,0-.63a33.35,33.35,0,0,0-.58-4.33.57.57,0,0,1,0-.26.13.13,0,0,1,.07-.09.12.12,0,0,1,.1,0h.08l.07,0a.76.76,0,0,1,.25.2,5.27,5.27,0,0,1,.41.6c.06.11.12.2.17.28a11.74,11.74,0,0,1,.84,1.28,12.72,12.72,0,0,1,1.15,2.84c.06.25.12.5.17.76a12.13,12.13,0,0,1,0,4.65c0,.25-.11.5-.18.76s-.12.43-.2.64-.17.42-.27.62a4.1,4.1,0,0,1-2.88,2A3.57,3.57,0,0,1,93,94a2.72,2.72,0,0,1-.69-.09l-.2,0a.24.24,0,0,0-.15,0,.39.39,0,0,0-.14.23,2.18,2.18,0,0,1-.52.79,2.66,2.66,0,0,1-.31.26l-.34.22a3.92,3.92,0,0,1-.74.29,3.43,3.43,0,0,1-.84.09c-.24,0-.49,0-.73,0s-.6,0-.91,0h0c-.86,0-1.74,0-2.6.06-.39,0-.76,0-1.11,0a3.77,3.77,0,0,1-.83-.08,2.54,2.54,0,0,1-.69-.27,2.62,2.62,0,0,1-.34-.24,4.06,4.06,0,0,1-1,.11h-.3a4.66,4.66,0,0,1-.64-.08,5.61,5.61,0,0,1-.62-.18,1.39,1.39,0,0,1-.32.27l-.06.08v-.06a2.47,2.47,0,0,1-.83.28l-.46.05-.66,0h-.44a2.58,2.58,0,0,1-1.26-.24,1.49,1.49,0,0,1-.2-.15,1,1,0,0,1-.14-.2h0a1.05,1.05,0,0,1,0-.19v-.07a.76.76,0,0,1,0-.15s0-.06,0-.09,0-.09,0-.13l0-.1,0-.13s0-.07,0-.11a1,1,0,0,1,0-.1l.06-.13a.25.25,0,0,1,0-.07.54.54,0,0,1,.07-.13l0,0a2,2,0,0,1,.2-.26c.31-.31.67-.29,1.06-.4-.21-.94-.21-2-.44-2.86s-.39-1.76-.55-2.65c0,0,0,.07,0,.11a11.81,11.81,0,0,0-.12,1.46q-.09.93-.21,1.86c-.17,1.23-.4,2.46-.68,3.68a.45.45,0,0,1-.12.25.44.44,0,0,1-.27.09,21.5,21.5,0,0,1-2.41.14l-.91,0a.53.53,0,0,1-.4-.14.42.42,0,0,1-.07-.24,1.33,1.33,0,0,1,0-.4h0a1.73,1.73,0,0,1,.57-1A1.65,1.65,0,0,1,71.93,93a1.4,1.4,0,0,1,.41,0c-.26-3.35-.73-6.72-.83-10.07a2.59,2.59,0,0,0-.09-.68,2.77,2.77,0,0,0-.29-.6,5.86,5.86,0,0,1-.7-3.3,14.1,14.1,0,0,1,.92-3.54h0c.05-.14.11-.27.16-.41h0l0-.08a1.28,1.28,0,0,1-.24-.11.7.7,0,0,1-.17-.13.86.86,0,0,1-.21-.29.69.69,0,0,1,0-.13,1.12,1.12,0,0,1-.05-.13h0a3.36,3.36,0,0,1-.08-1,8.13,8.13,0,0,0,.12-2.77c-.84-2.68-1.19-6.5,1.23-8.47a1.14,1.14,0,0,0,.28-.3.53.53,0,0,0,0-.12c0-.2,0-.41,0-.61A18.9,18.9,0,0,1,72.38,58a20.83,20.83,0,0,1,1.43-6.18,1.19,1.19,0,0,1,.08-.2.93.93,0,0,0,0-.1.47.47,0,0,0,0-.1l.08-.13,0,0,.1-.14h0a1,1,0,0,1,.8-.48m0-1h0a2,2,0,0,0-1.59.86l0,0a.89.89,0,0,0-.13.18l0,.07a1.25,1.25,0,0,0-.11.18l-.07.13-.06.12c0,.09-.08.17-.11.26a22,22,0,0,0-1.49,6.47,12.94,12.94,0,0,0,0,1.87l0,.48c0,.08,0,.17,0,.26-3.3,2.78-2,8-1.52,9.52a3.45,3.45,0,0,1,0,1.42c-.05.32-.1.65-.12,1a4.56,4.56,0,0,0,.07,1.12l0,.18a1.43,1.43,0,0,0,.08.22l.09.23a2.18,2.18,0,0,0,.31.46,14.91,14.91,0,0,0-.89,3.57,6.71,6.71,0,0,0,.81,3.88l.07.11a2.74,2.74,0,0,1,.15.3,2.3,2.3,0,0,1,0,.42c.07,2.17.29,4.36.5,6.48.08.85.17,1.72.25,2.59a2.54,2.54,0,0,0-1,.51,2.61,2.61,0,0,0-.91,1.5v0a2.51,2.51,0,0,0,0,.66,1.35,1.35,0,0,0,1.42,1.32l1,0a23.5,23.5,0,0,0,2.52-.14h.08l.1.1a1.71,1.71,0,0,0,.4.29,3.37,3.37,0,0,0,1.75.38H77l.73,0,.55-.07a3.47,3.47,0,0,0,.77-.2,1,1,0,0,0,.53-.23l.15,0a6.82,6.82,0,0,0,.79.1h.36a6.16,6.16,0,0,0,.75,0l.07,0a3.44,3.44,0,0,0,1,.38,4.77,4.77,0,0,0,1.05.11c.27,0,.55,0,.85,0h.31c.83,0,1.69-.05,2.56-.06h0c.27,0,.52,0,.78,0h.08c.25,0,.53,0,.81,0a4.58,4.58,0,0,0,1.08-.12,4,4,0,0,0,1-.38,4.43,4.43,0,0,0,.46-.29,2.67,2.67,0,0,0,.43-.37,3.4,3.4,0,0,0,.53-.67A3.44,3.44,0,0,0,93,95a4.3,4.3,0,0,0,.61,0,5.09,5.09,0,0,0,3.6-2.54,4.84,4.84,0,0,0,.34-.76c.08-.21.15-.45.23-.73s.13-.55.19-.82a13.15,13.15,0,0,0,0-5c0-.27-.12-.55-.19-.82a12.8,12.8,0,0,0-2.14-4.45l-.13-.2,0,0a3.68,3.68,0,0,0-.49-.72,2,2,0,0,0-.56-.42l-.22-.08a1,1,0,0,0-.29,0h-.07a1.22,1.22,0,0,0-.67.2,1.18,1.18,0,0,0-.44.58,1.44,1.44,0,0,0,0,.78A32.84,32.84,0,0,1,93.22,84l0,.21c0,.13,0,.26,0,.38v.51c0,.17,0,.34,0,.5s0,.33,0,.49a8.83,8.83,0,0,1-.1.93c0-.1,0-.2,0-.3-.08-.43-.17-.86-.27-1.28s-.25-1-.4-1.47a19.42,19.42,0,0,0-1.86-4.18,18.24,18.24,0,0,0-1.49-2.15c-.16-.2-.34-.39-.53-.59s-.57-.57-.87-.86A16.31,16.31,0,0,1,86.42,75a5.28,5.28,0,0,1-.39-.5,3,3,0,0,1-.45-1,12.4,12.4,0,0,0-.37-1.24,5.3,5.3,0,0,0,.47-.48,5.55,5.55,0,0,0,.46-.62l.09-.16a7.05,7.05,0,0,0,.35-.65.08.08,0,0,1,0,0s0-.07,0-.11a2.17,2.17,0,0,0,1.14.71,1.92,1.92,0,0,0,.41,0,2.32,2.32,0,0,0,1.41-.53,2.92,2.92,0,0,0,.23-.19l0,0,.2-.19a13,13,0,0,0,1-1.19,12.55,12.55,0,0,0,.84-1.3,11.82,11.82,0,0,0,1.14-2.9,1.8,1.8,0,0,0,0-.52s0-.09,0-.13a1.67,1.67,0,0,0,0-.18,1.78,1.78,0,0,0-.43-.74L92.53,63a3.33,3.33,0,0,0-1.07-.63c-.17-.07-.35-.13-.51-.18s-.39-.09-.59-.12L89.94,62l-.1,0a6.18,6.18,0,0,1-.84-.18,1.09,1.09,0,0,1-.25-.1l-.2-.1a2.52,2.52,0,0,1-.68-.56,1.6,1.6,0,0,0-1-.63,1,1,0,0,0-.24,0,1.78,1.78,0,0,0-.73.18l-1.39.64A14.29,14.29,0,0,0,82,59a7.76,7.76,0,0,0-1-.56A8,8,0,0,0,79.26,58c-.21-1.22-.47-2.43-.8-3.62a9.55,9.55,0,0,0-1.84-3.89,2.26,2.26,0,0,0-1.34-.82l-.27,0Z" fill="#754116"/></g></svg>