<svg xmlns="http://www.w3.org/2000/svg" width="100" height="100" viewBox="0 0 100 100"><g id="eyes"><path d="M68.5,94.63s-8.8-5.24-8.61-5.52S91,84,91,84l5,5.71Z" fill="#4b4f54" stroke="#2f3135" stroke-miterlimit="10"/><path d="M95.11,91.32,69.87,95.17a1.51,1.51,0,0,1-1.75-1.49V76.83a1.52,1.52,0,0,1,1.37-1.51l25.39-2.57a1.52,1.52,0,0,1,1.67,1.52L96.4,89.83A1.53,1.53,0,0,1,95.11,91.32Z" fill="#62676d"/><path d="M94.88,72.75,69.49,75.32a1.52,1.52,0,0,0-1.37,1.51V93.68a1.48,1.48,0,0,0,.3.9l28-21A1.49,1.49,0,0,0,94.88,72.75Z" fill="#696d70"/><path d="M95.11,91.32,69.87,95.17a1.51,1.51,0,0,1-1.75-1.49V76.83a1.52,1.52,0,0,1,1.37-1.51l25.39-2.57a1.52,1.52,0,0,1,1.67,1.52L96.4,89.83A1.53,1.53,0,0,1,95.11,91.32Z" fill="none" stroke="#2f3135" stroke-miterlimit="10"/><g opacity="0.5"><path d="M84.65,83.67v0c0,.15-.08.3-.08.45a1.22,1.22,0,0,0,.07.17.21.21,0,0,1,0,.19.31.31,0,0,1-.16.12c-.11,0-.22,0-.3,0s-.08.22-.15.3a.42.42,0,0,1-.41,0,.81.81,0,0,0-.46,0c-.14,0-.25.22-.41.14s-.12-.17-.18-.25-.27-.17-.4-.26a.41.41,0,0,1-.14-.43c0-.15,0-.31-.09-.4l-.09-.07c-.1-.1,0-.27.05-.38A.71.71,0,0,0,82,83c0-.11-.08-.21-.09-.32,0-.27.22-.3.43-.27s.22,0,.25-.11a1.21,1.21,0,0,0,0-.19c.06-.28.38,0,.5,0s.36-.07.56,0,.39.18.29.38-.29.21-.36.37a.61.61,0,0,0,.14.59.59.59,0,0,0,.5.17C84.4,83.59,84.6,83.47,84.65,83.67Z" fill="#fff"/><path d="M84,82.83a.37.37,0,0,0,.53.4.34.34,0,0,0,.14-.45.36.36,0,0,0-.63,0A.3.3,0,0,0,84,82.83Z" fill="#fff"/><path d="M82.59,84.32a.74.74,0,0,0,.34.23.67.67,0,0,0,.44,0,.37.37,0,0,0,.29-.31.55.55,0,0,0-.28-.45.86.86,0,0,1-.38-.5c0-.14-.14-.16-.27-.08A.76.76,0,0,0,82.59,84.32Z" fill="#62676d"/></g></g></svg>