<svg xmlns="http://www.w3.org/2000/svg" width="100" height="100" viewBox="0 0 100 100"><g id="Isolation_Mode" data-name="Isolation Mode"><rect x="81.03" y="88.62" width="6.37" height="1.91" transform="translate(-28.24 39.89) rotate(-22.93)" fill="#7c7c7c" stroke="#666" stroke-miterlimit="10" stroke-width="0.09"/><rect x="66.2" y="81.92" width="6.37" height="1.91" transform="translate(-20.88 23.42) rotate(-16.69)" fill="#7c7c7c" stroke="#666" stroke-miterlimit="10" stroke-width="0.09"/><path d="M67.44,84.46a2.18,2.18,0,0,1-1.22,2.35l-1.58.59-1.2-4.31L65,82.55l.25-.11h0a1.55,1.55,0,0,1,.31-.06C66.47,82.28,67.33,83.22,67.44,84.46Z" fill="#e8d4ba"/><ellipse cx="64.03" cy="85.25" rx="1.72" ry="2.26" transform="translate(-7.5 6.19) rotate(-5.23)" fill="#fff5e6"/><ellipse cx="64.03" cy="85.25" rx="0.69" ry="0.9" transform="translate(-7.5 6.19) rotate(-5.23)" fill="#e8d4ba"/><path d="M64.22,84.39a.94.94,0,0,1,.06,1.71,1.12,1.12,0,0,0-.06-1.71Z" fill="#fff"/><path d="M63.84,86.1a1,1,0,0,1-.15-1.66,1.16,1.16,0,0,0,.15,1.66Z" fill="#917757"/><path d="M65.52,82.37a1.55,1.55,0,0,0-.31.06h0l-.25.11-1.52.54h0a2.23,2.23,0,0,0-1.13,2.31c.12,1.25,1,2.18,1.93,2.1a1.4,1.4,0,0,0,.4-.11h0l1.58-.59a2.18,2.18,0,0,0,1.22-2.35C67.33,83.22,66.47,82.28,65.52,82.37Z" fill="none" stroke="#917757" stroke-miterlimit="10" stroke-width="0.17"/><path d="M64.82,83.29a2.5,2.5,0,0,1,.5,3.53,3,3,0,0,0-.5-3.53Z" fill="#fff"/><path d="M64.48,85.2a.54.54,0,0,1-.4.64l-.46.14-.11-1.18.33-.11h0l.14,0C64.23,84.63,64.45,84.88,64.48,85.2Z" fill="#999"/><ellipse cx="63.56" cy="85.39" rx="0.45" ry="0.6" transform="translate(-7.51 6.14) rotate(-5.23)" fill="#c1c1c1"/><path d="M64,84.65l-.14,0h0l-.33.1h0a.55.55,0,0,0-.4.64.54.54,0,0,0,.51.55.28.28,0,0,0,.12,0l.34-.1a.54.54,0,0,0,.4-.64C64.45,84.88,64.23,84.63,64,84.65Z" fill="none" stroke="#666" stroke-miterlimit="10" stroke-width="0.09"/><path d="M63.65,84.83a.62.62,0,0,1,.13,1.07.8.8,0,0,0-.13-1.07Z" fill="#fff"/><path d="M83.39,90.53a2.18,2.18,0,0,1-1,2.47l-1.51.75L79.26,89.6l1.45-.7.24-.14h0a1,1,0,0,1,.3-.1C82.18,88.47,83.14,89.31,83.39,90.53Z" fill="#e8d4ba"/><ellipse cx="80.08" cy="91.68" rx="1.72" ry="2.26" transform="translate(-16.63 17.75) rotate(-11.47)" fill="#fff5e6"/><ellipse cx="80.08" cy="91.68" rx="0.69" ry="0.9" transform="translate(-16.63 17.75) rotate(-11.47)" fill="#e8d4ba"/><path d="M80.18,90.81a1,1,0,0,1,.24,1.7,1.13,1.13,0,0,0-.24-1.7Z" fill="#fff"/><path d="M80,92.55a.94.94,0,0,1-.33-1.63A1.17,1.17,0,0,0,80,92.55Z" fill="#917757"/><path d="M81.25,88.66a1,1,0,0,0-.3.1h0l-.24.14-1.45.7h0A2.22,2.22,0,0,0,78.39,92c.25,1.23,1.21,2.06,2.14,1.88a1.26,1.26,0,0,0,.38-.15h0L82.43,93a2.18,2.18,0,0,0,1-2.47C83.14,89.31,82.18,88.47,81.25,88.66Z" fill="none" stroke="#917757" stroke-miterlimit="10" stroke-width="0.17"/><path d="M80.65,89.65a2.52,2.52,0,0,1,.89,3.46,3,3,0,0,0-.89-3.46Z" fill="#fff"/><path d="M80.52,91.59a.53.53,0,0,1-.32.67l-.45.2-.24-1.17.32-.14h0L80,91.1A.53.53,0,0,1,80.52,91.59Z" fill="#999"/><ellipse cx="79.63" cy="91.87" rx="0.45" ry="0.6" transform="translate(-16.67 17.66) rotate(-11.47)" fill="#c1c1c1"/><path d="M80,91.1l-.13.05h0l-.32.14h0a.54.54,0,0,0-.33.67c.07.32.32.55.57.5a.34.34,0,0,0,.12-.06l.33-.14A.62.62,0,0,0,80,91.1Z" fill="none" stroke="#666" stroke-miterlimit="10" stroke-width="0.09"/><path d="M79.66,91.31a.62.62,0,0,1,.24,1,.8.8,0,0,0-.24-1Z" fill="#fff"/><path d="M74.41,78.23c4.1,1.66,9,3.69,13.44,4.12,2.26.21,4.54-.84,6.77-1.17a2.34,2.34,0,0,1,1,0,1.53,1.53,0,0,1,1,1.2A3.1,3.1,0,0,1,96.42,84a8.54,8.54,0,0,1-6.37,5.66c-3.77.72-7.3-.32-10.79-1.65-5-1.93-10.14-3.67-15.22-5.48-2.31-.83-4.61-2-5.52-4.43-.84-2.26-1-5.38,1.3-6.86A5.24,5.24,0,0,1,67,72.69c.31.52.52,1.09.82,1.62,1.23,2.16,4.16,2.93,6.33,3.81Z" fill="#efd4af"/><path d="M96,81.53c-.63-.82-2.52-.13-3.27.06a14.6,14.6,0,0,1-4.85.76c-4.49-.43-9.34-2.46-13.44-4.12l-.26-.11c-2.17-.88-5.1-1.65-6.33-3.81-.3-.53-.51-1.1-.82-1.62a5.24,5.24,0,0,0-7.18-1.47,3.57,3.57,0,0,0-1,.94s0,.08,0,.13a8,8,0,0,0,0,4.48,6.89,6.89,0,0,0,4.43,4.56c3.07,1,6,2.39,9.15,3.36,2.3.72,4.54,1.6,6.8,2.43s4.69,1.87,7.26,2a10.55,10.55,0,0,0,6.4-1.59,7.29,7.29,0,0,0,2.27-2.45C95.5,84.27,96.61,82.38,96,81.53Z" fill="#364242"/><path d="M95.86,82.23C95.17,86.45,91.13,89,87,88.82c.06-.19,1.14-.28,1.45-.44a10,10,0,0,0,5.82-3.64,10.86,10.86,0,0,0,1.49-2.52Z" fill="#a3aaaa"/><path d="M65.94,81.79a59.43,59.43,0,0,1,15.49,5.63c-4.39-1.37-11-3.93-15.51-5.57l0-.06Z" fill="#a3aaaa"/><path d="M74.41,78.23c4.1,1.66,9,3.69,13.44,4.12,2.26.21,4.54-.84,6.77-1.17a2.34,2.34,0,0,1,1,0,1.53,1.53,0,0,1,1,1.2A3.1,3.1,0,0,1,96.42,84a8.54,8.54,0,0,1-6.37,5.66c-3.77.72-7.3-.32-10.79-1.65-5-1.93-10.14-3.67-15.22-5.48-2.31-.83-4.61-2-5.52-4.43-.84-2.26-1-5.38,1.3-6.86A5.24,5.24,0,0,1,67,72.69c.31.52.52,1.09.82,1.62,1.23,2.16,4.16,2.93,6.33,3.81Z" fill="none" stroke="#020202" stroke-miterlimit="10" stroke-width="0.48"/><path d="M66.76,74.71c-.3-.48-.44-1-.73-1.49-.9-1.67-2.63-.66-3.36.5a7.16,7.16,0,0,0-1.16,3.74c.06,1.73,2.6.68,3.58.26a8.4,8.4,0,0,0,2.13-1.15c.62-.56.21-1-.21-1.52C66.92,74.94,66.84,74.83,66.76,74.71Z" fill="#171e1e"/><path d="M89.5,83.61a2,2,0,0,0-1,.59A11.48,11.48,0,0,1,86,86.32c-.17.12-.36.25-.38.45s.34.5.65.56a6.5,6.5,0,0,0,4.45-.72,10.72,10.72,0,0,0,3.41-3.36.73.73,0,0,0,.21-.58.5.5,0,0,0-.47-.33,1.58,1.58,0,0,0-.6.13c-.87.33-1.75.62-2.65.88C90.28,83.45,89.88,83.51,89.5,83.61Z" fill="#171e1e"/><path d="M62.68,70.4h0l.51,0A4.88,4.88,0,0,1,67,72.69c.31.52.52,1.09.82,1.62a6.45,6.45,0,0,0,3,2.49c.29.14.59.27.89.39l.55.22,1,.36.09,0,.81.31.12,0,.14.06c1.54.62,3.18,1.3,4.87,1.92l.85.31a33.45,33.45,0,0,0,7.72,1.89l.39,0h.47a13.44,13.44,0,0,0,2.91-.5l1.08-.28a9.59,9.59,0,0,1,2.23-.45h.26a1.74,1.74,0,0,1,.45.06,1.53,1.53,0,0,1,1,1.2A3.1,3.1,0,0,1,96.42,84a8.54,8.54,0,0,1-6.37,5.66,13.58,13.58,0,0,1-2.52.23q-.7,0-1.41-.06l-2.68,1.13a2.06,2.06,0,0,1-1,2.06l-1.51.75h0l-.17.08h0l-.19.06h0l-.27,0a1.61,1.61,0,0,1-.85-.27,2.18,2.18,0,0,1-.6-.61,1.74,1.74,0,0,1-.11-.18,3,3,0,0,1-.26-.61c0-.08,0-.15,0-.23s0-.14,0-.21v-.07a.71.71,0,0,1,0-.14.25.25,0,0,1,0-.08v-.13a.28.28,0,0,1,0-.09v-.11a.28.28,0,0,0,0-.09s0-.07,0-.11,0-.06,0-.08l0-.1a.66.66,0,0,1,.06-.2.43.43,0,0,1,0,0,1.17,1.17,0,0,1,0-.11s0,0,0-.06a.47.47,0,0,0,0-.1l0-.05.06-.1,0,0,.07-.1,0,0a1.47,1.47,0,0,1,.45-.38h0l.07,0,1.37-.66.23-.14h0a.83.83,0,0,1,.22-.08c-.64-.22-1.27-.45-1.91-.69-3.54-1.35-7.11-2.62-10.68-3.88l-1.14.35h0a2.18,2.18,0,0,1-1.22,2.35l-1.58.59h0l-.19.07h0l-.2,0h-.13a1.45,1.45,0,0,1-.72-.2l-.15-.1a2.51,2.51,0,0,1-.93-1.8h0c0-.07,0-.14,0-.21v-.07a.61.61,0,0,1,0-.14v-.09s0-.08,0-.12a.28.28,0,0,1,0-.09.43.43,0,0,1,0-.11.29.29,0,0,1,0-.09s0-.07,0-.1l0-.09,0-.09.08-.2a.08.08,0,0,0,0,0l.06-.11,0,0a.61.61,0,0,1,.07-.1l0,0a.36.36,0,0,1,.07-.1l0,0,.08-.1h0a1.57,1.57,0,0,1,.49-.33h0l.08,0,1-.37L64,82.51c-2.31-.83-4.61-2-5.52-4.43-.8-2.15-1-5.08,1-6.64l0,0,.27-.19a5.1,5.1,0,0,1,1.88-.74,4.43,4.43,0,0,1,.51-.06,3.77,3.77,0,0,1,.47,0m20,18.78,0,0-.09,0,0,.05m-20-19.78-.56,0a5.59,5.59,0,0,0-.59.08,6,6,0,0,0-2.25.88l-.34.24-.06,0c-2.38,1.91-2.23,5.26-1.29,7.77a8,8,0,0,0,4.54,4.39l0,.05,0,0-.12.15,0,.05c0,.07-.08.11-.11.17l0,.06c0,.06-.06.11-.09.16a.36.36,0,0,0,0,.07l-.12.28a.93.93,0,0,0,0,.13l0,.1-.05.16,0,.12,0,.16,0,.11c0,.06,0,.11,0,.17v.11a1.21,1.21,0,0,0,0,.19v.1a2.64,2.64,0,0,0,0,.28A3.53,3.53,0,0,0,62.65,88c.08,0,.16.11.24.15a2.34,2.34,0,0,0,1.22.34h.22a2.14,2.14,0,0,0,.35-.06l.07,0,.19-.06,0,0,1.59-.58a3,3,0,0,0,1.86-2.55l.12,0c3.3,1.16,6.7,2.36,10.08,3.65a2.33,2.33,0,0,0-.6.53l-.14.19,0,0a.86.86,0,0,0-.1.16l0,.06a1.4,1.4,0,0,0-.09.17l0,.06-.07.18a.64.64,0,0,0,0,.07,2.29,2.29,0,0,0-.08.28l0,.14v.09c0,.08,0,.13,0,.17v.1a1.42,1.42,0,0,0,0,.19v.39c0,.07,0,.13,0,.19v.09c0,.1,0,.2,0,.29s0,.21.07.3a4.05,4.05,0,0,0,.35.83,1.65,1.65,0,0,0,.15.25,3.2,3.2,0,0,0,.88.88,2.52,2.52,0,0,0,1.4.44,2.49,2.49,0,0,0,.47,0l.34-.1.06,0,.19-.09h0l1.52-.76a2.79,2.79,0,0,0,1.53-2.28l1.87-.79c.42,0,.84.05,1.25.05a14.13,14.13,0,0,0,2.7-.25,9.57,9.57,0,0,0,7.14-6.33,4,4,0,0,0,.22-2.09,2.39,2.39,0,0,0-2.4-2.07h-.28a8.62,8.62,0,0,0-2.14.39l-.32.09-.61.16-.47.12a11.71,11.71,0,0,1-2.7.47h-.4l-.33,0a31.15,31.15,0,0,1-7.47-1.84l-.84-.3c-1.44-.53-2.83-1.09-4.19-1.64l-.65-.27-.05,0-.09,0-.13,0-.83-.33-.06,0-.23-.09-.75-.28-.53-.22c-.29-.11-.57-.23-.85-.36a5.44,5.44,0,0,1-2.58-2.09,5.71,5.71,0,0,1-.35-.7,9.17,9.17,0,0,0-.48-.93,5.86,5.86,0,0,0-4.54-2.75q-.3,0-.6,0Z" fill="#020202"/></g></svg>