<svg xmlns="http://www.w3.org/2000/svg" width="100" height="100" viewBox="0 0 100 100"><g id="eyes"><path d="M32,14.59c3.3-1.84,7-2.59,10.84-3.22a19,19,0,0,1,3.85-.45h4.64A44,44,0,0,1,65,14.25c.46.21,1,.38,1.2.85l.37.23.05-.09.11,0a.39.39,0,0,0-.09.53c3.3,4.53,3.53,9.64,3.87,14.73,0,.7.42,1.72-.22,2.06S69,32,68.21,31.74l-.25-.1a49.86,49.86,0,0,0-15.84-3,65.5,65.5,0,0,0-9.18.14c-4.9.46-9.71,1.1-14.13,3.12-.86.39-1.14.32-1.15-.58a36.19,36.19,0,0,1,.62-7.27c.59-3.13,1.31-6.25,3.71-8.83C32.19,15,32.46,14.83,32,14.59Z" fill="#bcc3d1"/><path d="M32,14.59c.43.24.16.44,0,.65-2.4,2.58-3.12,5.7-3.71,8.83a36.19,36.19,0,0,0-.62,7.27c0,.9.29,1,1.15.58,4.42-2,9.23-2.66,14.13-3.12a65.5,65.5,0,0,1,9.18-.14,49.86,49.86,0,0,1,15.84,3l.25.1c.75.24,1.49,1.16,2.08.84s.26-1.36.22-2.06c-.34-5.09-.57-10.2-3.87-14.73a.39.39,0,0,1,.09-.53,12.1,12.1,0,0,1,5.69,8.49A22.15,22.15,0,0,1,73,29.42a23.76,23.76,0,0,0,1.4,9.82,12.34,12.34,0,0,1,.75,4.58c0,1.42-.35,1.66-1.95,1.16-1.44-.45-2.82-1-4.22-1.54C65.5,42.12,62,40.89,58.42,39.85a35.31,35.31,0,0,0-20.93.33c-3.81,1.2-7.5,2.62-11.19,4.06a21.45,21.45,0,0,1-2.38.8c-1,.24-1.45-.08-1.45-1a23.47,23.47,0,0,1,1.79-8.17,6.53,6.53,0,0,0,.42-2.38,38.61,38.61,0,0,1,.86-10.87A12,12,0,0,1,32,14.59Z" fill="#b5bec9"/><path d="M51.36,10.92H46.72c-.24-.93.13-1.35,1.3-1.25a21.34,21.34,0,0,0,2.4,0C51.56,9.65,51.91,10,51.36,10.92Z" fill="#b5bec9"/><path d="M66.57,15.33l-.37-.23C66.48,15,66.57,15.1,66.57,15.33Z" fill="#b5bec9"/><path d="M24.68,33.5s10-6.09,25.15-5.12,23.32,5.53,23.32,5.53" fill="none" stroke="#848f9c" stroke-linecap="round" stroke-linejoin="round" stroke-width="0.5"/><line x1="51.36" y1="10.66" x2="46.72" y2="10.66" fill="none" stroke="#848f9c" stroke-linecap="round" stroke-linejoin="round" stroke-width="0.5"/><path d="M32.94,13.23A34.51,34.51,0,0,0,28.35,22a19.79,19.79,0,0,0-.84,5.27c0,1.24-.37,3.84.54,4.87" fill="none" stroke="#848f9c" stroke-linecap="round" stroke-linejoin="round" stroke-width="0.5"/><path d="M70.29,32.58c-.23-2.69,0-5.39-.32-8.07a19.28,19.28,0,0,0-5-11" fill="none" stroke="#848f9c" stroke-linecap="round" stroke-linejoin="round" stroke-width="0.5"/><path d="M47.7,9.65l.32,0c.36,0,.72,0,1.08,0l1.32,0h.13c1,0,1.34.38.81,1.24A44,44,0,0,1,65,14.25c.46.21,1,.38,1.2.85a.54.54,0,0,1,.19,0c.13,0,.18.1.18.27l.05-.09.11,0a12.1,12.1,0,0,1,5.69,8.49A22.15,22.15,0,0,1,73,29.42a23.76,23.76,0,0,0,1.4,9.82,12.34,12.34,0,0,1,.75,4.58c0,1-.18,1.4-.81,1.4A3.92,3.92,0,0,1,73.18,45c-1.44-.45-2.82-1-4.22-1.54C65.5,42.13,62,40.89,58.42,39.85a35.16,35.16,0,0,0-9.86-1.43,36.67,36.67,0,0,0-11.07,1.76c-3.81,1.2-7.5,2.62-11.19,4.06a21.45,21.45,0,0,1-2.38.8,2.3,2.3,0,0,1-.55.07c-.59,0-.9-.34-.9-1.06a23.47,23.47,0,0,1,1.79-8.17,6.53,6.53,0,0,0,.42-2.38,38.59,38.59,0,0,1,.86-10.87,12,12,0,0,1,6.49-8c3.3-1.84,7-2.59,10.84-3.22a22,22,0,0,1,3.54-.46h.31c-.22-.84.06-1.27,1-1.27m0-1h0a2,2,0,0,0-1.7.7,1.55,1.55,0,0,0-.29.59,21.22,21.22,0,0,0-2.3.32l-.71.13C39,11,35,11.77,31.55,13.72a12.81,12.81,0,0,0-7,8.65,39.84,39.84,0,0,0-.89,11.15,5.31,5.31,0,0,1-.36,2,24.54,24.54,0,0,0-1.85,8.52,1.86,1.86,0,0,0,1.9,2.06,2.83,2.83,0,0,0,.79-.11,21.08,21.08,0,0,0,2.51-.83c3.69-1.44,7.32-2.84,11.12-4a35.72,35.72,0,0,1,10.77-1.72,34.37,34.37,0,0,1,9.58,1.39c3.12.9,6.35,2,10.46,3.56l.9.35c1.1.42,2.22.86,3.38,1.22a4.81,4.81,0,0,0,1.44.28c1.77,0,1.8-1.79,1.81-2.38a13.34,13.34,0,0,0-.81-5A22.66,22.66,0,0,1,74,29.48a22.61,22.61,0,0,0-.58-5.93,13.08,13.08,0,0,0-6.15-9.14h0l0,0a1.13,1.13,0,0,0-.51-.29,3.36,3.36,0,0,0-1.1-.67l-.18-.08a42.88,42.88,0,0,0-12.81-3.29,1.48,1.48,0,0,0-.17-.54,2.07,2.07,0,0,0-1.89-.84h-.39l-1.06,0c-.38,0-.7,0-1,0l-.4,0Z" fill="#637585"/></g></svg>