<svg xmlns="http://www.w3.org/2000/svg" width="100" height="100" viewBox="0 0 100 100"><g id="eyes"><path d="M78.79,36.1H74c0-11.92-11.19-21.61-24.94-21.61S24.16,24.18,24.16,36.1H19.39c0-14.55,13.32-26.38,29.7-26.38S78.79,21.55,78.79,36.1Z" fill="#434444" stroke="#1e2223" stroke-miterlimit="10"/><rect x="23.98" y="34.93" width="3.47" height="13.45" rx="1.73" fill="#434444" stroke="#1e2223" stroke-miterlimit="10"/><path d="M25.69,34.78a1.38,1.38,0,0,0-1.35-1.38h-.06a8.16,8.16,0,0,0,0,16.31h.06a1.37,1.37,0,0,0,1.35-1.37Z" fill="#434444" stroke="#1e2223" stroke-miterlimit="10"/><rect x="70.9" y="34.93" width="3.47" height="13.45" rx="1.73" transform="translate(145.26 83.32) rotate(180)" fill="#434444" stroke="#1e2223" stroke-miterlimit="10"/><path d="M72.65,34.78A1.37,1.37,0,0,1,74,33.4h.07a8.16,8.16,0,0,1,0,16.31H74a1.37,1.37,0,0,1-1.34-1.37Z" fill="#434444" stroke="#1e2223" stroke-miterlimit="10"/></g></svg>