<svg xmlns="http://www.w3.org/2000/svg" width="100" height="100" viewBox="0 0 100 100"><g id="eyes"><path d="M55.4,60.82a2.1,2.1,0,0,1,2,2.76c-1.12,3.2-4.16,4.46-7.75,4.47s-6.65-1.21-7.8-4.4a2.11,2.11,0,0,1,2-2.78Z" fill="#fff"/><path d="M55.4,60.82a2.1,2.1,0,0,1,2,2.76c-1.12,3.2-4.16,4.46-7.75,4.47s-6.65-1.21-7.8-4.4a2.11,2.11,0,0,1,2-2.78Z" fill="none" stroke="#000" stroke-miterlimit="10" stroke-width="1.08"/><line x1="42.37" y1="63.93" x2="47.33" y2="63.93" fill="none" stroke="#000" stroke-linecap="round" stroke-linejoin="round" stroke-width="0.81"/><line x1="51.93" y1="63.93" x2="56.88" y2="63.93" fill="none" stroke="#000" stroke-linecap="round" stroke-linejoin="round" stroke-width="0.81"/><path d="M32,74.52a2.35,2.35,0,0,1-.46-.06c-2.31-.51-3.33-2.86-4.15-4.74-.43-1-.92-2-1.38-3a50.2,50.2,0,0,1-2.17-4.9A15.21,15.21,0,0,1,23,53c.34-1.35,1.09-2.15,2.06-2.2h0a2.67,2.67,0,0,1,2.36,2.06A35.8,35.8,0,0,0,29,56.54a33.29,33.29,0,0,1,1.78,4.08l.24.69c1.28,3.74,2.6,7.62,2.34,11.62a1.64,1.64,0,0,1-.71,1.4A1.38,1.38,0,0,1,32,74.52ZM25.11,52.37c-.13,0-.41.28-.59,1a13.78,13.78,0,0,0,.8,8c.59,1.61,1.36,3.19,2.1,4.73.48,1,1,2,1.42,3,.66,1.52,1.49,3.42,3,3.8v-.06c.24-3.69-1-7.41-2.26-11l-.23-.69a34.5,34.5,0,0,0-1.71-3.89,36.26,36.26,0,0,1-1.7-3.87c-.25-.69-.62-1-.8-1v0Z" fill="#e3e5e5"/><path d="M25.14,51.28c.74,0,1.42.66,1.79,1.72a37.26,37.26,0,0,0,1.66,3.76,35.4,35.4,0,0,1,1.76,4l.23.69c1.27,3.7,2.57,7.52,2.32,11.43a1.15,1.15,0,0,1-.46,1A.87.87,0,0,1,32,74a1.73,1.73,0,0,1-.35,0c-2.06-.46-3-2.67-3.8-4.45-.44-1-.93-2-1.4-3a51.6,51.6,0,0,1-2.14-4.85,14.75,14.75,0,0,1-.84-8.59c.28-1.12.87-1.78,1.6-1.82h.08M32,73.42a.33.33,0,0,0,.15,0c.13-.08.16-.34.17-.53.25-3.79-1-7.56-2.29-11.2L29.79,61A34,34,0,0,0,28.06,57a35.34,35.34,0,0,1-1.68-3.82c-.29-.82-.79-1.33-1.27-1.33h0c-.45,0-.84.54-1.05,1.38a14.15,14.15,0,0,0,.81,8.24A50.15,50.15,0,0,0,27,66.28c.47,1,1,2,1.4,3C29.1,70.94,30,73,31.77,73.4l.22,0M25.14,50.28H25c-1.17.06-2.12,1-2.51,2.58A15.77,15.77,0,0,0,23.36,62,50.19,50.19,0,0,0,25.54,67c.47,1,.95,2,1.38,3,.82,1.88,1.94,4.46,4.5,5A3,3,0,0,0,32,75a1.81,1.81,0,0,0,.95-.26,2.12,2.12,0,0,0,1-1.8c.26-4.1-1.07-8-2.37-11.81l-.23-.69a36.94,36.94,0,0,0-1.81-4.14,32.89,32.89,0,0,1-1.61-3.65,3.14,3.14,0,0,0-2.74-2.39Zm6.2,21.84a7.86,7.86,0,0,1-2-3.23c-.46-1-.95-2.06-1.42-3a51.43,51.43,0,0,1-2.09-4.7A13.22,13.22,0,0,1,25,53.49a2.5,2.5,0,0,1,.16-.47,1.82,1.82,0,0,1,.26.51,37.74,37.74,0,0,0,1.73,3.92,33.35,33.35,0,0,1,1.68,3.84l.24.69c1.14,3.33,2.31,6.77,2.26,10.14Z" fill="#5e6b6d"/><path d="M66.59,73.94a.92.92,0,0,1-.29,0,.92.92,0,0,1-.64-.7l-.1-.49,1-.21v-.15c-.12,0-.16.05-.18.08a29.61,29.61,0,0,0,6.5-11.24A20.32,20.32,0,0,0,74.15,56a7.07,7.07,0,0,0-.36-2.85,3.37,3.37,0,0,0-.43.5,8.18,8.18,0,0,0-1,2.25,7.3,7.3,0,0,1-2.14,3.55,5.07,5.07,0,0,1-.77.45,5.06,5.06,0,0,0-1.14.66l-.14.33-.32-.11-1.06-.09.06-1.29.36,0a6.63,6.63,0,0,1,1.51-.94c.21-.11.43-.22.51-.28a5.8,5.8,0,0,0,1.63-2.83,9.6,9.6,0,0,1,1.27-2.67c.24-.33.89-1.2,1.77-1.2a1.5,1.5,0,0,1,.47.08c1.68.63,1.42,4.49,1.42,4.53a22.24,22.24,0,0,1-1.37,5.58c-1.78,5.06-4.09,9-6.88,11.83a1.32,1.32,0,0,1-.9.39Z" fill="#e3e5e5"/><path d="M73.86,52a1,1,0,0,1,.28,0c1.13.42,1.15,3.28,1.1,4a21.35,21.35,0,0,1-1.34,5.44A30.69,30.69,0,0,1,67.14,73.2a.84.84,0,0,1-.55.24h0l-.14,0a.41.41,0,0,1-.3-.32l.58-.13a.18.18,0,0,0-.14-.12h0a.28.28,0,0,0,.13-.07,30,30,0,0,0,6.62-11.43,20.5,20.5,0,0,0,1.31-5.29c.09-1.24-.17-3.22-.71-3.42l-.08,0c-.22,0-.55.28-.91.76a8.66,8.66,0,0,0-1.11,2.38,6.9,6.9,0,0,1-2,3.33,4.09,4.09,0,0,1-.69.39,5.19,5.19,0,0,0-1.33.83l-.58-.05h0V60h.1a4.77,4.77,0,0,1,1.53-1,5.1,5.1,0,0,0,.59-.32,6.27,6.27,0,0,0,1.79-3.07A9.61,9.61,0,0,1,72.48,53c.2-.27.74-1,1.38-1m0-1h0a2.94,2.94,0,0,0-2.18,1.4,10.37,10.37,0,0,0-1.34,2.8,5.49,5.49,0,0,1-1.48,2.62l-.4.21a8.24,8.24,0,0,0-1.48.88l-.66,0,0,1v.31l-.05,1,1,.09.58.05.73.07.21-.49a9.94,9.94,0,0,1,.93-.52,4.66,4.66,0,0,0,.86-.5,7.77,7.77,0,0,0,2.3-3.77,9.88,9.88,0,0,1,.79-1.84A7.53,7.53,0,0,1,73.65,56a19.62,19.62,0,0,1-1.25,5,29.15,29.15,0,0,1-6.37,11,.68.68,0,0,1,.48-.21l0,.19v0l-.58.12-1,.21.21,1a1.43,1.43,0,0,0,1,1.07,1.54,1.54,0,0,0,.43.06,1.83,1.83,0,0,0,1.26-.54,31.55,31.55,0,0,0,7-12,21.93,21.93,0,0,0,1.4-5.7c0-.44.25-4.29-1.75-5a2,2,0,0,0-.63-.11Z" fill="#5e6b6d"/><path d="M27,58.79c.1,1.37.46,2.69.64,4.07.2,1.6.3,3.21.55,4.81a11.64,11.64,0,0,0,2.44,5.89c1.54,1.76,4.1,2.48,6.3,3A63.61,63.61,0,0,0,53.68,78,31.92,31.92,0,0,0,63.35,76a11,11,0,0,0,6.18-5.42,30.85,30.85,0,0,0,2-10.59,4.12,4.12,0,0,0-.77-2.9c-.8-.78-2.51-.82-3.55-.88a15.34,15.34,0,0,1-7.46-2c-3-1.83-5.46-4-9.15-3.54-2,.21-4.18-.11-6.1.43C42,51.8,40.23,53.81,38,55a13.11,13.11,0,0,1-8.67,1.4c-1.23-.29-2.05-.34-2.28,1A5.79,5.79,0,0,0,27,58.79Z" fill="#e3e5e5" stroke="#5e6b6d" stroke-miterlimit="10"/><path d="M27.4,58.78c3.32.18,6.74.35,9.88-.76,1.79-.63,3.41-1.64,5.14-2.4a19.11,19.11,0,0,1,3.78-1.2,16.06,16.06,0,0,1,9,.61,48.49,48.49,0,0,1,4.51,2.24,30.08,30.08,0,0,0,11.75,3.15" fill="#e3e5e5" stroke="#5e6b6d" stroke-miterlimit="10" stroke-width="0.3"/><path d="M29.26,63.1a17.6,17.6,0,0,0,6.46-.56c1.89-.54,3.57-1.61,5.4-2.28A23.18,23.18,0,0,1,47.22,59c5-.39,9.62.93,14.29,2.6a19.1,19.1,0,0,0,7.25,1.59" fill="none" stroke="#aeb5b5" stroke-linecap="round" stroke-linejoin="round"/><path d="M31.47,66.75c4.5,1.3,9.56.15,14.16.06A96.79,96.79,0,0,1,55.85,67a64.74,64.74,0,0,0,10.6.5" fill="none" stroke="#aeb5b5" stroke-linecap="round" stroke-linejoin="round"/><path d="M32,71.1c4.86,1,9.63,2.54,14.59,2.89a37.48,37.48,0,0,0,9.69-.57c3.13-.61,6.28-2.24,9.53-2" fill="none" stroke="#aeb5b5" stroke-linecap="round" stroke-linejoin="round"/></g></svg>