<svg xmlns="http://www.w3.org/2000/svg" width="100" height="100" viewBox="0 0 100 100"><g id="Isolation_Mode" data-name="Isolation Mode"><path d="M74.72,59.53a.76.76,0,0,1,.84.52l6.1,21.44a2.17,2.17,0,0,0,.15.35h0a4.85,4.85,0,0,0,.55.79,3,3,0,0,0,1.49.92,7.51,7.51,0,0,0,3.59-.08l4.12-.79a2.49,2.49,0,0,1,2.27.33,1.57,1.57,0,0,1,.46,1.47,2.67,2.67,0,0,1-2.06,1.78,17.58,17.58,0,0,1-4.82.75,14.27,14.27,0,0,1-2.68-.23,10.07,10.07,0,0,1-1.2-.31,4.92,4.92,0,0,1-1.14-.53,4,4,0,0,1-.85-.57.7.7,0,0,1-.25-.36h0a2,2,0,0,1-.17-.47c-.08-.28-.15-.56-.21-.85l-6.67-23.4A.59.59,0,0,1,74.72,59.53Z" fill="#d8be93"/><path d="M74.54,59.59a.7.7,0,0,0,0,.32l6.67,23.4c.06.29.13.57.2.85a3.75,3.75,0,0,0,.17.47h0a.76.76,0,0,0,.26.37,4,4,0,0,0,.84.57,5.61,5.61,0,0,0,1.14.53,10.22,10.22,0,0,0,1.21.31,14.27,14.27,0,0,0,2.68.23,17.21,17.21,0,0,0,4.81-.76,3.55,3.55,0,0,0,1.51-.8,3.13,3.13,0,0,1-1.81,1.18,17.58,17.58,0,0,1-4.82.75,14.27,14.27,0,0,1-2.68-.23,10.07,10.07,0,0,1-1.2-.31,4.92,4.92,0,0,1-1.14-.53,4,4,0,0,1-.85-.57.7.7,0,0,1-.25-.36h0a2,2,0,0,1-.17-.47c-.08-.28-.15-.56-.21-.85l-6.67-23.4A.58.58,0,0,1,74.54,59.59Z" fill="#ceae80"/><path d="M74.72,59.53a.76.76,0,0,1,.84.52l6.1,21.44a2.17,2.17,0,0,0,.15.35h0a4.85,4.85,0,0,0,.55.79,3,3,0,0,0,1.49.92,7.51,7.51,0,0,0,3.59-.08l4.12-.79a2.49,2.49,0,0,1,2.27.33,1.57,1.57,0,0,1,.46,1.47,2.67,2.67,0,0,1-2.06,1.78,17.58,17.58,0,0,1-4.82.75,14.27,14.27,0,0,1-2.68-.23,10.07,10.07,0,0,1-1.2-.31,4.92,4.92,0,0,1-1.14-.53,4,4,0,0,1-.85-.57.7.7,0,0,1-.25-.36h0a2,2,0,0,1-.17-.47c-.08-.28-.15-.56-.21-.85l-6.67-23.4A.59.59,0,0,1,74.72,59.53Z" fill="none" stroke="#ad8c5e" stroke-miterlimit="10" stroke-width="0.13"/><path d="M78,68l.49,1.72a3.08,3.08,0,0,1-1.65,0l-.29-1A2,2,0,0,0,78,68Z" fill="#f2ede7" stroke="#999898" stroke-linecap="round" stroke-linejoin="round" stroke-width="0.13"/><path d="M76.5,68.66l-.62-2.14a1.93,1.93,0,0,0,1.64,0L78,68A2,2,0,0,1,76.5,68.66Z" fill="#f2ede7" stroke="#999898" stroke-linecap="round" stroke-linejoin="round" stroke-width="0.13"/><path d="M77.22,65.4l.3,1.08a1.93,1.93,0,0,1-1.64,0l-.36-1.28A5.68,5.68,0,0,0,77.22,65.4Z" fill="#f2ede7" stroke="#999898" stroke-linecap="round" stroke-linejoin="round" stroke-width="0.13"/><path d="M75.16,64a2.4,2.4,0,0,0,1.58-.24l.48,1.68a5.68,5.68,0,0,1-1.7-.16Z" fill="#f2ede7" stroke="#999898" stroke-linecap="round" stroke-linejoin="round" stroke-width="0.13"/><path d="M76.29,62.13l.45,1.59a2.4,2.4,0,0,1-1.58.24l-.28-1A2,2,0,0,0,76.29,62.13Z" fill="#f2ede7" stroke="#999898" stroke-linecap="round" stroke-linejoin="round" stroke-width="0.13"/><path d="M74.68,59.41a.87.87,0,0,1,.59.1.93.93,0,0,1,.42.52l.6,2.1a2,2,0,0,1-1.41.86l-.77-2.69A.69.69,0,0,1,74.68,59.41Z" fill="#f2ede7" stroke="#999898" stroke-linecap="round" stroke-linejoin="round" stroke-width="0.13"/><path d="M90,82.85l1-.2a8.66,8.66,0,0,1,.31,4c-.42.1-.82.19-1.22.26A5.43,5.43,0,0,0,90,82.85Z" fill="#f2ede7" stroke="#999898" stroke-linecap="round" stroke-linejoin="round" stroke-width="0.13"/><path d="M89.14,84.85a7,7,0,0,0-.73-1.7l1.57-.3a5.43,5.43,0,0,1,.13,4l-.75.11a6.2,6.2,0,0,0-.22-2.17Z" fill="#f2ede7" stroke="#999898" stroke-linecap="round" stroke-linejoin="round" stroke-width="0.13"/><path d="M88.41,83.15a7.31,7.31,0,0,1,.73,1.68c-.25.76-.43,1.55-.74,2.27-.27,0-.55,0-.81,0A8.65,8.65,0,0,0,87.38,86a8,8,0,0,0,.2-2.69Z" fill="#f2ede7" stroke="#999898" stroke-linecap="round" stroke-linejoin="round" stroke-width="0.13"/><path d="M87.59,87.13H86.9A4.18,4.18,0,0,0,87.38,86,8.65,8.65,0,0,1,87.59,87.13Z" fill="#f2ede7" stroke="#999898" stroke-linecap="round" stroke-linejoin="round" stroke-width="0.13"/><path d="M89.14,84.83A6.2,6.2,0,0,1,89.36,87c-.32,0-.64.08-1,.1C88.71,86.38,88.89,85.59,89.14,84.83Z" fill="#f2ede7" stroke="#999898" stroke-linecap="round" stroke-linejoin="round" stroke-width="0.13"/><path d="M87.4,83.35l.18,0a8,8,0,0,1-.2,2.69,5.6,5.6,0,0,0-1.23-2.44C86.59,83.5,87,83.42,87.4,83.35Z" fill="#f2ede7" stroke="#999898" stroke-linecap="round" stroke-linejoin="round" stroke-width="0.13"/><path d="M85.43,83.61l.72,0A5.6,5.6,0,0,1,87.38,86a4.18,4.18,0,0,1-.48,1.13c-.46,0-.9,0-1.31-.09A3.84,3.84,0,0,0,85.43,83.61Z" fill="#f2ede7" stroke="#999898" stroke-linecap="round" stroke-linejoin="round" stroke-width="0.13"/><path d="M84.59,83.58a5.9,5.9,0,0,0,.84,0A3.84,3.84,0,0,1,85.59,87l-.87-.13a10.34,10.34,0,0,1-1.22-.31l0,0A6.2,6.2,0,0,0,84.59,83.58Z" fill="#f2ede7" stroke="#999898" stroke-linecap="round" stroke-linejoin="round" stroke-width="0.13"/><path d="M84.7,83.59c0,.09,0,.18,0,.28s.07.43.08.65,0,.22,0,.32v.1a.68.68,0,0,1,0,.14.19.19,0,0,1,0,.07v.07l0,.06,0,0h0l0,0s-.08.05,0,0a.33.33,0,0,0,.12.6c.2.07.38.22.58.31a.33.33,0,0,0,.5-.18,3.06,3.06,0,0,0,0-1.28,3.48,3.48,0,0,0-.4-1.23h.1a.78.78,0,0,0,.05.14.31.31,0,0,0,0,.21l0,.09v0l.07.14.12.29c.07.19.13.39.19.59a10,10,0,0,0,.42,1.2.39.39,0,0,0,.3.24.33.33,0,0,0,.34-.14.88.88,0,0,0,.11-.64,4.19,4.19,0,0,0-.57-1.35c-.16-.28-.34-.56-.5-.85l.3,0,0,.08c0,.1.08.21.13.31l0,.08,0,.08s.05.11.08.16.09.21.12.31a.39.39,0,0,0,.3.24c.64.1.41-1.13.33-1.45a.45.45,0,0,0,.16,0,11.56,11.56,0,0,0,.21,2.55.72.72,0,0,0,.3.5c.18.12.48,0,.5-.18a1.8,1.8,0,0,1,.1-.4,1.09,1.09,0,0,0,0-.14,1.8,1.8,0,0,0,.08-.21,1.39,1.39,0,0,0,.09-.35,1,1,0,0,0,0-.39A3.32,3.32,0,0,0,88.8,84a2.86,2.86,0,0,0-.33-.59l-.06-.06s0-.08,0-.12l0-.06.07,0,.28-.05c0,.11.06.21.1.32.15.37.33.74.45,1.12l0,.06v.07c0,.06,0,.13,0,.19l0,.46a1.56,1.56,0,0,0,.23.84.41.41,0,0,0,.51.15.88.88,0,0,0,.36-.74,4.33,4.33,0,0,0,0-.88c0-.09,0-.19,0-.28a.27.27,0,0,0,0-.18A5.34,5.34,0,0,0,90,82.86h0l.38-.07a4.42,4.42,0,0,1,.33,1.46,8,8,0,0,1,0,1.55.39.39,0,0,0,.38.45.89.89,0,0,0,.33,0c0,.14,0,.28,0,.42-.42.1-.82.19-1.22.26l-.75.11c-.32,0-.64.08-1,.1s-.55,0-.81,0H86.9c-.46,0-.9,0-1.31-.09l-.87-.13a10.34,10.34,0,0,1-1.22-.31l0,0a6.2,6.2,0,0,0,1.13-3Z" fill="#999898" opacity="0.5"/><path d="M74.53,61.25l1.42-.2a.73.73,0,0,0,.62-.91l-.16-.61a.93.93,0,0,0-1-.67l-1.43.2a.73.73,0,0,0-.62.91l.16.61A.94.94,0,0,0,74.53,61.25Z" fill="#f2ede7" stroke="#999898" stroke-linecap="round" stroke-linejoin="round" stroke-width="0.13"/><path d="M74,59.06l.32,0,0,0a.69.69,0,0,0-.32.41.65.65,0,0,0,.38.76,2,2,0,0,0,.79.2l.62,0a1.23,1.23,0,0,0,.87-.19A.71.71,0,0,1,76,61l0,.09a.33.33,0,0,0-.14,0h0a2.24,2.24,0,0,0-.68.1l0,0,0,0h0l0,0a.51.51,0,0,0-.15.23.63.63,0,0,0,.12.49.57.57,0,0,0,.11.11,1.32,1.32,0,0,0,.23.35.46.46,0,0,0,.22.11.35.35,0,0,0,.23,0,2,2,0,0,0,.45-.32l.1-.12.08.26a.77.77,0,0,0-.21.14l-.17.14a1.67,1.67,0,0,0-.23.23.48.48,0,0,0-.06.24.53.53,0,0,0,.08.24.57.57,0,0,0,.08.13l.07.09.07.09a.51.51,0,0,0,.18.09l.13,0h.13c-.1.06-.22.1-.32.16a.69.69,0,0,0-.22.23.57.57,0,0,0-.05.34,1,1,0,0,0,.28.57,1.4,1.4,0,0,0,.51.31,1.2,1.2,0,0,0,.46.07l.14,0,0,.07h-.07a3,3,0,0,0-.42,0,.31.31,0,0,0-.2.15.28.28,0,0,0,0,.25,1.31,1.31,0,0,1,.09.28.78.78,0,0,1,0,.16.38.38,0,0,0,.17.27.74.74,0,0,0-.17.43A2.17,2.17,0,0,0,77,68.23a.39.39,0,0,0,.28.18h0a.52.52,0,0,0-.11.42,1.39,1.39,0,0,0,.23.58,2.39,2.39,0,0,0,.13.21.56.56,0,0,0,0,.08l0,0h0a.21.21,0,0,0,0,.06,4,4,0,0,1-.83-.12l-.29-1-.62-2.14-.36-1.28L75.16,64l-.28-1-.5-1.73a.93.93,0,0,1-.87-.68L73.35,60A.73.73,0,0,1,74,59.06Z" fill="#999898" opacity="0.5"/><path d="M75.52,58.85a.93.93,0,0,1,.89.68l.16.61a.73.73,0,0,1-.12.63h0l-.09.09h0A.71.71,0,0,1,76,61l.32,1.09v0h0l.08.26h0l.37,1.31.48,1.68,0,.07,0,.07h0l.26.94L78,68l.49,1.72-.12,0,3.34,11.75a2.17,2.17,0,0,0,.15.35h0a4.85,4.85,0,0,0,.55.79,3,3,0,0,0,1.49.92,4.61,4.61,0,0,0,.72.15.5.5,0,0,0,0-.12h.11l.55,0h.32l.58,0h0l.3,0,.9-.16.18,0,.76-.14.07,0,.28-.05L90,82.86h0l.38-.07h0l.66-.13a.5.5,0,0,0,0,.13l.5-.1a5.47,5.47,0,0,1,1-.12,1.81,1.81,0,0,1,1.27.45,1.57,1.57,0,0,1,.46,1.47,1.9,1.9,0,0,1-.25.6h0a.76.76,0,0,1-.08.11h0a1.85,1.85,0,0,1-.36.38h0a3.13,3.13,0,0,1-.42.29l0,0-.09,0,0,0-.09,0-.13.06-.06,0-.1,0-.06,0-.1,0-.06,0-.15.05-.88.23c0,.05,0,.1,0,.14-.42.1-.82.19-1.22.26l-.75.11c-.32,0-.64.08-1,.1s-.54,0-.81,0H86.9c-.46,0-.9,0-1.31-.09l-.87-.13a10.34,10.34,0,0,1-1.22-.31l0,0,.08-.1h0l-.12,0L83,86.26l0,0a4.68,4.68,0,0,1-.54-.3l-.22-.12a3.14,3.14,0,0,1-.63-.45.7.7,0,0,1-.25-.36h0a2,2,0,0,1-.17-.47c-.08-.28-.15-.56-.21-.85l-4-14-.15,0-.29-1-.62-2.14-.36-1.28L75.16,64l-.28-1-.5-1.73-.14,0h0a.91.91,0,0,1-.4-.18h0l-.1-.09h0l-.08-.1v0l-.07-.11v0a.5.5,0,0,1,0-.13h0L73.35,60a.73.73,0,0,1,.19-.7l0,0,.11-.08a1,1,0,0,1,.3-.11l1.43-.2h.12M94,85.08h0M75.52,57.85l-.26,0-1.43.2a1.85,1.85,0,0,0-.69.25l-.25.19,0,0a1.74,1.74,0,0,0-.46,1.66l.16.62a2.31,2.31,0,0,0,.1.28c.06.12.1.2.15.28l0,.06a2.31,2.31,0,0,0,.16.19,1.44,1.44,0,0,0,.24.21,1.59,1.59,0,0,0,.35.22l.34,1.19.27,1,.37,1.27.36,1.28.61,2.15.3,1a1,1,0,0,0,.26.44l3.85,13.51c.06.28.13.58.22.88a3.29,3.29,0,0,0,.2.57,1.74,1.74,0,0,0,.51.75,4,4,0,0,0,.8.56l.19.12a6.65,6.65,0,0,0,.65.34l0,0,.13.07a1.08,1.08,0,0,0,.45.3l0,0a10.49,10.49,0,0,0,1.34.34c.3.06.62.1,1,.14s.91.08,1.39.1h.73q.44,0,.87,0c.34,0,.68-.06,1-.1l.79-.13c.44-.07.86-.16,1.29-.27a1,1,0,0,0,.46-.25l.47-.13.19-.06.06,0,.13,0,.07,0,.12,0,.07,0,.17-.07.1,0,.08,0,.11-.06.06,0a5.72,5.72,0,0,0,.57-.39,3.08,3.08,0,0,0,.53-.56l0,0,.09-.13a2.94,2.94,0,0,0,.38-.92,2.55,2.55,0,0,0-.75-2.42,2.79,2.79,0,0,0-2-.72,6.07,6.07,0,0,0-1.19.14h0a.87.87,0,0,0-.32-.06l-.19,0-.66.13-.38.07-1.28.25-.29,0-.07,0-.76.14-.17,0-.87.16-.28,0c-.21,0-.38,0-.55,0h-.27a3.39,3.39,0,0,1-.45,0h-.13a1,1,0,0,0-.35.06l-.18,0a2.06,2.06,0,0,1-1-.62,4.23,4.23,0,0,1-.43-.62h0l0-.12L79.41,70a1,1,0,0,0,0-.52l-.48-1.72-.43-1.51-.27-.93,0-.08,0-.06-.48-1.68-.37-1.31-.08-.26-.11-.39.1-.11a1.74,1.74,0,0,0,.3-1.48l-.16-.62a1.93,1.93,0,0,0-1.86-1.43Z" fill="#705026"/><path d="M83.69,90.52v2.24c0,1.17,2.33,2.11,5.2,2.11s5.2-.94,5.2-2.11V90.52Z" fill="#424242" stroke="#262626" stroke-miterlimit="10" stroke-width="0.13"/><ellipse cx="88.89" cy="90.52" rx="5.2" ry="2.11" fill="#606060" stroke="#262626" stroke-miterlimit="10" stroke-width="0.13"/><path d="M84.46,91.24c1.82,1.22,8.68,1.51,9.49-.94a1.36,1.36,0,0,1-.7,1.06,9,9,0,0,1-8.79-.12Z" fill="#a0a0a0"/><path d="M88.89,88.41c2.87,0,5.2,1,5.2,2.11h0v2.24c0,1.17-2.33,2.11-5.2,2.11s-5.2-.94-5.2-2.11V90.52h0c0-1.16,2.33-2.11,5.2-2.11m0-1c-3,0-6.2,1-6.2,3.11v2.24c0,2.14,3.21,3.11,6.2,3.11s6.2-1,6.2-3.11V90.52c0-2.13-3.21-3.11-6.2-3.11Z" fill="#262626"/></g></svg>