<svg xmlns="http://www.w3.org/2000/svg" width="100" height="100" viewBox="0 0 100 100"><g id="Isolation_Mode" data-name="Isolation Mode"><path d="M82.85,87V83.08A8,8,0,0,0,91,74.94c0-5.11-3-8.17-8.15-8.17V62.89c7.2,0,12,4.86,12,12C94.88,83.24,87.84,87,82.85,87Z" fill="#565656" stroke="#303030" stroke-linecap="round" stroke-linejoin="round"/><rect x="75.56" y="74.45" width="2.06" height="4.56" transform="translate(49.65 -28.29) rotate(30.56)" fill="#707070" stroke="#303030" stroke-linecap="round" stroke-linejoin="round"/><rect x="88.36" y="51.17" width="3.25" height="5.75" transform="translate(39.98 -38.24) rotate(30.56)" fill="#565656" stroke="#303030" stroke-linecap="round" stroke-linejoin="round"/><rect x="77.05" y="70.33" width="3.25" height="5.75" transform="translate(48.15 -29.83) rotate(30.56)" fill="#707070" stroke="#303030" stroke-linecap="round" stroke-linejoin="round"/><rect x="70.34" y="82.52" width="12.88" height="2.49" transform="matrix(1, 0, 0, 1, 0.12, -0.11)" fill="#565656" stroke="#303030" stroke-linecap="round" stroke-linejoin="round"/><rect x="81.08" y="53.18" width="5.67" height="22.29" rx="0.89" transform="translate(44.36 -33.73) rotate(30.56)" fill="#a7a7a7" stroke="#303030" stroke-linecap="round" stroke-linejoin="round"/><rect x="81.17" y="82.53" width="4.09" height="10.84" rx="2.04" transform="matrix(1, 0, 0, 1, 0.12, -0.12)" fill="#a7a7a7" stroke="#303030" stroke-linecap="round" stroke-linejoin="round"/><rect x="72.57" y="92.04" width="20.01" height="4.2" transform="translate(0.13 -0.11) rotate(0.08)" fill="#a7a7a7" stroke="#303030" stroke-linecap="round" stroke-linejoin="round"/><circle cx="84.79" cy="64.83" r="2.89" fill="#a7a7a7" stroke="#303030" stroke-linecap="round" stroke-linejoin="round"/></g></svg>