<svg xmlns="http://www.w3.org/2000/svg" width="100" height="100" viewBox="0 0 100 100"><g id="Isolation_Mode" data-name="Isolation Mode"><path d="M28.46,50.88a9.33,9.33,0,0,1-4.12-3.39c-.83-1.24-1.42-3.22-3.27-3.09s-2.19,2-2.33,3.52c-.22,2.39.92,4.69,2.12,6.77a74.2,74.2,0,0,0,4.61,7.05" fill="#a0d8de" stroke="#4d898c" stroke-linecap="round" stroke-linejoin="round"/><path d="M23.84,41l4.64,3.89a1.16,1.16,0,0,1,.18,1.6l-2.27,3a1.18,1.18,0,0,1-1.59.27l-5-3.38Z" fill="#a7a7a7" stroke="#303030" stroke-linecap="round" stroke-linejoin="round" stroke-width="0.52"/><path d="M19.1,36.14l6.09,5.12a1.17,1.17,0,0,1,.18,1.6L22,47.32a1.17,1.17,0,0,1-1.58.27l-6.63-4.42Z" fill="#a7a7a7" stroke="#303030" stroke-linecap="round" stroke-linejoin="round" stroke-width="0.52"/><rect x="27.09" y="46.39" width="2.63" height="4.57" rx="0.85" transform="translate(-27.61 42.48) rotate(-53.43)" fill="#565656" stroke="#303030" stroke-linecap="round" stroke-linejoin="round"/><ellipse cx="4.86" cy="30.9" rx="5.29" ry="1.46" transform="translate(-22.85 16.39) rotate(-53.43)" fill="#d8deed" stroke="#647186" stroke-linecap="round" stroke-linejoin="round"/><path d="M9.33,27.2l11.12,9.1a1.16,1.16,0,0,1,.19,1.6L16,44.11a1.16,1.16,0,0,1-1.59.26L2.52,36.22Z" fill="#a7a7a7" stroke="#303030" stroke-linecap="round" stroke-linejoin="round" stroke-width="0.52"/><path d="M9.33,27.2l11.12,9.1a1.16,1.16,0,0,1,.36,1.28l4.38,3.68a1.16,1.16,0,0,1,.38,1.19l2.91,2.44a1.16,1.16,0,0,1,.18,1.6l-2.27,3a1.18,1.18,0,0,1-1.59.27l-3.18-2.13a1.15,1.15,0,0,1-1.2,0L15.64,44.4a1.17,1.17,0,0,1-1.28,0L2.52,36.22Z" fill="#a7a7a7"/><path d="M9.33,27.2c.93.75,1.9,1.46,2.76,2.29L9.77,32.42a3.31,3.31,0,0,0-1,2.27,3.14,3.14,0,0,0,1.41,1.89q3.1,2.49,6.44,4.67a1.34,1.34,0,0,0,.49.25,1.08,1.08,0,0,0,1-.43c.51-.63.89-1.4,1.4-2s.93-.87,1.35-1.36c.42.34.84.65,1.25,1L19.74,42a1,1,0,0,0-.14.24c-.21.82,2.76,2.54,3.31,3a.31.31,0,0,0,.22.09.29.29,0,0,0,.18-.13,26.45,26.45,0,0,0,2.27-2.8c0,.08.79.75.91.84a.34.34,0,0,1,.09.37,1.12,1.12,0,0,1-.24.33,18.12,18.12,0,0,0-1.22,1.41,1,1,0,0,0-.3.86,11.55,11.55,0,0,0,2.38,2c-.56.75-1.12,2.52-2.4,1.66l-3.18-2.13a1.15,1.15,0,0,1-1.2,0L15.64,44.4a1.17,1.17,0,0,1-1.28,0L2.52,36.22Z" fill="#909090"/><path d="M9.33,27.2l11.12,9.1a1.16,1.16,0,0,1,.36,1.28l4.38,3.68a1.16,1.16,0,0,1,.38,1.19l2.91,2.44a1.16,1.16,0,0,1,.18,1.6l-2.27,3a1.18,1.18,0,0,1-1.59.27l-3.18-2.13a1.15,1.15,0,0,1-1.2,0L15.64,44.4a1.17,1.17,0,0,1-1.28,0L2.52,36.22Z" fill="none" stroke="#303030" stroke-linecap="round" stroke-linejoin="round"/><rect x="-0.41" y="30.26" width="12.89" height="3.02" rx="0.91" transform="translate(-23.08 17.69) rotate(-53.43)" fill="#a7a7a7" stroke="#303030" stroke-linecap="round" stroke-linejoin="round"/><line x1="15.64" y1="44.4" x2="20.79" y2="37.57" fill="none" stroke="#303030" stroke-linecap="round" stroke-linejoin="round"/><line x1="21.62" y1="47.64" x2="25.55" y2="42.44" fill="none" stroke="#303030" stroke-linecap="round" stroke-linejoin="round"/><path d="M15.31,47.14a5,5,0,0,0,1.22,2.11,5.72,5.72,0,0,0,4.3,1.8,4,4,0,0,0,2.53-1,3.85,3.85,0,0,0,.29-4.74c-1.81-2.13-7.91-3.5-8.43.51A3.62,3.62,0,0,0,15.31,47.14Z" fill="#a0d8de" stroke="#4d898c" stroke-linecap="round" stroke-linejoin="round"/></g></svg>