<svg xmlns="http://www.w3.org/2000/svg" width="100" height="100" viewBox="0 0 100 100"><g id="eyes"><path d="M26.45,54.39a9.17,9.17,0,0,1-4.87-.85c-1.54-.65-3-1.51-4.52-2.15a6.16,6.16,0,0,0-2.26-.56,2.67,2.67,0,0,0-2.1.86c-.86,1-.54,2.6.19,3.71,1.76,2.66,5.55,5.08,8.2,6.79a19.24,19.24,0,0,0,7.65,3.08" fill="#92dbe0" stroke="#368c8e" stroke-linecap="round" stroke-linejoin="round"/><path d="M4.26,83.24l-.11,0a.38.38,0,0,1-.26-.44l2-9.48a.37.37,0,0,1,.17-.24.41.41,0,0,1,.19,0h.1l1.48.4a.37.37,0,0,1,.25.5L4.61,83A.39.39,0,0,1,4.26,83.24Z" fill="#a3d0e3"/><path d="M6.27,73.38l1.48.4L4.26,82.86l2-9.48m0-.75a.79.79,0,0,0-.39.11.75.75,0,0,0-.34.49l-2,9.47a.76.76,0,0,0,.52.88l.22,0a.75.75,0,0,0,.7-.48l3.49-9.08a.7.7,0,0,0,0-.6A.79.79,0,0,0,8,73.06l-1.48-.4a.69.69,0,0,0-.2,0Z" fill="#498da5"/><path d="M5.81,73.64l3.68-13a1,1,0,0,1,1-.64,1.57,1.57,0,0,1,.37,0,1,1,0,0,1,.86,1.19L8,74.24Z" fill="#aaa"/><path d="M10.46,60.34l.27,0c.41.11.68.44.6.73L7.75,73.78l-1.48-.4L9.85,60.7a.59.59,0,0,1,.61-.36m0-.75h0a1.3,1.3,0,0,0-1.33.91L5.55,73.18l-.21.73.73.2,1.48.4.72.19.2-.71,3.58-12.68a1.41,1.41,0,0,0-1.12-1.66,1.84,1.84,0,0,0-.47-.06Z" fill="#7a7a7a"/><path d="M11.11,52.45l4.34-16a1,1,0,0,1,1-.77,1.33,1.33,0,0,1,.28,0,1,1,0,0,1,.73,1.29L13.13,53Z" fill="#aaa"/><path d="M16.46,36.23h.14a.55.55,0,0,1,.39.68L12.78,52.39l-1.06-.29,4.21-15.47a.56.56,0,0,1,.53-.4m0-1h0A1.53,1.53,0,0,0,15,36.37L10.76,51.84l-.27,1,1,.26,1,.29,1,.27.26-1L18,37.18A1.49,1.49,0,0,0,17.8,36a1.52,1.52,0,0,0-.93-.73,1.4,1.4,0,0,0-.41-.05Z" fill="#7a7a7a"/><path d="M17.43,38.13a1.24,1.24,0,0,1-.38-.05l-1.63-.44a1.45,1.45,0,0,1-1-1.78l.13-.47a1.46,1.46,0,0,1,1.4-1.07,1.58,1.58,0,0,1,.38,0l1.63.44a1.46,1.46,0,0,1,1,1.79l-.13.46a1.45,1.45,0,0,1-1.4,1.07Z" fill="#bfc5c6"/><path d="M15.93,34.82a1.07,1.07,0,0,1,.25,0l1.63.45a.94.94,0,0,1,.67,1.16l-.13.47a.94.94,0,0,1-.92.7l-.25,0-1.63-.44A1,1,0,0,1,14.89,36l.12-.47a1,1,0,0,1,.92-.7m0-1a2,2,0,0,0-1.88,1.44l-.13.47a2,2,0,0,0,1.37,2.39l1.63.45a2.22,2.22,0,0,0,.51.06,2,2,0,0,0,1.89-1.43l.12-.47a2,2,0,0,0-1.37-2.4l-1.63-.44a1.75,1.75,0,0,0-.51-.07Z" fill="#656868"/><rect x="9.52" y="57.89" width="2.7" height="3.98" rx="1.06" transform="translate(5.62 120.5) rotate(-164.77)" fill="#595959"/><path d="M12.24,60.46a1.84,1.84,0,0,1-.47-.06l-1.89-.52A1.74,1.74,0,0,1,8.79,59a1.78,1.78,0,0,1-.18-1.37l3.6-13.24.08-.31c.06-.23.12-.46.2-.68s.25-.71.72-.71a.83.83,0,0,1,.51.21.81.81,0,0,0,.28.17l.56.15.14,0a.57.57,0,0,0,.55-.42l.26-1c.08-.3.12-.51.16-.72a5.69,5.69,0,0,1,.27-1.08L16,40l.12-.13a.64.64,0,0,1,.43-.16,2.52,2.52,0,0,1,1.17.48,5.93,5.93,0,0,1,1.84,1.46c.48.65,1.27,1.89,1,2.93a1,1,0,0,1-1,.8,1.09,1.09,0,0,1-.72-.29,4.65,4.65,0,0,1-.49-.5l-.26-.29L18,44.22,14,59.13A1.81,1.81,0,0,1,12.24,60.46Z" fill="#476eb2"/><path d="M16.54,40.21a3.13,3.13,0,0,1,1,.45A5.63,5.63,0,0,1,19.15,42a3.65,3.65,0,0,1,.92,2.51.53.53,0,0,1-.33.39.32.32,0,0,1-.14,0,.64.64,0,0,1-.39-.16c-.25-.22-.49-.53-.73-.77l-.69-.7L13.5,59a1.31,1.31,0,0,1-1.26,1,1,1,0,0,1-.34-.05L10,59.4a1.31,1.31,0,0,1-.92-1.6L10.14,54l1.8-6.64c.25-.93.51-1.85.76-2.77.08-.31.15-.65.26-1s.17-.37.25-.37.3.26.66.36l.56.15a.84.84,0,0,0,.27,0,1.07,1.07,0,0,0,1-.79c.1-.34.19-.69.29-1a13.19,13.19,0,0,1,.39-1.65s0,0,0-.06a.15.15,0,0,1,.1,0m0-1a1.13,1.13,0,0,0-.77.29,1,1,0,0,0-.29.43,6.2,6.2,0,0,0-.31,1.17,3.73,3.73,0,0,1-.12.58l0,.15-.24.9a.09.09,0,0,1-.07.05l-.56-.15L14,42.55a1.28,1.28,0,0,0-.81-.32,1.31,1.31,0,0,0-1.19,1,5.84,5.84,0,0,0-.21.73c0,.1-.05.2-.08.3L11,47.06l-.76,2.79L9.17,53.7,8.27,57l-.14.51a2.3,2.3,0,0,0,1.62,2.83l1.89.51a2.41,2.41,0,0,0,.6.08,2.32,2.32,0,0,0,2.23-1.7l3.82-14a3.07,3.07,0,0,0,.26.25,1.63,1.63,0,0,0,1.05.41,1.33,1.33,0,0,0,.45-.08,1.51,1.51,0,0,0,1-1.1c.31-1.24-.55-2.63-1.09-3.35A6.5,6.5,0,0,0,18,39.79l-.07,0a2.87,2.87,0,0,0-1.42-.55Z" fill="#163f70"/><line x1="13.47" y1="44.9" x2="10.77" y2="55.57" fill="none" stroke="#6a93ce" stroke-linecap="round" stroke-miterlimit="10" stroke-width="0.6"/><path d="M6.49,51.4a4,4,0,0,0-.38,1.46,3.37,3.37,0,0,0,.5,2.34A2.53,2.53,0,0,0,9.09,56a5.16,5.16,0,0,0,2.36-1.33c1.77-1.57,4.27-5.65.22-6.12A5.21,5.21,0,0,0,6.49,51.4Z" fill="#92dbe0" stroke="#368c8e" stroke-miterlimit="10"/></g></svg>