<svg xmlns="http://www.w3.org/2000/svg" width="100" height="100" viewBox="0 0 100 100"><g id="eyes"><path d="M41.39,49.14a2.4,2.4,0,0,1-.11.23c-.72,1.33-2.26,1.24-3.56,1.07L34,50a6.09,6.09,0,0,1-1.75-.39c-1.64-.71-1.64-2.78-.8-4.13,2.14-3.48,8.26-2.13,9.85,1.21A3.11,3.11,0,0,1,41.39,49.14Z" fill="#1a1a1a"/><ellipse cx="34.73" cy="46.21" rx="1.73" ry="1.25" transform="translate(-2.11 1.67) rotate(-2.67)" fill="#fff"/><path d="M55.83,49.14a2.4,2.4,0,0,0,.11.23c.72,1.33,2.26,1.24,3.55,1.07L63.26,50A6.17,6.17,0,0,0,65,49.58c1.64-.71,1.64-2.78.8-4.13C63.67,42,57.55,43.32,56,46.66A3.11,3.11,0,0,0,55.83,49.14Z" fill="#1a1a1a"/><ellipse cx="59.43" cy="46.47" rx="1.73" ry="1.25" transform="translate(-5 7.23) rotate(-6.68)" fill="#fff"/></g></svg>