<svg xmlns="http://www.w3.org/2000/svg" width="100" height="100" viewBox="0 0 100 100"><g id="Layer_1" data-name="Layer 1"><circle cx="39.98" cy="42.78" r="4.6" fill="#1a1a1a"/><circle cx="38.48" cy="41.5" r="1.5" fill="#fff"/><circle cx="61.73" cy="42.35" r="4.6" fill="#1a1a1a"/><circle cx="59.89" cy="40.96" r="1.5" fill="#fff"/><path d="M41.29,39.43c-1.57-1.46-1-3.79-.15-5.44a.28.28,0,0,1,.39-.11.29.29,0,0,1,.13.35,5.92,5.92,0,0,0-.38,2.38A2.61,2.61,0,0,0,42,38.46a.59.59,0,1,1-.66,1Z" fill="#1a1a1a"/><path d="M37.49,39.44a3.64,3.64,0,0,1-.91-4.88.14.14,0,0,1,.26.12,3.35,3.35,0,0,0,0,2.19,2.41,2.41,0,0,0,1.31,1.38.68.68,0,0,1,.41.89.69.69,0,0,1-1.08.3Z" fill="#1a1a1a"/><path d="M36.48,40.79a2.23,2.23,0,0,1-2.35-1.4.2.2,0,0,1,.1-.24.19.19,0,0,1,.22.07,1.61,1.61,0,0,0,1.8.69.46.46,0,1,1,.23.88Z" fill="#1a1a1a"/><path d="M59.45,38.32c1-1,.74-2.94.29-4.23a.29.29,0,0,1,.52-.23,6.8,6.8,0,0,1,.79,2.59,3.16,3.16,0,0,1-.95,2.86.59.59,0,1,1-.65-1Z" fill="#1a1a1a"/><path d="M63.24,38.11a2.82,2.82,0,0,0,1.32-3.56.14.14,0,0,1,.26-.12,3.63,3.63,0,0,1-.95,4.9.69.69,0,1,1-.63-1.22Z" fill="#1a1a1a"/><path d="M65.15,39.77a1.61,1.61,0,0,0,1.8-.68A.18.18,0,0,1,67.2,39a.17.17,0,0,1,.06.21,2.38,2.38,0,0,1-.87,1.07,2,2,0,0,1-1.52.33.46.46,0,1,1,.28-.88Z" fill="#1a1a1a"/></g></svg>