<svg xmlns="http://www.w3.org/2000/svg" width="100" height="100" viewBox="0 0 100 100"><g id="eyes"><path d="M42.69,52.25a1,1,0,0,1-.1.21c-.67,1.24-2.1,1.15-3.3,1L35.79,53a6,6,0,0,1-1.62-.36c-1.52-.67-1.53-2.58-.75-3.85,2-3.23,7.68-2,9.16,1.14A2.84,2.84,0,0,1,42.69,52.25Z" fill="#1a1a1a"/><ellipse cx="36.51" cy="49.53" rx="1.61" ry="1.16" transform="translate(-2.27 1.75) rotate(-2.67)" fill="#fff"/><path d="M56.11,52.25l.1.21c.68,1.24,2.1,1.15,3.31,1L63,53a5.94,5.94,0,0,0,1.63-.36c1.52-.67,1.53-2.58.75-3.85-2-3.23-7.68-2-9.16,1.14A2.88,2.88,0,0,0,56.11,52.25Z" fill="#1a1a1a"/><ellipse cx="59.45" cy="49.76" rx="1.61" ry="1.16" transform="translate(-5.39 7.25) rotate(-6.68)" fill="#fff"/><path d="M39.22,48.44c-1.63-1.51-1-3.93-.15-5.64a.29.29,0,0,1,.4-.12.3.3,0,0,1,.13.37,6.14,6.14,0,0,0-.39,2.46,2.74,2.74,0,0,0,.7,1.92.61.61,0,1,1-.69,1Z" fill="#1a1a1a"/><path d="M35.28,48.45a3.77,3.77,0,0,1-.94-5.06.15.15,0,0,1,.27.13A2.9,2.9,0,0,0,36,47.21a.72.72,0,1,1-.7,1.24Z" fill="#1a1a1a"/><path d="M34.24,49.86A2.33,2.33,0,0,1,31.8,48.4a.18.18,0,0,1,.1-.24.19.19,0,0,1,.23.07,1.66,1.66,0,0,0,1.86.71.48.48,0,1,1,.25.92Z" fill="#1a1a1a"/><path d="M59.38,47.43c1-1,.77-3,.31-4.38a.3.3,0,0,1,.16-.39.31.31,0,0,1,.37.14A6.13,6.13,0,0,1,60.94,47a2.43,2.43,0,0,1-.89,1.48.61.61,0,1,1-.67-1Z" fill="#1a1a1a"/><path d="M63.31,47.21a2.91,2.91,0,0,0,1.37-3.69.15.15,0,0,1,.27-.13,3.77,3.77,0,0,1-1,5.09.72.72,0,1,1-.66-1.27Z" fill="#1a1a1a"/><path d="M65.3,48.94a1.66,1.66,0,0,0,1.86-.71.19.19,0,0,1,.26-.06.2.2,0,0,1,.07.23,2.49,2.49,0,0,1-.91,1.1,2.12,2.12,0,0,1-1.58.35.48.48,0,1,1,.3-.91Z" fill="#1a1a1a"/></g></svg>