<svg xmlns="http://www.w3.org/2000/svg" width="100" height="100" viewBox="0 0 100 100"><g id="Layer_1" data-name="Layer 1"><circle cx="37.35" cy="50.14" r="4.6" fill="#1a1a1a"/><circle cx="35.84" cy="48.86" r="1.5" fill="#fff"/><circle cx="60.1" cy="49.71" r="4.6" fill="#1a1a1a"/><circle cx="58.25" cy="48.32" r="1.5" fill="#fff"/><path d="M38.66,46.79c-1.58-1.46-1-3.79-.15-5.44a.27.27,0,0,1,.38-.11.28.28,0,0,1,.13.35A6.29,6.29,0,0,0,38.64,44a2.62,2.62,0,0,0,.68,1.84.59.59,0,1,1-.66,1Z" fill="#1a1a1a"/><path d="M34.86,46.8A3.63,3.63,0,0,1,34,41.92c.08-.15.31,0,.26.12a2.81,2.81,0,0,0,1.32,3.57.69.69,0,1,1-.67,1.19Z" fill="#1a1a1a"/><path d="M33.85,48.15a2.22,2.22,0,0,1-2.35-1.4.18.18,0,0,1,.32-.17,1.61,1.61,0,0,0,1.8.69.46.46,0,1,1,.23.88Z" fill="#1a1a1a"/><path d="M57.82,45.68c1-1,.74-2.94.29-4.23a.28.28,0,0,1,.51-.23,6.8,6.8,0,0,1,.79,2.59,3.16,3.16,0,0,1-.95,2.86.59.59,0,1,1-.64-1Z" fill="#1a1a1a"/><path d="M61.6,45.47a2.8,2.8,0,0,0,1.32-3.56.15.15,0,0,1,.27-.12,3.64,3.64,0,0,1-.95,4.9.69.69,0,1,1-.64-1.22Z" fill="#1a1a1a"/><path d="M63.52,47.13a1.61,1.61,0,0,0,1.8-.68.17.17,0,0,1,.24-.05.18.18,0,0,1,.07.21,2.34,2.34,0,0,1-.88,1.07,2,2,0,0,1-1.52.33.47.47,0,1,1,.29-.88Z" fill="#1a1a1a"/></g></svg>