<svg xmlns="http://www.w3.org/2000/svg" width="100" height="100" viewBox="0 0 100 100"><g id="Layer_1" data-name="Layer 1"><circle cx="38.78" cy="43.33" r="4.6" fill="#1a1a1a"/><circle cx="37.28" cy="42.06" r="1.5" fill="#fff"/><circle cx="61.53" cy="42.91" r="4.6" fill="#1a1a1a"/><circle cx="59.69" cy="41.51" r="1.5" fill="#fff"/><path d="M40.09,40c-1.57-1.46-1-3.79-.15-5.44a.29.29,0,0,1,.52.24,6,6,0,0,0-.38,2.38A2.64,2.64,0,0,0,40.75,39a.59.59,0,1,1-.66,1Z" fill="#1a1a1a"/><path d="M36.29,40a3.63,3.63,0,0,1-.91-4.87.14.14,0,0,1,.26.12,3.32,3.32,0,0,0,0,2.18A2.41,2.41,0,0,0,37,38.8.69.69,0,1,1,36.29,40Z" fill="#1a1a1a"/><path d="M35.28,41.35a2.26,2.26,0,0,1-2.35-1.41.18.18,0,0,1,.1-.23.19.19,0,0,1,.22.07,1.62,1.62,0,0,0,1.8.68.47.47,0,1,1,.23.89Z" fill="#1a1a1a"/><path d="M59.25,38.87c1-1,.74-2.94.29-4.22a.3.3,0,0,1,.16-.37.3.3,0,0,1,.36.13A6.8,6.8,0,0,1,60.85,37a3.16,3.16,0,0,1-1,2.86.59.59,0,1,1-.65-1Z" fill="#1a1a1a"/><path d="M63,38.67a2.83,2.83,0,0,0,1.32-3.57.14.14,0,0,1,.26-.12,3.64,3.64,0,0,1-1,4.91A.69.69,0,1,1,63,38.67Z" fill="#1a1a1a"/><path d="M65,40.33a1.62,1.62,0,0,0,1.8-.69.19.19,0,0,1,.25,0,.21.21,0,0,1,.07.22,2.51,2.51,0,0,1-.88,1.06,2,2,0,0,1-1.52.33.46.46,0,1,1,.28-.87Z" fill="#1a1a1a"/></g></svg>