<svg xmlns="http://www.w3.org/2000/svg" width="100" height="100" viewBox="0 0 100 100"><g id="eyes"><path d="M27.38,73.24S25.47,76,18.53,77.62,9.62,72.1,9.62,72.1a8.84,8.84,0,0,0,1.65-.84" fill="#173d66"/><circle cx="55.7" cy="24.71" r="2.57" fill="#1d5397"/><path d="M66,53.13c.37-.15-1.26,1.83-9.88,10.7S36.37,78.53,24.68,75,9.49,72.1,9.49,72.1L27.07,55.93a22.81,22.81,0,0,1,18.47-9.08" fill="#1d5397"/><path d="M56.27,24.71a37.57,37.57,0,0,0-17.42,4.62c-4.64,2.58-8.35,7.84-10.26,12.46A38.7,38.7,0,0,0,26,52c0,.27-.25,5,0,4.88,11.89-3.68,16.75-1.31,28.43-.65a50.51,50.51,0,0,0,5.07,0c3.21-.15,6.69-.48,10.07-.89-2.29-10.65-2-23.19-9.54-30.51C58.76,24.72,57.49,24.68,56.27,24.71Z" fill="#fff"/><path d="M84.8,43.53A45.77,45.77,0,0,0,82.18,38a25,25,0,0,0-9-9.56,30.51,30.51,0,0,0-13.1-3.59c7.51,7.32,7.25,19.86,9.54,30.51,9-1.1,17.31-2.76,17.42-2.78C88.09,52.33,85.13,44.38,84.8,43.53Z" fill="#1d5397"/></g></svg>