<svg xmlns="http://www.w3.org/2000/svg" width="100" height="100" viewBox="0 0 100 100"><g id="eyes"><path d="M80.74,54A35.14,35.14,0,0,0,74.6,33.59C62.26,16,34.68,13.94,22.44,32.81,15,44.24,16.73,60.06,25.75,70.11c9.3,10.37,23.61,12.09,36.56,9C74.73,76.09,80.57,65.35,80.74,54Z" fill="#1d5397"/><path d="M56.37,56.14c-.34,2.53-3.13,3.49-6.12.87a35,35,0,0,0-3.16-2.82,8.62,8.62,0,0,0-8.53-.27,10,10,0,0,0-.31,17.64,15.25,15.25,0,0,0,6,1.63c6.31.61,15.47.09,20.51-4.17A27.23,27.23,0,0,0,74,51c.41-3.8,0-7.09-2.76-9.94-4.27-4.43-13-6-17-.37-3.31,4.7-.66,8,1.44,12.37A5.63,5.63,0,0,1,56.37,56.14Z" fill="#6fa6e2"/></g></svg>