<svg xmlns="http://www.w3.org/2000/svg" width="100" height="100" viewBox="0 0 100 100"><g id="eyes"><path d="M92.87,55a3,3,0,0,0-3.58-2.28,29.54,29.54,0,0,1-6.52,1A10.12,10.12,0,0,1,81,53.45a39.65,39.65,0,0,0-4-17,67.21,67.21,0,0,1,7.7-6.18,3,3,0,0,0-3.4-4.94,73.48,73.48,0,0,0-7.49,5.92A28.59,28.59,0,0,0,55.64,20.1a29.18,29.18,0,0,1,4.68-8.46,3,3,0,0,0-4.69-3.75,35.18,35.18,0,0,0-6.14,11.66A33.32,33.32,0,0,0,34,22.9a26.16,26.16,0,0,0-10.38-7.83,3,3,0,1,0-2.3,5.54,20.34,20.34,0,0,1,7.61,5.57A30.51,30.51,0,0,0,19.1,40.72a10.68,10.68,0,0,1-6.61-4.14,3,3,0,1,0-4.88,3.49,16.6,16.6,0,0,0,10.18,6.52,28.34,28.34,0,0,0,3.06,17.6,33.77,33.77,0,0,0-8.67,3.42,3,3,0,0,0,1.48,5.61,3,3,0,0,0,1.48-.39A27.59,27.59,0,0,1,25,69.52a39.31,39.31,0,0,0,12.5,8.55,28.44,28.44,0,0,0-8,9.69,3,3,0,0,0,5.36,2.7,22.36,22.36,0,0,1,10-9.95c7.18,1.69,14.65,1.49,21-1A15,15,0,0,1,68.6,89.87a3,3,0,0,0,2.61,3.34,2.31,2.31,0,0,0,.37,0,3,3,0,0,0,3-2.64,20.71,20.71,0,0,0-3.4-14c.5-.35,1-.72,1.47-1.11,4.31-3.56,7-9.43,8-16.06a15.47,15.47,0,0,0,2.07.18H83a34.9,34.9,0,0,0,7.63-1.1A3,3,0,0,0,92.87,55Z" fill="#1d5397"/><path d="M34.84,58.27A8.44,8.44,0,0,0,41,57.6,14.85,14.85,0,0,0,47,51.41c3.3-5.89,7.61-17.79-1.13-21.27a10.77,10.77,0,0,0-9.12.84c-6.16,3.48-9.52,11.94-8.69,18.77A9.88,9.88,0,0,0,34.84,58.27Z" fill="#6fa6e2"/></g></svg>