<svg xmlns="http://www.w3.org/2000/svg" width="100" height="100" viewBox="0 0 100 100"><g id="toppings"><path d="M76.79,33,32.27,20.05A2.56,2.56,0,0,0,29,22.13L19.59,84.24a2.57,2.57,0,0,0,4.27,2.29L77.8,37.34A2.57,2.57,0,0,0,76.79,33Z" fill="#1d5397"/><ellipse cx="57.71" cy="40.76" rx="7.02" ry="5.82" transform="matrix(0.82, -0.57, 0.57, 0.82, -12.95, 40.49)" fill="#fff"/><ellipse cx="37.75" cy="32.38" rx="7.02" ry="5.82" transform="translate(-9.82 46.87) rotate(-57.56)" fill="#fff"/><ellipse cx="39.65" cy="52.07" rx="7.02" ry="5.82" transform="translate(-25.56 57.6) rotate(-57.56)" fill="#fff"/><ellipse cx="30.32" cy="68.61" rx="5.64" ry="4.68" transform="translate(-43.85 57.39) rotate(-57.56)" fill="#fff"/><path d="M85.1,21.53,37.63,8.32c-2.11-1.12-5,.22-6.48,3s-.94,5.93,1.17,7a3.47,3.47,0,0,0,1.37.38L79.78,31.56Z" fill="#1d5397"/><ellipse cx="82.44" cy="26.55" rx="5.68" ry="4.33" transform="translate(20.4 86.98) rotate(-62.1)" fill="#173d66"/></g></svg>