<svg xmlns="http://www.w3.org/2000/svg" width="100" height="100" viewBox="0 0 100 100"><g id="Layer_1" data-name="Layer 1"><path d="M85.25,61.46c-4.06-.77-7.62-3.18-10.68-6s-5.72-5.95-8.8-8.71A15.2,15.2,0,0,0,61,43.64a6.7,6.7,0,0,0-5.61.3c-2.83,1.69-3.37,5.64-2.56,8.83,1.94,7.63,8.82,16.37,13.61,22.54,4.21,5.4,9.27,10.26,15.36,13.41" fill="#1d5397"/><polygon points="14.75 93.41 27.12 76.06 29.75 78.16 14.75 93.41" fill="#1d5397"/><path d="M27.12,76.06,45.44,53.62a1.78,1.78,0,0,1,2.63,2.11L29.75,78.16Z" fill="#fff"/><path d="M56.75,37.92l22-27.5a1.21,1.21,0,0,1,1.7-.19,1.2,1.2,0,0,1,.18,1.69l-22,27.51Z" fill="#1d5397"/><rect x="76.71" y="7.64" width="7.89" height="5.25" rx="2.09" transform="translate(137.18 68.72) rotate(-141.28)" fill="#1d5397"/><rect x="45.25" y="48.48" width="5.94" height="8.74" rx="2.34" transform="translate(52.78 124.24) rotate(-141.28)" fill="#1d5397"/><path d="M68.54,22.65l1,.79a2.36,2.36,0,0,0,3.29-.36l1.49-1.87a36.26,36.26,0,0,1,2.23-3,.5.5,0,0,1,.12-.08c.49-.17,1.58,1.48,1.82,1.81a11.89,11.89,0,0,1,2.13,4c.39,1.62.78,4.42-.32,5.86a1.24,1.24,0,0,1-1,.51,1.28,1.28,0,0,1-1-.75c-.31-.66-.52-1.5-.78-2.18l-.79-2-22.45,28a2.87,2.87,0,0,1-4,.44L46.9,51.14a2.87,2.87,0,0,1-.44-4l5.46-6.81,9.46-11.81,3.94-4.91c.45-.57.88-1.18,1.37-1.71C67.87,20.6,67.5,21.82,68.54,22.65Z" fill="#fff"/><path d="M42,39.63A10.15,10.15,0,0,0,42,43.36c.34,2,1,4.08,2.56,5.33a6.24,6.24,0,0,0,6.41.42,13,13,0,0,0,4.9-4.55c3.34-4.79,7-16-3-14.85A12.9,12.9,0,0,0,42,39.63Z" fill="#1d5397"/></g></svg>