<svg xmlns="http://www.w3.org/2000/svg" width="100" height="100" viewBox="0 0 100 100"><g id="Layer_1" data-name="Layer 1"><path d="M18.83,66.92l1.75-2.12c11.28-13.65,22.16-27.42,33-41.37,4.34-5.62,8.71-11.25,13.92-16.07,2.81-2.6,6.37-5.1,10.15-4.46,4.25.71,7,5.41,6.66,9.71s-3,8.08-6.06,11.08A664.16,664.16,0,0,1,19.37,74.82,6,6,0,0,0,17.32,77a11.25,11.25,0,0,0-.44,2.54,2.49,2.49,0,0,1-1.36,2c-2.19.79-6.31-1.86-6.71-4.13a3.46,3.46,0,0,1,1.4-3.31c.71-.47,1.76-.16,2.55-.6,1-.58,2-2,2.79-2.9C16.68,69.47,17.76,68.2,18.83,66.92Z" fill="#1d5397"/><path d="M21.86,66.27a7.58,7.58,0,0,0,1.39,2,11.21,11.21,0,0,0,2.27,1.76l3-2.35a12.59,12.59,0,0,1-5.68-5.61L21.26,64A8,8,0,0,0,21.86,66.27Z" fill="#6fa6e2"/><path d="M18.77,70.93a9.71,9.71,0,0,0,3.08,2L24.37,71A10.52,10.52,0,0,1,22,69.27a7.92,7.92,0,0,1-2.17-3.52l-1,1.17-1.62,1.91A8.68,8.68,0,0,0,18.77,70.93Z" fill="#6fa6e2"/><path d="M15.11,74a9.73,9.73,0,0,0,2.74,2.21,9.52,9.52,0,0,1,1.52-1.38c.39-.29.78-.6,1.17-.9a9.71,9.71,0,0,1-2.83-1.73,11.75,11.75,0,0,1-1.76-2l-.4.45c-.42.46-.9,1.09-1.4,1.67A6.91,6.91,0,0,0,15.11,74Z" fill="#6fa6e2"/><path d="M29.57,66.82c1.25-1,2.5-2,3.74-3l-.49-.27c-2-1.16-5-3.27-6.52-5.75L24,60.64A12.15,12.15,0,0,0,29.57,66.82Z" fill="#6fa6e2"/><circle cx="70.61" cy="70.24" r="18.84" fill="#6fa6e2"/><path d="M59,85c.57-1,1.13-2,1.63-3.09a42,42,0,0,0,3.2-9.83,51.31,51.31,0,0,0-.34-19.29,18.77,18.77,0,0,0-5.37,3.36c4.1,8.13,3.2,18.69-1.48,26.66A19.56,19.56,0,0,0,59,85Z" fill="#1d5397"/><path d="M86.34,59.93a19.25,19.25,0,0,0-2.7-3.27c-6.13,9-10.88,20.78-4.92,30.57A18.59,18.59,0,0,0,82.25,85C77.71,77.15,80.32,66.69,86.34,59.93Z" fill="#1d5397"/></g></svg>