<svg xmlns="http://www.w3.org/2000/svg" width="100" height="100" viewBox="0 0 100 100"><g id="Layer_1" data-name="Layer 1"><path d="M44.06,32.34a120,120,0,0,0-3-14.29C39.92,13.8,38.46,9.5,35.55,6.19A4.45,4.45,0,0,0,33,4.52c-2.17-.32-3.68,2-4.49,4.08a71.61,71.61,0,0,0-4.83,21,83.58,83.58,0,0,0,.22,8.52,3.19,3.19,0,0,1-.22,1.6,3.59,3.59,0,0,1-1,1c-8.2,6.72-7,19.65-4.18,28.75.93,3-.22,6.28-.38,9.39-.09,1.86-.09,4,1.27,5.25s3.86,1.1,5.69,2,2.92,2.82,4.63,3.92c2.55,1.64,6,1.09,8.67-.31s4.94-3.51,7.53-5.1c6.55-4,15.28-4.66,20.3-10.48,2.75-3.19,3.89-7.44,4.6-11.6.19,1.88,1.67,3.09,2.7,4.67.79,1.22,1.72,2.54,3.14,2.86,1.73.39,3.36-.87,4.6-2.14A36.11,36.11,0,0,0,90.6,51.16c.55-2.23-2.57-3.62-4.79-4.22s-4.57-.66-6.76-1.37a11.89,11.89,0,0,1-5.38-3.63,2.45,2.45,0,0,0-1.26-1,2.17,2.17,0,0,0-1.28.3l-7,3.21a45.94,45.94,0,0,0-9.62-8.52,22,22,0,0,0-2.88-1.63A32.71,32.71,0,0,0,44.06,32.34Z" fill="#eac081"/><path d="M29.24,90.81a12.66,12.66,0,0,1-2.22-2A8.63,8.63,0,0,0,24.72,87a9,9,0,0,0-2.17-.6l-1.22-.27A10.4,10.4,0,0,0,21.05,88a3.4,3.4,0,0,0,0,.44c0,2.85,1.52,6.39,4.63,7,2.69.5,5-1.37,6.33-3.58A7.25,7.25,0,0,1,29.24,90.81Z" fill="#1d5397"/><path d="M44.06,32.34a120,120,0,0,0-3-14.29C39.92,13.8,38.46,9.5,35.55,6.19A4.45,4.45,0,0,0,33,4.52c-2.17-.32-3.68,2-4.49,4.08a71.61,71.61,0,0,0-4.83,21,83.58,83.58,0,0,0,.22,8.52,3.19,3.19,0,0,1-.22,1.6,3.59,3.59,0,0,1-1,1c-8.2,6.72-7,19.65-4.18,28.75.93,3-.22,6.28-.38,9.39-.09,1.86-.09,4,1.27,5.25s3.86,1.1,5.69,2,2.92,2.82,4.63,3.92c2.55,1.64,6,1.09,8.67-.31s4.94-3.51,7.53-5.1c6.55-4,15.28-4.66,20.3-10.48,2.75-3.19,3.89-7.44,4.6-11.6.19,1.88,1.67,3.09,2.7,4.67.79,1.22,1.72,2.54,3.14,2.86,1.73.39,3.36-.87,4.6-2.14A36.11,36.11,0,0,0,90.6,51.16c.55-2.23-2.57-3.62-4.79-4.22s-4.57-.66-6.76-1.37a11.89,11.89,0,0,1-5.38-3.63,2.45,2.45,0,0,0-1.26-1,2.17,2.17,0,0,0-1.28.3l-7,3.21a45.94,45.94,0,0,0-9.62-8.52,22,22,0,0,0-2.88-1.63A32.71,32.71,0,0,0,44.06,32.34Z" fill="#1d5397"/><path d="M33.53,73.87a11,11,0,0,0-6.65-1.68,2.9,2.9,0,0,0-1.36.32,3.12,3.12,0,0,0-1.11,2.78,16.89,16.89,0,0,0,1.12,6.13,4.12,4.12,0,0,0,2.29,2.69,3.6,3.6,0,0,0,2.73-.5,32.39,32.39,0,0,1,3.54-1.89c1-.42,2.35-.88,2.79-2C37.7,77.53,35.11,74.91,33.53,73.87Z" fill="#fff"/><path d="M32.55,46.75a3.43,3.43,0,0,0-3-.42c-3.33,1.16-4.75,6.24-3.87,9.34A3.94,3.94,0,0,0,27.3,58a4,4,0,0,0,4.53-.65c2.29-2,3.41-6.52,2-9.25A3.72,3.72,0,0,0,32.55,46.75Z" fill="#fff"/><path d="M55.93,58a3.44,3.44,0,0,0-2.76-1.37c-3.52.05-6.48,4.42-6.63,7.64a3.62,3.62,0,0,0,5.35,3.57c2.79-1.16,5.3-5.1,4.79-8.15A3.81,3.81,0,0,0,55.93,58Z" fill="#fff"/><path d="M70.88,62.48c-1.61-5.17.21-10.57,1.45-15.6a.5.5,0,0,1,.6-.38.52.52,0,0,1,.38.61c-1.56,5-3.7,10.06-2.43,15.37Z" fill="#fff"/></g></svg>